<?xml version="1.0" encoding="UTF-8" standalone="no"?>
<!DOCTYPE svg PUBLIC "-//W3C//DTD SVG 1.1//EN"
 "http://www.w3.org/Graphics/SVG/1.1/DTD/svg11.dtd">
<!-- Generated by graphviz version 2.43.0 (0)
 -->
<!-- Title: Exp_a0_01_b2_0_maxDeg10_tree Pages: 1 -->
<svg width="752pt" height="748pt"
 viewBox="0.00 0.00 752.00 748.00" xmlns="http://www.w3.org/2000/svg" xmlns:xlink="http://www.w3.org/1999/xlink">
<g id="graph0" class="graph" transform="scale(1 1) rotate(0) translate(4 744)">
<title>Exp_a0_01_b2_0_maxDeg10_tree</title>
<polygon fill="white" stroke="transparent" points="-4,4 -4,-744 748,-744 748,4 -4,4"/>
<!-- 0 -->
<g id="node1" class="node">
<title>0</title>
<ellipse fill="#b2dfee" stroke="black" cx="429.23" cy="-45.05" rx="18" ry="18"/>
<text text-anchor="middle" x="429.23" y="-41.35" font-family="Arial" font-size="14.00">0</text>
</g>
<!-- 63 -->
<g id="node64" class="node">
<title>63</title>
<ellipse fill="skyblue" stroke="black" cx="421.9" cy="-135.88" rx="20.6" ry="20.6"/>
<text text-anchor="middle" x="421.9" y="-132.18" font-family="Arial" font-size="14.00">63</text>
</g>
<!-- 0&#45;&#45;63 -->
<g id="edge1" class="edge">
<title>0&#45;&#45;63</title>
<path fill="none" stroke="green" stroke-width="2" d="M427.78,-63C426.57,-77.99 424.85,-99.38 423.58,-115.11"/>
</g>
<!-- 1 -->
<g id="node2" class="node">
<title>1</title>
<ellipse fill="#b2dfee" stroke="black" cx="365.01" cy="-376.24" rx="18" ry="18"/>
<text text-anchor="middle" x="365.01" y="-372.54" font-family="Arial" font-size="14.00">1</text>
</g>
<!-- 26 -->
<g id="node27" class="node">
<title>26</title>
<ellipse fill="#9ac0cd" stroke="black" cx="347.13" cy="-290.31" rx="20.6" ry="20.6"/>
<text text-anchor="middle" x="347.13" y="-286.61" font-family="Arial" font-size="14.00">26</text>
</g>
<!-- 1&#45;&#45;26 -->
<g id="edge2" class="edge">
<title>1&#45;&#45;26</title>
<path fill="none" stroke="green" stroke-width="2" d="M361.31,-358.44C358.42,-344.57 354.41,-325.32 351.39,-310.81"/>
</g>
<!-- 2 -->
<g id="node3" class="node">
<title>2</title>
<ellipse fill="#9ac0cd" stroke="black" cx="459.65" cy="-89.06" rx="18" ry="18"/>
<text text-anchor="middle" x="459.65" y="-85.36" font-family="Arial" font-size="14.00">2</text>
</g>
<!-- 48 -->
<g id="node49" class="node">
<title>48</title>
<ellipse fill="#68838b" stroke="black" cx="504.74" cy="-135.9" rx="20.6" ry="20.6"/>
<text text-anchor="middle" x="504.74" y="-132.2" font-family="Arial" font-size="14.00">48</text>
</g>
<!-- 2&#45;&#45;48 -->
<g id="edge3" class="edge">
<title>2&#45;&#45;48</title>
<path fill="none" stroke="green" stroke-width="2" d="M472.21,-102.11C477.73,-107.85 484.26,-114.63 490.01,-120.6"/>
</g>
<!-- 51 -->
<g id="node52" class="node">
<title>51</title>
<ellipse fill="#68838b" stroke="black" cx="372.3" cy="-139.17" rx="20.6" ry="20.6"/>
<text text-anchor="middle" x="372.3" y="-135.47" font-family="Arial" font-size="14.00">51</text>
</g>
<!-- 2&#45;&#45;51 -->
<g id="edge4" class="edge">
<title>2&#45;&#45;51</title>
<path fill="none" stroke="green" stroke-width="2" d="M444.04,-98.02C429.02,-106.63 406.33,-119.65 390.5,-128.73"/>
</g>
<!-- 3 -->
<g id="node4" class="node">
<title>3</title>
<ellipse fill="lightblue" stroke="black" cx="376.06" cy="-673.88" rx="18" ry="18"/>
<text text-anchor="middle" x="376.06" y="-670.18" font-family="Arial" font-size="14.00">3</text>
</g>
<!-- 4 -->
<g id="node5" class="node">
<title>4</title>
<ellipse fill="lightblue" stroke="black" cx="671.73" cy="-533.54" rx="18" ry="18"/>
<text text-anchor="middle" x="671.73" y="-529.84" font-family="Arial" font-size="14.00">4</text>
</g>
<!-- 5 -->
<g id="node6" class="node">
<title>5</title>
<ellipse fill="#b2dfee" stroke="black" cx="689.81" cy="-155.71" rx="18" ry="18"/>
<text text-anchor="middle" x="689.81" y="-152.01" font-family="Arial" font-size="14.00">5</text>
</g>
<!-- 30 -->
<g id="node31" class="node">
<title>30</title>
<ellipse fill="#9ac0cd" stroke="black" cx="625.52" cy="-152.83" rx="20.6" ry="20.6"/>
<text text-anchor="middle" x="625.52" y="-149.13" font-family="Arial" font-size="14.00">30</text>
</g>
<!-- 5&#45;&#45;30 -->
<g id="edge5" class="edge">
<title>5&#45;&#45;30</title>
<path fill="none" stroke="green" stroke-width="2" d="M671.56,-154.9C663.69,-154.54 654.45,-154.13 646.31,-153.76"/>
</g>
<!-- 6 -->
<g id="node7" class="node">
<title>6</title>
<ellipse fill="#b2dfee" stroke="black" cx="647.84" cy="-199.98" rx="18" ry="18"/>
<text text-anchor="middle" x="647.84" y="-196.28" font-family="Arial" font-size="14.00">6</text>
</g>
<!-- 73 -->
<g id="node74" class="node">
<title>73</title>
<ellipse fill="skyblue" stroke="black" cx="551.41" cy="-185.9" rx="20.6" ry="20.6"/>
<text text-anchor="middle" x="551.41" y="-182.2" font-family="Arial" font-size="14.00">73</text>
</g>
<!-- 6&#45;&#45;73 -->
<g id="edge6" class="edge">
<title>6&#45;&#45;73</title>
<path fill="none" stroke="green" stroke-width="2" d="M630.11,-196.73C621.39,-195.18 610.7,-193.36 601.08,-191.95 591.63,-190.56 581.13,-189.25 572.22,-188.2"/>
</g>
<!-- 7 -->
<g id="node8" class="node">
<title>7</title>
<ellipse fill="skyblue" stroke="black" cx="239.46" cy="-438" rx="18" ry="18"/>
<text text-anchor="middle" x="239.46" y="-434.3" font-family="Arial" font-size="14.00">7</text>
</g>
<!-- 27 -->
<g id="node28" class="node">
<title>27</title>
<ellipse fill="#b2dfee" stroke="black" cx="249.17" cy="-484.83" rx="20.6" ry="20.6"/>
<text text-anchor="middle" x="249.17" y="-481.13" font-family="Arial" font-size="14.00">27</text>
</g>
<!-- 7&#45;&#45;27 -->
<g id="edge7" class="edge">
<title>7&#45;&#45;27</title>
<path fill="none" stroke="green" stroke-width="2" d="M243.13,-455.71C243.71,-458.51 244.32,-461.42 244.91,-464.27"/>
</g>
<!-- 38 -->
<g id="node39" class="node">
<title>38</title>
<ellipse fill="skyblue" stroke="black" cx="298.78" cy="-527.81" rx="20.6" ry="20.6"/>
<text text-anchor="middle" x="298.78" y="-524.11" font-family="Arial" font-size="14.00">38</text>
</g>
<!-- 7&#45;&#45;38 -->
<g id="edge8" class="edge">
<title>7&#45;&#45;38</title>
<path fill="none" stroke="green" stroke-width="2" d="M251.47,-451.54C255.96,-456.85 260.96,-463.11 265.1,-469.09 273.99,-481.94 282.74,-497.29 289.08,-509.07"/>
</g>
<!-- 56 -->
<g id="node57" class="node">
<title>56</title>
<ellipse fill="skyblue" stroke="black" cx="268.56" cy="-391.17" rx="20.6" ry="20.6"/>
<text text-anchor="middle" x="268.56" y="-387.47" font-family="Arial" font-size="14.00">56</text>
</g>
<!-- 7&#45;&#45;56 -->
<g id="edge9" class="edge">
<title>7&#45;&#45;56</title>
<path fill="none" stroke="green" stroke-width="2" d="M248.99,-422.67C251.71,-418.3 254.69,-413.49 257.49,-408.98"/>
</g>
<!-- 68 -->
<g id="node69" class="node">
<title>68</title>
<ellipse fill="#b2dfee" stroke="black" cx="149.4" cy="-382.92" rx="20.6" ry="20.6"/>
<text text-anchor="middle" x="149.4" y="-379.22" font-family="Arial" font-size="14.00">68</text>
</g>
<!-- 7&#45;&#45;68 -->
<g id="edge10" class="edge">
<title>7&#45;&#45;68</title>
<path fill="none" stroke="green" stroke-width="2" d="M223.78,-428.41C208.05,-418.79 183.87,-404 167.38,-393.92"/>
</g>
<!-- 83 -->
<g id="node84" class="node">
<title>83</title>
<ellipse fill="#68838b" stroke="black" cx="184.35" cy="-433.65" rx="20.6" ry="20.6"/>
<text text-anchor="middle" x="184.35" y="-429.95" font-family="Arial" font-size="14.00">83</text>
</g>
<!-- 7&#45;&#45;83 -->
<g id="edge11" class="edge">
<title>7&#45;&#45;83</title>
<path fill="none" stroke="green" stroke-width="2" d="M221.42,-436.58C216.27,-436.17 210.62,-435.73 205.31,-435.31"/>
</g>
<!-- 8 -->
<g id="node9" class="node">
<title>8</title>
<ellipse fill="lightblue" stroke="black" cx="568.93" cy="-685.17" rx="18" ry="18"/>
<text text-anchor="middle" x="568.93" y="-681.47" font-family="Arial" font-size="14.00">8</text>
</g>
<!-- 9 -->
<g id="node10" class="node">
<title>9</title>
<ellipse fill="#b2dfee" stroke="black" cx="683.17" cy="-294.97" rx="18" ry="18"/>
<text text-anchor="middle" x="683.17" y="-291.27" font-family="Arial" font-size="14.00">9</text>
</g>
<!-- 17 -->
<g id="node18" class="node">
<title>17</title>
<ellipse fill="#68838b" stroke="black" cx="601.04" cy="-214.35" rx="20.6" ry="20.6"/>
<text text-anchor="middle" x="601.04" y="-210.65" font-family="Arial" font-size="14.00">17</text>
</g>
<!-- 9&#45;&#45;17 -->
<g id="edge12" class="edge">
<title>9&#45;&#45;17</title>
<path fill="none" stroke="green" stroke-width="2" d="M667.9,-284.66C659.46,-278.64 649.02,-270.65 640.59,-262.53 630.61,-252.91 620.73,-240.87 613.33,-231.23"/>
</g>
<!-- 10 -->
<g id="node11" class="node">
<title>10</title>
<ellipse fill="#b2dfee" stroke="black" cx="248.29" cy="-680.02" rx="20.6" ry="20.6"/>
<text text-anchor="middle" x="248.29" y="-676.32" font-family="Arial" font-size="14.00">10</text>
</g>
<!-- 10&#45;&#45;38 -->
<g id="edge13" class="edge">
<title>10&#45;&#45;38</title>
<path fill="none" stroke="green" stroke-width="2" d="M253.4,-659.73C258.82,-638.85 267.97,-605.49 277.93,-577.32 280.47,-570.14 281.62,-568.55 284.58,-561.52 286.55,-556.84 288.68,-551.79 290.67,-547.07"/>
</g>
<!-- 11 -->
<g id="node12" class="node">
<title>11</title>
<ellipse fill="#9ac0cd" stroke="black" cx="92.5" cy="-301.71" rx="20.6" ry="20.6"/>
<text text-anchor="middle" x="92.5" y="-298.01" font-family="Arial" font-size="14.00">11</text>
</g>
<!-- 43 -->
<g id="node44" class="node">
<title>43</title>
<ellipse fill="skyblue" stroke="black" cx="142.02" cy="-241.31" rx="20.6" ry="20.6"/>
<text text-anchor="middle" x="142.02" y="-237.61" font-family="Arial" font-size="14.00">43</text>
</g>
<!-- 11&#45;&#45;43 -->
<g id="edge14" class="edge">
<title>11&#45;&#45;43</title>
<path fill="none" stroke="green" stroke-width="2" d="M105.77,-285.52C112.87,-276.86 121.6,-266.21 128.71,-257.54"/>
</g>
<!-- 54 -->
<g id="node55" class="node">
<title>54</title>
<ellipse fill="#b2dfee" stroke="black" cx="98.51" cy="-184.83" rx="20.6" ry="20.6"/>
<text text-anchor="middle" x="98.51" y="-181.13" font-family="Arial" font-size="14.00">54</text>
</g>
<!-- 11&#45;&#45;54 -->
<g id="edge15" class="edge">
<title>11&#45;&#45;54</title>
<path fill="none" stroke="green" stroke-width="2" d="M95.91,-280.93C97.87,-267.71 100.04,-250.21 100.65,-234.62 101.02,-225.11 100.68,-214.58 100.17,-205.66"/>
</g>
<!-- 12 -->
<g id="node13" class="node">
<title>12</title>
<ellipse fill="lightblue" stroke="black" cx="658.14" cy="-586.18" rx="20.6" ry="20.6"/>
<text text-anchor="middle" x="658.14" y="-582.48" font-family="Arial" font-size="14.00">12</text>
</g>
<!-- 13 -->
<g id="node14" class="node">
<title>13</title>
<ellipse fill="#b2dfee" stroke="black" cx="88.19" cy="-351.41" rx="20.6" ry="20.6"/>
<text text-anchor="middle" x="88.19" y="-347.71" font-family="Arial" font-size="14.00">13</text>
</g>
<!-- 13&#45;&#45;43 -->
<g id="edge16" class="edge">
<title>13&#45;&#45;43</title>
<path fill="none" stroke="green" stroke-width="2" d="M99.26,-333.78C102.31,-328.65 105.53,-322.99 108.24,-317.63 108.83,-316.48 125.93,-276.11 126.46,-274.93 128.55,-270.23 130.85,-265.18 133.03,-260.47"/>
</g>
<!-- 14 -->
<g id="node15" class="node">
<title>14</title>
<ellipse fill="#b2dfee" stroke="black" cx="150.8" cy="-169.15" rx="20.6" ry="20.6"/>
<text text-anchor="middle" x="150.8" y="-165.45" font-family="Arial" font-size="14.00">14</text>
</g>
<!-- 23 -->
<g id="node24" class="node">
<title>23</title>
<ellipse fill="#9ac0cd" stroke="black" cx="78.25" cy="-234.49" rx="20.6" ry="20.6"/>
<text text-anchor="middle" x="78.25" y="-230.79" font-family="Arial" font-size="14.00">23</text>
</g>
<!-- 14&#45;&#45;23 -->
<g id="edge17" class="edge">
<title>14&#45;&#45;23</title>
<path fill="none" stroke="green" stroke-width="2" d="M135.06,-183.33C122.89,-194.29 106.12,-209.39 93.96,-220.34"/>
</g>
<!-- 15 -->
<g id="node16" class="node">
<title>15</title>
<ellipse fill="lightblue" stroke="black" cx="522.12" cy="-686.39" rx="20.6" ry="20.6"/>
<text text-anchor="middle" x="522.12" y="-682.69" font-family="Arial" font-size="14.00">15</text>
</g>
<!-- 16 -->
<g id="node17" class="node">
<title>16</title>
<ellipse fill="skyblue" stroke="black" cx="449.48" cy="-357.54" rx="20.6" ry="20.6"/>
<text text-anchor="middle" x="449.48" y="-353.84" font-family="Arial" font-size="14.00">16</text>
</g>
<!-- 41 -->
<g id="node42" class="node">
<title>41</title>
<ellipse fill="#9ac0cd" stroke="black" cx="501.8" cy="-427.65" rx="20.6" ry="20.6"/>
<text text-anchor="middle" x="501.8" y="-423.95" font-family="Arial" font-size="14.00">41</text>
</g>
<!-- 16&#45;&#45;41 -->
<g id="edge18" class="edge">
<title>16&#45;&#45;41</title>
<path fill="none" stroke="green" stroke-width="2" d="M462.15,-374.51C470.37,-385.53 481.05,-399.84 489.25,-410.83"/>
</g>
<!-- 50 -->
<g id="node51" class="node">
<title>50</title>
<ellipse fill="#b2dfee" stroke="black" cx="499.1" cy="-358.62" rx="20.6" ry="20.6"/>
<text text-anchor="middle" x="499.1" y="-354.92" font-family="Arial" font-size="14.00">50</text>
</g>
<!-- 16&#45;&#45;50 -->
<g id="edge19" class="edge">
<title>16&#45;&#45;50</title>
<path fill="none" stroke="green" stroke-width="2" d="M470.52,-358C473.06,-358.06 475.65,-358.11 478.18,-358.17"/>
</g>
<!-- 70 -->
<g id="node71" class="node">
<title>70</title>
<ellipse fill="#b2dfee" stroke="black" cx="318.19" cy="-400.93" rx="20.6" ry="20.6"/>
<text text-anchor="middle" x="318.19" y="-397.23" font-family="Arial" font-size="14.00">70</text>
</g>
<!-- 16&#45;&#45;70 -->
<g id="edge20" class="edge">
<title>16&#45;&#45;70</title>
<path fill="none" stroke="green" stroke-width="2" d="M431.36,-368.03C414.69,-377.12 388.98,-389.74 364.92,-395.84 356.69,-397.93 347.44,-399.16 339.35,-399.88"/>
</g>
<!-- 75 -->
<g id="node76" class="node">
<title>75</title>
<ellipse fill="skyblue" stroke="black" cx="399.03" cy="-242.67" rx="20.6" ry="20.6"/>
<text text-anchor="middle" x="399.03" y="-238.97" font-family="Arial" font-size="14.00">75</text>
</g>
<!-- 16&#45;&#45;75 -->
<g id="edge21" class="edge">
<title>16&#45;&#45;75</title>
<path fill="none" stroke="green" stroke-width="2" d="M440.06,-338.94C437.62,-333.97 435.03,-328.58 432.75,-323.55 423.31,-302.78 413.36,-278.58 406.73,-262.1"/>
</g>
<!-- 88 -->
<g id="node89" class="node">
<title>88</title>
<ellipse fill="#9ac0cd" stroke="black" cx="451.96" cy="-413.23" rx="20.6" ry="20.6"/>
<text text-anchor="middle" x="451.96" y="-409.53" font-family="Arial" font-size="14.00">88</text>
</g>
<!-- 16&#45;&#45;88 -->
<g id="edge22" class="edge">
<title>16&#45;&#45;88</title>
<path fill="none" stroke="green" stroke-width="2" d="M450.42,-378.6C450.61,-383.03 450.82,-387.71 451.02,-392.15"/>
</g>
<!-- 96 -->
<g id="node97" class="node">
<title>96</title>
<ellipse fill="skyblue" stroke="black" cx="555.69" cy="-296.45" rx="20.6" ry="20.6"/>
<text text-anchor="middle" x="555.69" y="-292.75" font-family="Arial" font-size="14.00">96</text>
</g>
<!-- 16&#45;&#45;96 -->
<g id="edge23" class="edge">
<title>16&#45;&#45;96</title>
<path fill="none" stroke="green" stroke-width="2" d="M467.98,-346.9C487.47,-335.69 517.99,-318.14 537.4,-306.97"/>
</g>
<!-- 98 -->
<g id="node99" class="node">
<title>98</title>
<ellipse fill="#b2dfee" stroke="black" cx="317.62" cy="-459.91" rx="20.6" ry="20.6"/>
<text text-anchor="middle" x="317.62" y="-456.21" font-family="Arial" font-size="14.00">98</text>
</g>
<!-- 16&#45;&#45;98 -->
<g id="edge24" class="edge">
<title>16&#45;&#45;98</title>
<path fill="none" stroke="green" stroke-width="2" d="M433.05,-370.3C407.78,-389.92 359.65,-427.28 334.26,-447"/>
</g>
<!-- 65 -->
<g id="node66" class="node">
<title>65</title>
<ellipse fill="#b2dfee" stroke="black" cx="620.81" cy="-303.27" rx="20.6" ry="20.6"/>
<text text-anchor="middle" x="620.81" y="-299.57" font-family="Arial" font-size="14.00">65</text>
</g>
<!-- 17&#45;&#45;65 -->
<g id="edge25" class="edge">
<title>17&#45;&#45;65</title>
<path fill="none" stroke="green" stroke-width="2" d="M605.62,-234.97C608.81,-249.34 613.06,-268.42 616.25,-282.76"/>
</g>
<!-- 17&#45;&#45;73 -->
<g id="edge26" class="edge">
<title>17&#45;&#45;73</title>
<path fill="none" stroke="green" stroke-width="2" d="M582.84,-203.92C578.52,-201.44 573.92,-198.8 569.6,-196.33"/>
</g>
<!-- 18 -->
<g id="node19" class="node">
<title>18</title>
<ellipse fill="#b2dfee" stroke="black" cx="478.8" cy="-20.46" rx="20.6" ry="20.6"/>
<text text-anchor="middle" x="478.8" y="-16.76" font-family="Arial" font-size="14.00">18</text>
</g>
<!-- 18&#45;&#45;63 -->
<g id="edge27" class="edge">
<title>18&#45;&#45;63</title>
<path fill="none" stroke="green" stroke-width="2" d="M467.18,-38.31C460.57,-48.81 452.35,-62.47 445.91,-75.09 442.88,-81.03 442.56,-82.72 440.05,-88.9 436.44,-97.82 432.58,-107.74 429.36,-116.17"/>
</g>
<!-- 19 -->
<g id="node20" class="node">
<title>19</title>
<ellipse fill="#68838b" stroke="black" cx="205.81" cy="-196.79" rx="20.6" ry="20.6"/>
<text text-anchor="middle" x="205.81" y="-193.09" font-family="Arial" font-size="14.00">19</text>
</g>
<!-- 19&#45;&#45;43 -->
<g id="edge28" class="edge">
<title>19&#45;&#45;43</title>
<path fill="none" stroke="green" stroke-width="2" d="M188.72,-208.72C179.56,-215.11 168.32,-222.96 159.16,-229.35"/>
</g>
<!-- 62 -->
<g id="node63" class="node">
<title>62</title>
<ellipse fill="#b2dfee" stroke="black" cx="245.29" cy="-288.8" rx="20.6" ry="20.6"/>
<text text-anchor="middle" x="245.29" y="-285.1" font-family="Arial" font-size="14.00">62</text>
</g>
<!-- 19&#45;&#45;62 -->
<g id="edge29" class="edge">
<title>19&#45;&#45;62</title>
<path fill="none" stroke="green" stroke-width="2" d="M214.18,-216.3C220.93,-232.02 230.36,-254 237.07,-269.63"/>
</g>
<!-- 94 -->
<g id="node95" class="node">
<title>94</title>
<ellipse fill="#9ac0cd" stroke="black" cx="278.72" cy="-200.3" rx="20.6" ry="20.6"/>
<text text-anchor="middle" x="278.72" y="-196.6" font-family="Arial" font-size="14.00">94</text>
</g>
<!-- 19&#45;&#45;94 -->
<g id="edge30" class="edge">
<title>19&#45;&#45;94</title>
<path fill="none" stroke="green" stroke-width="2" d="M226.9,-197.81C236.66,-198.28 248.21,-198.83 257.93,-199.3"/>
</g>
<!-- 20 -->
<g id="node21" class="node">
<title>20</title>
<ellipse fill="#b2dfee" stroke="black" cx="185.01" cy="-545.05" rx="20.6" ry="20.6"/>
<text text-anchor="middle" x="185.01" y="-541.35" font-family="Arial" font-size="14.00">20</text>
</g>
<!-- 20&#45;&#45;83 -->
<g id="edge31" class="edge">
<title>20&#45;&#45;83</title>
<path fill="none" stroke="green" stroke-width="2" d="M180.44,-524.34C178.81,-515.45 177.33,-504.91 177.14,-495.29 176.86,-481.5 178.66,-466.09 180.54,-454.13"/>
</g>
<!-- 21 -->
<g id="node22" class="node">
<title>21</title>
<ellipse fill="red" stroke="black" cx="322.66" cy="-112.52" rx="20.6" ry="20.6"/>
<text text-anchor="middle" x="322.66" y="-108.82" font-family="Arial" font-size="14.00" fill="white">21</text>
</g>
<!-- 21&#45;&#45;51 -->
<g id="edge32" class="edge">
<title>21&#45;&#45;51</title>
<path fill="none" stroke="green" stroke-width="2" d="M341.15,-122.44C345.34,-124.69 349.78,-127.08 353.97,-129.32"/>
</g>
<!-- 52 -->
<g id="node53" class="node">
<title>52</title>
<ellipse fill="#b2dfee" stroke="black" cx="379.62" cy="-72.16" rx="20.6" ry="20.6"/>
<text text-anchor="middle" x="379.62" y="-68.46" font-family="Arial" font-size="14.00">52</text>
</g>
<!-- 21&#45;&#45;52 -->
<g id="edge33" class="edge">
<title>21&#45;&#45;52</title>
<path fill="none" stroke="green" stroke-width="2" d="M339.75,-100.41C346.96,-95.3 355.34,-89.37 362.54,-84.26"/>
</g>
<!-- 71 -->
<g id="node72" class="node">
<title>71</title>
<ellipse fill="#68838b" stroke="black" cx="331.8" cy="-191.48" rx="20.6" ry="20.6"/>
<text text-anchor="middle" x="331.8" y="-187.78" font-family="Arial" font-size="14.00">71</text>
</g>
<!-- 21&#45;&#45;71 -->
<g id="edge34" class="edge">
<title>21&#45;&#45;71</title>
<path fill="none" stroke="green" stroke-width="2" d="M325.07,-133.26C326.4,-144.78 328.05,-159.06 329.38,-170.6"/>
</g>
<!-- 72 -->
<g id="node73" class="node">
<title>72</title>
<ellipse fill="#9ac0cd" stroke="black" cx="272.72" cy="-109.27" rx="20.6" ry="20.6"/>
<text text-anchor="middle" x="272.72" y="-105.57" font-family="Arial" font-size="14.00">72</text>
</g>
<!-- 21&#45;&#45;72 -->
<g id="edge35" class="edge">
<title>21&#45;&#45;72</title>
<path fill="none" stroke="green" stroke-width="2" d="M301.77,-111.16C299.1,-110.99 296.36,-110.81 293.69,-110.64"/>
</g>
<!-- 22 -->
<g id="node23" class="node">
<title>22</title>
<ellipse fill="#b2dfee" stroke="black" cx="218.92" cy="-381.2" rx="20.6" ry="20.6"/>
<text text-anchor="middle" x="218.92" y="-377.5" font-family="Arial" font-size="14.00">22</text>
</g>
<!-- 22&#45;&#45;56 -->
<g id="edge36" class="edge">
<title>22&#45;&#45;56</title>
<path fill="none" stroke="green" stroke-width="2" d="M239.39,-385.31C242.28,-385.89 245.24,-386.49 248.13,-387.07"/>
</g>
<!-- 23&#45;&#45;43 -->
<g id="edge37" class="edge">
<title>23&#45;&#45;43</title>
<path fill="none" stroke="green" stroke-width="2" d="M99.13,-236.73C106.25,-237.49 114.21,-238.34 121.31,-239.1"/>
</g>
<!-- 24 -->
<g id="node25" class="node">
<title>24</title>
<ellipse fill="lightblue" stroke="black" cx="36.16" cy="-580.73" rx="20.6" ry="20.6"/>
<text text-anchor="middle" x="36.16" y="-577.03" font-family="Arial" font-size="14.00">24</text>
</g>
<!-- 25 -->
<g id="node26" class="node">
<title>25</title>
<ellipse fill="lightblue" stroke="black" cx="85.78" cy="-542.07" rx="20.6" ry="20.6"/>
<text text-anchor="middle" x="85.78" y="-538.37" font-family="Arial" font-size="14.00">25</text>
</g>
<!-- 26&#45;&#45;75 -->
<g id="edge38" class="edge">
<title>26&#45;&#45;75</title>
<path fill="none" stroke="green" stroke-width="2" d="M362.7,-276.02C369.27,-269.99 376.9,-262.99 383.47,-256.96"/>
</g>
<!-- 28 -->
<g id="node29" class="node">
<title>28</title>
<ellipse fill="lightblue" stroke="black" cx="587.54" cy="-522.5" rx="20.6" ry="20.6"/>
<text text-anchor="middle" x="587.54" y="-518.8" font-family="Arial" font-size="14.00">28</text>
</g>
<!-- 29 -->
<g id="node30" class="node">
<title>29</title>
<ellipse fill="lightblue" stroke="black" cx="646.55" cy="-636.03" rx="20.6" ry="20.6"/>
<text text-anchor="middle" x="646.55" y="-632.33" font-family="Arial" font-size="14.00">29</text>
</g>
<!-- 30&#45;&#45;48 -->
<g id="edge39" class="edge">
<title>30&#45;&#45;48</title>
<path fill="none" stroke="green" stroke-width="2" d="M604.76,-149.92C582.63,-146.82 547.81,-141.94 525.63,-138.83"/>
</g>
<!-- 31 -->
<g id="node32" class="node">
<title>31</title>
<ellipse fill="#b2dfee" stroke="black" cx="598.35" cy="-355.89" rx="20.6" ry="20.6"/>
<text text-anchor="middle" x="598.35" y="-352.19" font-family="Arial" font-size="14.00">31</text>
</g>
<!-- 31&#45;&#45;96 -->
<g id="edge40" class="edge">
<title>31&#45;&#45;96</title>
<path fill="none" stroke="green" stroke-width="2" d="M586.01,-338.7C580.3,-330.74 573.54,-321.32 567.85,-313.4"/>
</g>
<!-- 32 -->
<g id="node33" class="node">
<title>32</title>
<ellipse fill="#9ac0cd" stroke="black" cx="688.29" cy="-391.46" rx="20.6" ry="20.6"/>
<text text-anchor="middle" x="688.29" y="-387.76" font-family="Arial" font-size="14.00">32</text>
</g>
<!-- 34 -->
<g id="node35" class="node">
<title>34</title>
<ellipse fill="#b2dfee" stroke="black" cx="672.11" cy="-441.15" rx="20.6" ry="20.6"/>
<text text-anchor="middle" x="672.11" y="-437.45" font-family="Arial" font-size="14.00">34</text>
</g>
<!-- 32&#45;&#45;34 -->
<g id="edge41" class="edge">
<title>32&#45;&#45;34</title>
<path fill="none" stroke="green" stroke-width="2" d="M681.8,-411.39C680.74,-414.63 679.65,-417.98 678.6,-421.22"/>
</g>
<!-- 32&#45;&#45;41 -->
<g id="edge42" class="edge">
<title>32&#45;&#45;41</title>
<path fill="none" stroke="green" stroke-width="2" d="M668.02,-386.6C654,-383.87 634.93,-381.39 618.16,-383.5 581.71,-388.07 542.36,-406.04 520.03,-417.6"/>
</g>
<!-- 33 -->
<g id="node34" class="node">
<title>33</title>
<ellipse fill="#b2dfee" stroke="black" cx="191.75" cy="-331.55" rx="20.6" ry="20.6"/>
<text text-anchor="middle" x="191.75" y="-327.85" font-family="Arial" font-size="14.00">33</text>
</g>
<!-- 33&#45;&#45;56 -->
<g id="edge43" class="edge">
<title>33&#45;&#45;56</title>
<path fill="none" stroke="green" stroke-width="2" d="M208.41,-344.49C221.3,-354.49 239.05,-368.27 251.92,-378.26"/>
</g>
<!-- 35 -->
<g id="node36" class="node">
<title>35</title>
<ellipse fill="#b2dfee" stroke="black" cx="656.56" cy="-246.83" rx="20.6" ry="20.6"/>
<text text-anchor="middle" x="656.56" y="-243.13" font-family="Arial" font-size="14.00">35</text>
</g>
<!-- 35&#45;&#45;73 -->
<g id="edge44" class="edge">
<title>35&#45;&#45;73</title>
<path fill="none" stroke="green" stroke-width="2" d="M635.53,-246.45C620.17,-245.17 599.58,-241.27 585.16,-230.15 575.98,-223.07 567.99,-212.9 562.09,-204.1"/>
</g>
<!-- 36 -->
<g id="node37" class="node">
<title>36</title>
<ellipse fill="#b2dfee" stroke="black" cx="548.73" cy="-377.82" rx="20.6" ry="20.6"/>
<text text-anchor="middle" x="548.73" y="-374.12" font-family="Arial" font-size="14.00">36</text>
</g>
<!-- 36&#45;&#45;96 -->
<g id="edge45" class="edge">
<title>36&#45;&#45;96</title>
<path fill="none" stroke="green" stroke-width="2" d="M550.52,-356.87C551.56,-344.72 552.86,-329.47 553.9,-317.34"/>
</g>
<!-- 37 -->
<g id="node38" class="node">
<title>37</title>
<ellipse fill="lightblue" stroke="black" cx="34.07" cy="-634.52" rx="20.6" ry="20.6"/>
<text text-anchor="middle" x="34.07" y="-630.82" font-family="Arial" font-size="14.00">37</text>
</g>
<!-- 46 -->
<g id="node47" class="node">
<title>46</title>
<ellipse fill="#b2dfee" stroke="black" cx="234.61" cy="-576.8" rx="20.6" ry="20.6"/>
<text text-anchor="middle" x="234.61" y="-573.1" font-family="Arial" font-size="14.00">46</text>
</g>
<!-- 38&#45;&#45;46 -->
<g id="edge46" class="edge">
<title>38&#45;&#45;46</title>
<path fill="none" stroke="green" stroke-width="2" d="M281.92,-540.68C272.56,-547.83 260.95,-556.69 251.58,-563.84"/>
</g>
<!-- 58 -->
<g id="node59" class="node">
<title>58</title>
<ellipse fill="#b2dfee" stroke="black" cx="286.87" cy="-629.82" rx="20.6" ry="20.6"/>
<text text-anchor="middle" x="286.87" y="-626.12" font-family="Arial" font-size="14.00">58</text>
</g>
<!-- 38&#45;&#45;58 -->
<g id="edge47" class="edge">
<title>38&#45;&#45;58</title>
<path fill="none" stroke="green" stroke-width="2" d="M288.23,-545.93C283.72,-555.02 279.19,-566.39 277.93,-577.32 276.7,-587.98 278.42,-599.76 280.67,-609.45"/>
</g>
<!-- 90 -->
<g id="node91" class="node">
<title>90</title>
<ellipse fill="#b2dfee" stroke="black" cx="336.49" cy="-627.07" rx="20.6" ry="20.6"/>
<text text-anchor="middle" x="336.49" y="-623.37" font-family="Arial" font-size="14.00">90</text>
</g>
<!-- 38&#45;&#45;90 -->
<g id="edge48" class="edge">
<title>38&#45;&#45;90</title>
<path fill="none" stroke="green" stroke-width="2" d="M308.69,-546.31C311.25,-551.27 313.93,-556.65 316.25,-561.71 319.44,-568.63 320.26,-570.37 322.72,-577.58 325.95,-587.03 328.99,-597.69 331.39,-606.68"/>
</g>
<!-- 39 -->
<g id="node40" class="node">
<title>39</title>
<ellipse fill="lightblue" stroke="black" cx="608.51" cy="-572.51" rx="20.6" ry="20.6"/>
<text text-anchor="middle" x="608.51" y="-568.81" font-family="Arial" font-size="14.00">39</text>
</g>
<!-- 40 -->
<g id="node41" class="node">
<title>40</title>
<ellipse fill="lightblue" stroke="black" cx="581.52" cy="-638.32" rx="20.6" ry="20.6"/>
<text text-anchor="middle" x="581.52" y="-634.62" font-family="Arial" font-size="14.00">40</text>
</g>
<!-- 42 -->
<g id="node43" class="node">
<title>42</title>
<ellipse fill="lightblue" stroke="black" cx="414.65" cy="-591.56" rx="20.6" ry="20.6"/>
<text text-anchor="middle" x="414.65" y="-587.86" font-family="Arial" font-size="14.00">42</text>
</g>
<!-- 92 -->
<g id="node93" class="node">
<title>92</title>
<ellipse fill="#68838b" stroke="black" cx="142.15" cy="-290.91" rx="20.6" ry="20.6"/>
<text text-anchor="middle" x="142.15" y="-287.21" font-family="Arial" font-size="14.00">92</text>
</g>
<!-- 43&#45;&#45;92 -->
<g id="edge49" class="edge">
<title>43&#45;&#45;92</title>
<path fill="none" stroke="green" stroke-width="2" d="M142.08,-262.35C142.08,-264.88 142.09,-267.47 142.1,-270"/>
</g>
<!-- 44 -->
<g id="node45" class="node">
<title>44</title>
<ellipse fill="lightblue" stroke="black" cx="144.57" cy="-595" rx="20.6" ry="20.6"/>
<text text-anchor="middle" x="144.57" y="-591.3" font-family="Arial" font-size="14.00">44</text>
</g>
<!-- 45 -->
<g id="node46" class="node">
<title>45</title>
<ellipse fill="lightblue" stroke="black" cx="464.79" cy="-567.03" rx="20.6" ry="20.6"/>
<text text-anchor="middle" x="464.79" y="-563.33" font-family="Arial" font-size="14.00">45</text>
</g>
<!-- 47 -->
<g id="node48" class="node">
<title>47</title>
<ellipse fill="#b2dfee" stroke="black" cx="622.5" cy="-472.89" rx="20.6" ry="20.6"/>
<text text-anchor="middle" x="622.5" y="-469.19" font-family="Arial" font-size="14.00">47</text>
</g>
<!-- 69 -->
<g id="node70" class="node">
<title>69</title>
<ellipse fill="#9ac0cd" stroke="black" cx="618.01" cy="-405.89" rx="20.6" ry="20.6"/>
<text text-anchor="middle" x="618.01" y="-402.19" font-family="Arial" font-size="14.00">69</text>
</g>
<!-- 47&#45;&#45;69 -->
<g id="edge50" class="edge">
<title>47&#45;&#45;69</title>
<path fill="none" stroke="green" stroke-width="2" d="M621.1,-452.06C620.57,-444.07 619.95,-434.95 619.42,-426.94"/>
</g>
<!-- 74 -->
<g id="node75" class="node">
<title>74</title>
<ellipse fill="#b2dfee" stroke="black" cx="565.59" cy="-74.86" rx="20.6" ry="20.6"/>
<text text-anchor="middle" x="565.59" y="-71.16" font-family="Arial" font-size="14.00">74</text>
</g>
<!-- 48&#45;&#45;74 -->
<g id="edge51" class="edge">
<title>48&#45;&#45;74</title>
<path fill="none" stroke="green" stroke-width="2" d="M519.47,-121.12C528.89,-111.67 541.09,-99.43 550.57,-89.92"/>
</g>
<!-- 49 -->
<g id="node50" class="node">
<title>49</title>
<ellipse fill="lightblue" stroke="black" cx="488.32" cy="-517.33" rx="20.6" ry="20.6"/>
<text text-anchor="middle" x="488.32" y="-513.63" font-family="Arial" font-size="14.00">49</text>
</g>
<!-- 51&#45;&#45;63 -->
<g id="edge52" class="edge">
<title>51&#45;&#45;63</title>
<path fill="none" stroke="green" stroke-width="2" d="M393.33,-137.77C395.87,-137.6 398.46,-137.43 400.99,-137.27"/>
</g>
<!-- 53 -->
<g id="node54" class="node">
<title>53</title>
<ellipse fill="#b2dfee" stroke="black" cx="448.69" cy="-307.83" rx="20.6" ry="20.6"/>
<text text-anchor="middle" x="448.69" y="-304.13" font-family="Arial" font-size="14.00">53</text>
</g>
<!-- 85 -->
<g id="node86" class="node">
<title>85</title>
<ellipse fill="#9ac0cd" stroke="black" cx="399.07" cy="-329.41" rx="20.6" ry="20.6"/>
<text text-anchor="middle" x="399.07" y="-325.71" font-family="Arial" font-size="14.00">85</text>
</g>
<!-- 53&#45;&#45;85 -->
<g id="edge53" class="edge">
<title>53&#45;&#45;85</title>
<path fill="none" stroke="green" stroke-width="2" d="M429.37,-316.23C425.77,-317.8 422.02,-319.43 418.43,-320.99"/>
</g>
<!-- 55 -->
<g id="node56" class="node">
<title>55</title>
<ellipse fill="#b2dfee" stroke="black" cx="194.82" cy="-250.49" rx="20.6" ry="20.6"/>
<text text-anchor="middle" x="194.82" y="-246.79" font-family="Arial" font-size="14.00">55</text>
</g>
<!-- 99 -->
<g id="node100" class="node">
<title>99</title>
<ellipse fill="skyblue" stroke="black" cx="297.06" cy="-283.63" rx="20.6" ry="20.6"/>
<text text-anchor="middle" x="297.06" y="-279.93" font-family="Arial" font-size="14.00">99</text>
</g>
<!-- 55&#45;&#45;99 -->
<g id="edge54" class="edge">
<title>55&#45;&#45;99</title>
<path fill="none" stroke="green" stroke-width="2" d="M215.03,-256.76C224.31,-259.66 235.43,-263.17 245.42,-266.4 255.85,-269.78 267.43,-273.64 276.98,-276.84"/>
</g>
<!-- 56&#45;&#45;99 -->
<g id="edge55" class="edge">
<title>56&#45;&#45;99</title>
<path fill="none" stroke="green" stroke-width="2" d="M273.92,-370.94C279.02,-351.72 286.64,-322.96 291.73,-303.77"/>
</g>
<!-- 57 -->
<g id="node58" class="node">
<title>57</title>
<ellipse fill="#9ac0cd" stroke="black" cx="367.25" cy="-474.65" rx="20.6" ry="20.6"/>
<text text-anchor="middle" x="367.25" y="-470.95" font-family="Arial" font-size="14.00">57</text>
</g>
<!-- 79 -->
<g id="node80" class="node">
<title>79</title>
<ellipse fill="#b2dfee" stroke="black" cx="300.33" cy="-577.45" rx="20.6" ry="20.6"/>
<text text-anchor="middle" x="300.33" y="-573.75" font-family="Arial" font-size="14.00">79</text>
</g>
<!-- 57&#45;&#45;79 -->
<g id="edge56" class="edge">
<title>57&#45;&#45;79</title>
<path fill="none" stroke="green" stroke-width="2" d="M355.89,-492.09C343.59,-510.99 324.06,-540.99 311.73,-559.93"/>
</g>
<!-- 57&#45;&#45;88 -->
<g id="edge57" class="edge">
<title>57&#45;&#45;88</title>
<path fill="none" stroke="green" stroke-width="2" d="M384.39,-462.22C399.08,-451.57 420.15,-436.29 434.84,-425.64"/>
</g>
<!-- 59 -->
<g id="node60" class="node">
<title>59</title>
<ellipse fill="lightblue" stroke="black" cx="415.18" cy="-524.29" rx="20.6" ry="20.6"/>
<text text-anchor="middle" x="415.18" y="-520.59" font-family="Arial" font-size="14.00">59</text>
</g>
<!-- 60 -->
<g id="node61" class="node">
<title>60</title>
<ellipse fill="lightblue" stroke="black" cx="537.93" cy="-554.68" rx="20.6" ry="20.6"/>
<text text-anchor="middle" x="537.93" y="-550.98" font-family="Arial" font-size="14.00">60</text>
</g>
<!-- 61 -->
<g id="node62" class="node">
<title>61</title>
<ellipse fill="#b2dfee" stroke="black" cx="452.08" cy="-258.18" rx="20.6" ry="20.6"/>
<text text-anchor="middle" x="452.08" y="-254.48" font-family="Arial" font-size="14.00">61</text>
</g>
<!-- 61&#45;&#45;75 -->
<g id="edge58" class="edge">
<title>61&#45;&#45;75</title>
<path fill="none" stroke="green" stroke-width="2" d="M432.03,-252.32C427.8,-251.08 423.34,-249.78 419.12,-248.54"/>
</g>
<!-- 78 -->
<g id="node79" class="node">
<title>78</title>
<ellipse fill="#9ac0cd" stroke="black" cx="455.14" cy="-185.51" rx="20.6" ry="20.6"/>
<text text-anchor="middle" x="455.14" y="-181.81" font-family="Arial" font-size="14.00">78</text>
</g>
<!-- 63&#45;&#45;78 -->
<g id="edge59" class="edge">
<title>63&#45;&#45;78</title>
<path fill="none" stroke="green" stroke-width="2" d="M433.53,-153.24C436.75,-158.05 440.24,-163.26 443.46,-168.08"/>
</g>
<!-- 64 -->
<g id="node65" class="node">
<title>64</title>
<ellipse fill="lightblue" stroke="black" cx="87.44" cy="-637.95" rx="20.6" ry="20.6"/>
<text text-anchor="middle" x="87.44" y="-634.25" font-family="Arial" font-size="14.00">64</text>
</g>
<!-- 66 -->
<g id="node67" class="node">
<title>66</title>
<ellipse fill="lightblue" stroke="black" cx="143.17" cy="-119.46" rx="20.6" ry="20.6"/>
<text text-anchor="middle" x="143.17" y="-115.76" font-family="Arial" font-size="14.00">66</text>
</g>
<!-- 67 -->
<g id="node68" class="node">
<title>67</title>
<ellipse fill="#b2dfee" stroke="black" cx="42.77" cy="-284.14" rx="20.6" ry="20.6"/>
<text text-anchor="middle" x="42.77" y="-280.44" font-family="Arial" font-size="14.00">67</text>
</g>
<!-- 67&#45;&#45;92 -->
<g id="edge60" class="edge">
<title>67&#45;&#45;92</title>
<path fill="none" stroke="green" stroke-width="2" d="M63.61,-280.59C72.54,-279.47 83.08,-278.67 92.63,-279.31 102.49,-279.97 113.21,-282.27 122.14,-284.65"/>
</g>
<!-- 69&#45;&#45;96 -->
<g id="edge61" class="edge">
<title>69&#45;&#45;96</title>
<path fill="none" stroke="green" stroke-width="2" d="M601.69,-392.81C595.08,-386.89 587.78,-379.48 582.48,-371.69 571.09,-354.95 563.98,-332.83 559.97,-316.92"/>
</g>
<!-- 71&#45;&#45;75 -->
<g id="edge62" class="edge">
<title>71&#45;&#45;75</title>
<path fill="none" stroke="green" stroke-width="2" d="M348.42,-204.13C358.68,-211.95 371.82,-221.95 382.14,-229.81"/>
</g>
<!-- 71&#45;&#45;99 -->
<g id="edge63" class="edge">
<title>71&#45;&#45;99</title>
<path fill="none" stroke="green" stroke-width="2" d="M324.43,-211.02C318.54,-226.66 310.31,-248.48 304.42,-264.11"/>
</g>
<!-- 72&#45;&#45;94 -->
<g id="edge64" class="edge">
<title>72&#45;&#45;94</title>
<path fill="none" stroke="green" stroke-width="2" d="M274.11,-130.39C275.08,-145.09 276.37,-164.62 277.34,-179.3"/>
</g>
<!-- 73&#45;&#45;78 -->
<g id="edge65" class="edge">
<title>73&#45;&#45;78</title>
<path fill="none" stroke="green" stroke-width="2" d="M530.52,-185.82C514.37,-185.75 492.12,-185.66 475.99,-185.59"/>
</g>
<!-- 93 -->
<g id="node94" class="node">
<title>93</title>
<ellipse fill="#b2dfee" stroke="black" cx="723.03" cy="-248.12" rx="20.6" ry="20.6"/>
<text text-anchor="middle" x="723.03" y="-244.42" font-family="Arial" font-size="14.00">93</text>
</g>
<!-- 73&#45;&#45;93 -->
<g id="edge66" class="edge">
<title>73&#45;&#45;93</title>
<path fill="none" stroke="green" stroke-width="2" d="M572.43,-187.18C581.37,-188.05 591.84,-189.51 601.08,-191.95 608.45,-193.89 610.46,-194.48 616.91,-198.54 625.51,-203.97 625.35,-208.39 633.96,-213.82 640.05,-217.66 679.01,-232.13 703.34,-241"/>
</g>
<!-- 76 -->
<g id="node77" class="node">
<title>76</title>
<ellipse fill="lightblue" stroke="black" cx="195.45" cy="-719.26" rx="20.6" ry="20.6"/>
<text text-anchor="middle" x="195.45" y="-715.56" font-family="Arial" font-size="14.00">76</text>
</g>
<!-- 77 -->
<g id="node78" class="node">
<title>77</title>
<ellipse fill="lightblue" stroke="black" cx="422.87" cy="-647.38" rx="20.6" ry="20.6"/>
<text text-anchor="middle" x="422.87" y="-643.68" font-family="Arial" font-size="14.00">77</text>
</g>
<!-- 80 -->
<g id="node81" class="node">
<title>80</title>
<ellipse fill="lightblue" stroke="black" cx="84.64" cy="-87.47" rx="20.6" ry="20.6"/>
<text text-anchor="middle" x="84.64" y="-83.77" font-family="Arial" font-size="14.00">80</text>
</g>
<!-- 81 -->
<g id="node82" class="node">
<title>81</title>
<ellipse fill="#b2dfee" stroke="black" cx="670.44" cy="-341.82" rx="20.6" ry="20.6"/>
<text text-anchor="middle" x="670.44" y="-338.12" font-family="Arial" font-size="14.00">81</text>
</g>
<!-- 81&#45;&#45;96 -->
<g id="edge67" class="edge">
<title>81&#45;&#45;96</title>
<path fill="none" stroke="green" stroke-width="2" d="M650.5,-335.74C641.39,-332.85 630.48,-329.25 620.79,-325.67 604.87,-319.79 587.34,-311.83 574.49,-305.71"/>
</g>
<!-- 82 -->
<g id="node83" class="node">
<title>82</title>
<ellipse fill="lightblue" stroke="black" cx="192.99" cy="-110.86" rx="20.6" ry="20.6"/>
<text text-anchor="middle" x="192.99" y="-107.16" font-family="Arial" font-size="14.00">82</text>
</g>
<!-- 95 -->
<g id="node96" class="node">
<title>95</title>
<ellipse fill="#b2dfee" stroke="black" cx="199.54" cy="-495.36" rx="20.6" ry="20.6"/>
<text text-anchor="middle" x="199.54" y="-491.66" font-family="Arial" font-size="14.00">95</text>
</g>
<!-- 83&#45;&#45;95 -->
<g id="edge68" class="edge">
<title>83&#45;&#45;95</title>
<path fill="none" stroke="green" stroke-width="2" d="M189.33,-453.86C190.99,-460.61 192.84,-468.13 194.5,-474.9"/>
</g>
<!-- 84 -->
<g id="node85" class="node">
<title>84</title>
<ellipse fill="lightblue" stroke="black" cx="516.34" cy="-617.35" rx="20.6" ry="20.6"/>
<text text-anchor="middle" x="516.34" y="-613.65" font-family="Arial" font-size="14.00">84</text>
</g>
<!-- 85&#45;&#45;99 -->
<g id="edge69" class="edge">
<title>85&#45;&#45;99</title>
<path fill="none" stroke="green" stroke-width="2" d="M378.75,-324.26C364.87,-320.3 346.32,-314.13 331.15,-306.01 325.53,-303 319.65,-299.35 314.39,-295.86"/>
</g>
<!-- 86 -->
<g id="node87" class="node">
<title>86</title>
<ellipse fill="#b2dfee" stroke="black" cx="48.83" cy="-142.39" rx="20.6" ry="20.6"/>
<text text-anchor="middle" x="48.83" y="-138.69" font-family="Arial" font-size="14.00">86</text>
</g>
<!-- 86&#45;&#45;92 -->
<g id="edge70" class="edge">
<title>86&#45;&#45;92</title>
<path fill="none" stroke="green" stroke-width="2" d="M59.07,-160.64C65.63,-172.2 74.43,-187.4 82.61,-200.61 91.21,-214.5 115.63,-251.23 130.38,-273.33"/>
</g>
<!-- 87 -->
<g id="node88" class="node">
<title>87</title>
<ellipse fill="#b2dfee" stroke="black" cx="318.17" cy="-350.83" rx="20.6" ry="20.6"/>
<text text-anchor="middle" x="318.17" y="-347.13" font-family="Arial" font-size="14.00">87</text>
</g>
<!-- 87&#45;&#45;99 -->
<g id="edge71" class="edge">
<title>87&#45;&#45;99</title>
<path fill="none" stroke="green" stroke-width="2" d="M311.84,-330.67C309.17,-322.16 306.06,-312.28 303.39,-303.78"/>
</g>
<!-- 89 -->
<g id="node90" class="node">
<title>89</title>
<ellipse fill="lightblue" stroke="black" cx="20.93" cy="-684.19" rx="20.6" ry="20.6"/>
<text text-anchor="middle" x="20.93" y="-680.49" font-family="Arial" font-size="14.00">89</text>
</g>
<!-- 91 -->
<g id="node92" class="node">
<title>91</title>
<ellipse fill="lightblue" stroke="black" cx="135.39" cy="-498.97" rx="20.6" ry="20.6"/>
<text text-anchor="middle" x="135.39" y="-495.27" font-family="Arial" font-size="14.00">91</text>
</g>
<!-- 97 -->
<g id="node98" class="node">
<title>97</title>
<ellipse fill="lightblue" stroke="black" cx="472.48" cy="-695.61" rx="20.6" ry="20.6"/>
<text text-anchor="middle" x="472.48" y="-691.91" font-family="Arial" font-size="14.00">97</text>
</g>
</g>
</svg>
