<?xml version="1.0" encoding="UTF-8" standalone="no"?>
<!DOCTYPE svg PUBLIC "-//W3C//DTD SVG 1.1//EN"
 "http://www.w3.org/Graphics/SVG/1.1/DTD/svg11.dtd">
<!-- Generated by graphviz version 2.43.0 (0)
 -->
<!-- Title: Exp_a0_1_b0_5_maxDeg15_maxDist80_tree Pages: 1 -->
<svg width="727pt" height="703pt"
 viewBox="0.00 0.00 727.00 703.00" xmlns="http://www.w3.org/2000/svg" xmlns:xlink="http://www.w3.org/1999/xlink">
<g id="graph0" class="graph" transform="scale(1 1) rotate(0) translate(4 699)">
<title>Exp_a0_1_b0_5_maxDeg15_maxDist80_tree</title>
<polygon fill="white" stroke="transparent" points="-4,4 -4,-699 723,-699 723,4 -4,4"/>
<!-- 0 -->
<g id="node1" class="node">
<title>0</title>
<ellipse fill="lightblue" stroke="black" cx="406.31" cy="-31.07" rx="18" ry="18"/>
<text text-anchor="middle" x="406.31" y="-27.37" font-family="Arial" font-size="14.00">0</text>
</g>
<!-- 1 -->
<g id="node2" class="node">
<title>1</title>
<ellipse fill="#b2dfee" stroke="black" cx="365.89" cy="-331.99" rx="18" ry="18"/>
<text text-anchor="middle" x="365.89" y="-328.29" font-family="Arial" font-size="14.00">1</text>
</g>
<!-- 44 -->
<g id="node45" class="node">
<title>44</title>
<ellipse fill="red" stroke="black" cx="131.03" cy="-548.79" rx="20.6" ry="20.6"/>
<text text-anchor="middle" x="131.03" y="-545.09" font-family="Arial" font-size="14.00" fill="white">44</text>
</g>
<!-- 1&#45;&#45;44 -->
<g id="edge1" class="edge">
<title>1&#45;&#45;44</title>
<path fill="none" stroke="green" stroke-width="2" d="M349.06,-338.64C335.67,-344.62 317.19,-354.52 304.76,-367.83 287.96,-385.83 293.14,-396.55 280.09,-417.42 249.65,-466.11 242.28,-481.34 196.37,-515.82 182.25,-526.43 164.2,-535.24 150.65,-541.08"/>
</g>
<!-- 2 -->
<g id="node3" class="node">
<title>2</title>
<ellipse fill="lightblue" stroke="black" cx="446.43" cy="-75.08" rx="18" ry="18"/>
<text text-anchor="middle" x="446.43" y="-71.38" font-family="Arial" font-size="14.00">2</text>
</g>
<!-- 3 -->
<g id="node4" class="node">
<title>3</title>
<ellipse fill="lightblue" stroke="black" cx="403.12" cy="-585.81" rx="18" ry="18"/>
<text text-anchor="middle" x="403.12" y="-582.11" font-family="Arial" font-size="14.00">3</text>
</g>
<!-- 4 -->
<g id="node5" class="node">
<title>4</title>
<ellipse fill="lightblue" stroke="black" cx="694.04" cy="-545.89" rx="18" ry="18"/>
<text text-anchor="middle" x="694.04" y="-542.19" font-family="Arial" font-size="14.00">4</text>
</g>
<!-- 5 -->
<g id="node6" class="node">
<title>5</title>
<ellipse fill="lightblue" stroke="black" cx="659.14" cy="-105.89" rx="18" ry="18"/>
<text text-anchor="middle" x="659.14" y="-102.19" font-family="Arial" font-size="14.00">5</text>
</g>
<!-- 6 -->
<g id="node7" class="node">
<title>6</title>
<ellipse fill="lightblue" stroke="black" cx="615.22" cy="-149.97" rx="18" ry="18"/>
<text text-anchor="middle" x="615.22" y="-146.27" font-family="Arial" font-size="14.00">6</text>
</g>
<!-- 7 -->
<g id="node8" class="node">
<title>7</title>
<ellipse fill="#b2dfee" stroke="black" cx="266.36" cy="-403.43" rx="18" ry="18"/>
<text text-anchor="middle" x="266.36" y="-399.73" font-family="Arial" font-size="14.00">7</text>
</g>
<!-- 7&#45;&#45;44 -->
<g id="edge2" class="edge">
<title>7&#45;&#45;44</title>
<path fill="none" stroke="green" stroke-width="2" d="M249.55,-411.11C238.13,-416.72 222.98,-424.98 211.04,-434.36 187.36,-452.95 182.27,-459.37 164.89,-483.95 154.7,-498.37 145.6,-516.24 139.4,-529.57"/>
</g>
<!-- 8 -->
<g id="node9" class="node">
<title>8</title>
<ellipse fill="lightblue" stroke="black" cx="594.09" cy="-676.92" rx="18" ry="18"/>
<text text-anchor="middle" x="594.09" y="-673.22" font-family="Arial" font-size="14.00">8</text>
</g>
<!-- 9 -->
<g id="node10" class="node">
<title>9</title>
<ellipse fill="lightblue" stroke="black" cx="652.54" cy="-248.92" rx="18" ry="18"/>
<text text-anchor="middle" x="652.54" y="-245.22" font-family="Arial" font-size="14.00">9</text>
</g>
<!-- 10 -->
<g id="node11" class="node">
<title>10</title>
<ellipse fill="#b2dfee" stroke="black" cx="279.88" cy="-580.39" rx="20.6" ry="20.6"/>
<text text-anchor="middle" x="279.88" y="-576.69" font-family="Arial" font-size="14.00">10</text>
</g>
<!-- 10&#45;&#45;44 -->
<g id="edge3" class="edge">
<title>10&#45;&#45;44</title>
<path fill="none" stroke="green" stroke-width="2" d="M259.49,-576.06C231.15,-570.04 180.11,-559.21 151.64,-553.17"/>
</g>
<!-- 11 -->
<g id="node12" class="node">
<title>11</title>
<ellipse fill="lightblue" stroke="black" cx="92.67" cy="-240.53" rx="20.6" ry="20.6"/>
<text text-anchor="middle" x="92.67" y="-236.83" font-family="Arial" font-size="14.00">11</text>
</g>
<!-- 12 -->
<g id="node13" class="node">
<title>12</title>
<ellipse fill="#b2dfee" stroke="black" cx="673.04" cy="-596.3" rx="20.6" ry="20.6"/>
<text text-anchor="middle" x="673.04" y="-592.6" font-family="Arial" font-size="14.00">12</text>
</g>
<!-- 12&#45;&#45;44 -->
<g id="edge4" class="edge">
<title>12&#45;&#45;44</title>
<path fill="none" stroke="green" stroke-width="2" d="M652.58,-591.97C613.46,-583.97 525.29,-567.22 450.08,-562.25 396.65,-558.71 383.08,-567.59 329.61,-564.58 307.39,-563.33 302.12,-560.14 279.96,-557.99 279.17,-557.91 192.73,-552.59 151.92,-550.08"/>
</g>
<!-- 13 -->
<g id="node14" class="node">
<title>13</title>
<ellipse fill="lightblue" stroke="black" cx="112.95" cy="-290.34" rx="20.6" ry="20.6"/>
<text text-anchor="middle" x="112.95" y="-286.64" font-family="Arial" font-size="14.00">13</text>
</g>
<!-- 14 -->
<g id="node15" class="node">
<title>14</title>
<ellipse fill="#b2dfee" stroke="black" cx="167.59" cy="-101.42" rx="20.6" ry="20.6"/>
<text text-anchor="middle" x="167.59" y="-97.72" font-family="Arial" font-size="14.00">14</text>
</g>
<!-- 14&#45;&#45;44 -->
<g id="edge5" class="edge">
<title>14&#45;&#45;44</title>
<path fill="none" stroke="green" stroke-width="2" d="M169.19,-122.17C170.92,-149.35 172.75,-198.43 167.37,-239.92 161.09,-288.39 148.22,-298.2 139.5,-346.29 131.58,-389.96 131.16,-401.28 129.26,-445.62 128.04,-474.07 129.02,-506.98 129.94,-527.84"/>
</g>
<!-- 15 -->
<g id="node16" class="node">
<title>15</title>
<ellipse fill="lightblue" stroke="black" cx="547.25" cy="-659.3" rx="20.6" ry="20.6"/>
<text text-anchor="middle" x="547.25" y="-655.6" font-family="Arial" font-size="14.00">15</text>
</g>
<!-- 16 -->
<g id="node17" class="node">
<title>16</title>
<ellipse fill="lightblue" stroke="black" cx="441.99" cy="-310.78" rx="20.6" ry="20.6"/>
<text text-anchor="middle" x="441.99" y="-307.08" font-family="Arial" font-size="14.00">16</text>
</g>
<!-- 17 -->
<g id="node18" class="node">
<title>17</title>
<ellipse fill="lightblue" stroke="black" cx="568.41" cy="-163.5" rx="20.6" ry="20.6"/>
<text text-anchor="middle" x="568.41" y="-159.8" font-family="Arial" font-size="14.00">17</text>
</g>
<!-- 18 -->
<g id="node19" class="node">
<title>18</title>
<ellipse fill="lightblue" stroke="black" cx="464.74" cy="-20.57" rx="20.6" ry="20.6"/>
<text text-anchor="middle" x="464.74" y="-16.87" font-family="Arial" font-size="14.00">18</text>
</g>
<!-- 19 -->
<g id="node20" class="node">
<title>19</title>
<ellipse fill="lightblue" stroke="black" cx="201.16" cy="-151.02" rx="20.6" ry="20.6"/>
<text text-anchor="middle" x="201.16" y="-147.32" font-family="Arial" font-size="14.00">19</text>
</g>
<!-- 20 -->
<g id="node21" class="node">
<title>20</title>
<ellipse fill="#b2dfee" stroke="black" cx="180.63" cy="-499.89" rx="20.6" ry="20.6"/>
<text text-anchor="middle" x="180.63" y="-496.19" font-family="Arial" font-size="14.00">20</text>
</g>
<!-- 20&#45;&#45;44 -->
<g id="edge6" class="edge">
<title>20&#45;&#45;44</title>
<path fill="none" stroke="green" stroke-width="2" d="M165.75,-514.56C159.47,-520.75 152.18,-527.94 145.9,-534.13"/>
</g>
<!-- 21 -->
<g id="node22" class="node">
<title>21</title>
<ellipse fill="lightblue" stroke="black" cx="281.78" cy="-59.04" rx="20.6" ry="20.6"/>
<text text-anchor="middle" x="281.78" y="-55.34" font-family="Arial" font-size="14.00">21</text>
</g>
<!-- 22 -->
<g id="node23" class="node">
<title>22</title>
<ellipse fill="lightblue" stroke="black" cx="219.76" cy="-336.92" rx="20.6" ry="20.6"/>
<text text-anchor="middle" x="219.76" y="-333.22" font-family="Arial" font-size="14.00">22</text>
</g>
<!-- 23 -->
<g id="node24" class="node">
<title>23</title>
<ellipse fill="lightblue" stroke="black" cx="92.35" cy="-173.52" rx="20.6" ry="20.6"/>
<text text-anchor="middle" x="92.35" y="-169.82" font-family="Arial" font-size="14.00">23</text>
</g>
<!-- 24 -->
<g id="node25" class="node">
<title>24</title>
<ellipse fill="lightblue" stroke="black" cx="52.2" cy="-507.82" rx="20.6" ry="20.6"/>
<text text-anchor="middle" x="52.2" y="-504.12" font-family="Arial" font-size="14.00">24</text>
</g>
<!-- 25 -->
<g id="node26" class="node">
<title>25</title>
<ellipse fill="lightblue" stroke="black" cx="101.96" cy="-469.64" rx="20.6" ry="20.6"/>
<text text-anchor="middle" x="101.96" y="-465.94" font-family="Arial" font-size="14.00">25</text>
</g>
<!-- 26 -->
<g id="node27" class="node">
<title>26</title>
<ellipse fill="lightblue" stroke="black" cx="343.62" cy="-230.12" rx="20.6" ry="20.6"/>
<text text-anchor="middle" x="343.62" y="-226.42" font-family="Arial" font-size="14.00">26</text>
</g>
<!-- 27 -->
<g id="node28" class="node">
<title>27</title>
<ellipse fill="lightblue" stroke="black" cx="276.44" cy="-467.99" rx="20.6" ry="20.6"/>
<text text-anchor="middle" x="276.44" y="-464.29" font-family="Arial" font-size="14.00">27</text>
</g>
<!-- 28 -->
<g id="node29" class="node">
<title>28</title>
<ellipse fill="lightblue" stroke="black" cx="621.1" cy="-497.09" rx="20.6" ry="20.6"/>
<text text-anchor="middle" x="621.1" y="-493.39" font-family="Arial" font-size="14.00">28</text>
</g>
<!-- 29 -->
<g id="node30" class="node">
<title>29</title>
<ellipse fill="lightblue" stroke="black" cx="661.11" cy="-645.9" rx="20.6" ry="20.6"/>
<text text-anchor="middle" x="661.11" y="-642.2" font-family="Arial" font-size="14.00">29</text>
</g>
<!-- 30 -->
<g id="node31" class="node">
<title>30</title>
<ellipse fill="lightblue" stroke="black" cx="586.93" cy="-103.12" rx="20.6" ry="20.6"/>
<text text-anchor="middle" x="586.93" y="-99.42" font-family="Arial" font-size="14.00">30</text>
</g>
<!-- 31 -->
<g id="node32" class="node">
<title>31</title>
<ellipse fill="lightblue" stroke="black" cx="590.98" cy="-320.13" rx="20.6" ry="20.6"/>
<text text-anchor="middle" x="590.98" y="-316.43" font-family="Arial" font-size="14.00">31</text>
</g>
<!-- 32 -->
<g id="node33" class="node">
<title>32</title>
<ellipse fill="lightblue" stroke="black" cx="669.93" cy="-368.87" rx="20.6" ry="20.6"/>
<text text-anchor="middle" x="669.93" y="-365.17" font-family="Arial" font-size="14.00">32</text>
</g>
<!-- 33 -->
<g id="node34" class="node">
<title>33</title>
<ellipse fill="#b2dfee" stroke="black" cx="194.98" cy="-287.3" rx="20.6" ry="20.6"/>
<text text-anchor="middle" x="194.98" y="-283.6" font-family="Arial" font-size="14.00">33</text>
</g>
<!-- 33&#45;&#45;44 -->
<g id="edge7" class="edge">
<title>33&#45;&#45;44</title>
<path fill="none" stroke="green" stroke-width="2" d="M191.76,-308C189.85,-319.44 187.23,-333.88 184.29,-346.63 179.18,-368.82 172.69,-373.29 170.4,-395.94 168.16,-418.06 177.63,-423.89 174.06,-445.83 168.96,-477.19 152.73,-510.63 141.73,-530.61"/>
</g>
<!-- 34 -->
<g id="node35" class="node">
<title>34</title>
<ellipse fill="lightblue" stroke="black" cx="698.49" cy="-418.49" rx="20.6" ry="20.6"/>
<text text-anchor="middle" x="698.49" y="-414.79" font-family="Arial" font-size="14.00">34</text>
</g>
<!-- 35 -->
<g id="node36" class="node">
<title>35</title>
<ellipse fill="lightblue" stroke="black" cx="622.42" cy="-196.8" rx="20.6" ry="20.6"/>
<text text-anchor="middle" x="622.42" y="-193.1" font-family="Arial" font-size="14.00">35</text>
</g>
<!-- 36 -->
<g id="node37" class="node">
<title>36</title>
<ellipse fill="lightblue" stroke="black" cx="541.34" cy="-333.9" rx="20.6" ry="20.6"/>
<text text-anchor="middle" x="541.34" y="-330.2" font-family="Arial" font-size="14.00">36</text>
</g>
<!-- 37 -->
<g id="node38" class="node">
<title>37</title>
<ellipse fill="lightblue" stroke="black" cx="31.79" cy="-577.26" rx="20.6" ry="20.6"/>
<text text-anchor="middle" x="31.79" y="-573.56" font-family="Arial" font-size="14.00">37</text>
</g>
<!-- 38 -->
<g id="node39" class="node">
<title>38</title>
<ellipse fill="lightblue" stroke="black" cx="326.05" cy="-483.65" rx="20.6" ry="20.6"/>
<text text-anchor="middle" x="326.05" y="-479.95" font-family="Arial" font-size="14.00">38</text>
</g>
<!-- 39 -->
<g id="node40" class="node">
<title>39</title>
<ellipse fill="lightblue" stroke="black" cx="643.98" cy="-546.7" rx="20.6" ry="20.6"/>
<text text-anchor="middle" x="643.98" y="-543" font-family="Arial" font-size="14.00">39</text>
</g>
<!-- 40 -->
<g id="node41" class="node">
<title>40</title>
<ellipse fill="lightblue" stroke="black" cx="611.48" cy="-630.05" rx="20.6" ry="20.6"/>
<text text-anchor="middle" x="611.48" y="-626.35" font-family="Arial" font-size="14.00">40</text>
</g>
<!-- 41 -->
<g id="node42" class="node">
<title>41</title>
<ellipse fill="lightblue" stroke="black" cx="491.73" cy="-381.69" rx="20.6" ry="20.6"/>
<text text-anchor="middle" x="491.73" y="-377.99" font-family="Arial" font-size="14.00">41</text>
</g>
<!-- 42 -->
<g id="node43" class="node">
<title>42</title>
<ellipse fill="lightblue" stroke="black" cx="436.03" cy="-509.02" rx="20.6" ry="20.6"/>
<text text-anchor="middle" x="436.03" y="-505.32" font-family="Arial" font-size="14.00">42</text>
</g>
<!-- 43 -->
<g id="node44" class="node">
<title>43</title>
<ellipse fill="#b2dfee" stroke="black" cx="142.88" cy="-190.07" rx="20.6" ry="20.6"/>
<text text-anchor="middle" x="142.88" y="-186.37" font-family="Arial" font-size="14.00">43</text>
</g>
<!-- 43&#45;&#45;44 -->
<g id="edge8" class="edge">
<title>43&#45;&#45;44</title>
<path fill="none" stroke="green" stroke-width="2" d="M132.22,-208.16C127.74,-217.23 123.36,-228.59 122.58,-239.51 120.91,-262.75 132.94,-267.18 135.35,-290.36 142.48,-359.04 130.03,-376.56 129.26,-445.62 128.95,-474.1 129.71,-507 130.32,-527.85"/>
</g>
<!-- 47 -->
<g id="node48" class="node">
<title>47</title>
<ellipse fill="#b2dfee" stroke="black" cx="646.9" cy="-447.46" rx="20.6" ry="20.6"/>
<text text-anchor="middle" x="646.9" y="-443.76" font-family="Arial" font-size="14.00">47</text>
</g>
<!-- 44&#45;&#45;47 -->
<g id="edge9" class="edge">
<title>44&#45;&#45;47</title>
<path fill="none" stroke="green" stroke-width="2" d="M151.61,-552.44C171.71,-555.44 203.13,-558.64 230.1,-554.89 276.73,-548.41 284.55,-531.93 330.04,-519.78 349.91,-514.47 355.79,-517.1 375.53,-511.3 382.84,-509.16 384.35,-507.73 391.4,-504.83 426.33,-490.5 434.97,-486.7 469.91,-472.39 476.96,-469.5 478.4,-467.79 485.79,-465.94 506.39,-460.78 512.2,-463.29 533.29,-460.93 565.67,-457.31 603.19,-452.8 625.97,-450.03"/>
</g>
<!-- 66 -->
<g id="node67" class="node">
<title>66</title>
<ellipse fill="#b2dfee" stroke="black" cx="117.94" cy="-53.3" rx="20.6" ry="20.6"/>
<text text-anchor="middle" x="117.94" y="-49.6" font-family="Arial" font-size="14.00">66</text>
</g>
<!-- 44&#45;&#45;66 -->
<g id="edge10" class="edge">
<title>44&#45;&#45;66</title>
<path fill="none" stroke="green" stroke-width="2" d="M130.32,-527.85C129.71,-507 128.95,-474.1 129.26,-445.62 130.03,-376.56 142.48,-359.04 135.35,-290.36 132.94,-267.18 125.92,-262.57 122.58,-239.51 119.41,-217.7 118.88,-211.95 120.48,-189.97 122.65,-160.2 133.33,-153.84 133,-124 132.8,-106.56 128.38,-87.21 124.38,-73.17"/>
</g>
<!-- 67 -->
<g id="node68" class="node">
<title>67</title>
<ellipse fill="#b2dfee" stroke="black" cx="42.39" cy="-215.04" rx="20.6" ry="20.6"/>
<text text-anchor="middle" x="42.39" y="-211.34" font-family="Arial" font-size="14.00">67</text>
</g>
<!-- 44&#45;&#45;67 -->
<g id="edge11" class="edge">
<title>44&#45;&#45;67</title>
<path fill="none" stroke="green" stroke-width="2" d="M130.55,-527.8C129.88,-511.76 128.25,-489.17 124.36,-469.72 106.29,-379.54 67.13,-276.51 50.32,-234.45"/>
</g>
<!-- 72 -->
<g id="node73" class="node">
<title>72</title>
<ellipse fill="#b2dfee" stroke="black" cx="222.31" cy="-46.84" rx="20.6" ry="20.6"/>
<text text-anchor="middle" x="222.31" y="-43.14" font-family="Arial" font-size="14.00">72</text>
</g>
<!-- 44&#45;&#45;72 -->
<g id="edge12" class="edge">
<title>44&#45;&#45;72</title>
<path fill="none" stroke="green" stroke-width="2" d="M129.94,-527.84C129.02,-506.98 128.04,-474.07 129.26,-445.62 131.16,-401.28 131.58,-389.96 139.5,-346.29 148.22,-298.2 158.17,-287.92 167.37,-239.92 170.69,-222.58 169.99,-218.01 172.22,-200.5 175.03,-178.48 173,-172.42 178.76,-150.99 187.11,-119.95 202.63,-85.94 212.72,-65.5"/>
</g>
<!-- 85 -->
<g id="node86" class="node">
<title>85</title>
<ellipse fill="#b2dfee" stroke="black" cx="391.15" cy="-279.75" rx="20.6" ry="20.6"/>
<text text-anchor="middle" x="391.15" y="-276.05" font-family="Arial" font-size="14.00">85</text>
</g>
<!-- 44&#45;&#45;85 -->
<g id="edge13" class="edge">
<title>44&#45;&#45;85</title>
<path fill="none" stroke="green" stroke-width="2" d="M139.4,-529.58C145.6,-516.25 154.71,-498.37 164.89,-483.95 197.96,-437.13 207.04,-424.16 252.64,-389.43 265.61,-379.56 271.73,-381.72 285.2,-372.53 320.33,-348.54 356.65,-314.3 376.32,-294.83"/>
</g>
<!-- 97 -->
<g id="node98" class="node">
<title>97</title>
<ellipse fill="#b2dfee" stroke="black" cx="497.61" cy="-634.3" rx="20.6" ry="20.6"/>
<text text-anchor="middle" x="497.61" y="-630.6" font-family="Arial" font-size="14.00">97</text>
</g>
<!-- 44&#45;&#45;97 -->
<g id="edge14" class="edge">
<title>44&#45;&#45;97</title>
<path fill="none" stroke="green" stroke-width="2" d="M150.36,-557.26C178.37,-569.18 232.09,-590.81 279.8,-602.78 350.77,-620.6 437.44,-629.4 476.61,-632.7"/>
</g>
<!-- 45 -->
<g id="node46" class="node">
<title>45</title>
<ellipse fill="lightblue" stroke="black" cx="485.64" cy="-488.33" rx="20.6" ry="20.6"/>
<text text-anchor="middle" x="485.64" y="-484.63" font-family="Arial" font-size="14.00">45</text>
</g>
<!-- 46 -->
<g id="node47" class="node">
<title>46</title>
<ellipse fill="lightblue" stroke="black" cx="230.27" cy="-532.5" rx="20.6" ry="20.6"/>
<text text-anchor="middle" x="230.27" y="-528.8" font-family="Arial" font-size="14.00">46</text>
</g>
<!-- 48 -->
<g id="node49" class="node">
<title>48</title>
<ellipse fill="lightblue" stroke="black" cx="493.27" cy="-109.44" rx="20.6" ry="20.6"/>
<text text-anchor="middle" x="493.27" y="-105.74" font-family="Arial" font-size="14.00">48</text>
</g>
<!-- 49 -->
<g id="node50" class="node">
<title>49</title>
<ellipse fill="lightblue" stroke="black" cx="533.51" cy="-438.54" rx="20.6" ry="20.6"/>
<text text-anchor="middle" x="533.51" y="-434.84" font-family="Arial" font-size="14.00">49</text>
</g>
<!-- 50 -->
<g id="node51" class="node">
<title>50</title>
<ellipse fill="lightblue" stroke="black" cx="491.71" cy="-322.57" rx="20.6" ry="20.6"/>
<text text-anchor="middle" x="491.71" y="-318.87" font-family="Arial" font-size="14.00">50</text>
</g>
<!-- 51 -->
<g id="node52" class="node">
<title>51</title>
<ellipse fill="lightblue" stroke="black" cx="350" cy="-80.48" rx="20.6" ry="20.6"/>
<text text-anchor="middle" x="350" y="-76.78" font-family="Arial" font-size="14.00">51</text>
</g>
<!-- 52 -->
<g id="node53" class="node">
<title>52</title>
<ellipse fill="lightblue" stroke="black" cx="354.85" cy="-30.53" rx="20.6" ry="20.6"/>
<text text-anchor="middle" x="354.85" y="-26.83" font-family="Arial" font-size="14.00">52</text>
</g>
<!-- 53 -->
<g id="node54" class="node">
<title>53</title>
<ellipse fill="lightblue" stroke="black" cx="440.83" cy="-261.16" rx="20.6" ry="20.6"/>
<text text-anchor="middle" x="440.83" y="-257.46" font-family="Arial" font-size="14.00">53</text>
</g>
<!-- 54 -->
<g id="node55" class="node">
<title>54</title>
<ellipse fill="lightblue" stroke="black" cx="110.6" cy="-123.91" rx="20.6" ry="20.6"/>
<text text-anchor="middle" x="110.6" y="-120.21" font-family="Arial" font-size="14.00">54</text>
</g>
<!-- 55 -->
<g id="node56" class="node">
<title>55</title>
<ellipse fill="lightblue" stroke="black" cx="194.62" cy="-200.62" rx="20.6" ry="20.6"/>
<text text-anchor="middle" x="194.62" y="-196.92" font-family="Arial" font-size="14.00">55</text>
</g>
<!-- 56 -->
<g id="node57" class="node">
<title>56</title>
<ellipse fill="lightblue" stroke="black" cx="269.43" cy="-356.61" rx="20.6" ry="20.6"/>
<text text-anchor="middle" x="269.43" y="-352.91" font-family="Arial" font-size="14.00">56</text>
</g>
<!-- 57 -->
<g id="node58" class="node">
<title>57</title>
<ellipse fill="lightblue" stroke="black" cx="392.44" cy="-401.77" rx="20.6" ry="20.6"/>
<text text-anchor="middle" x="392.44" y="-398.07" font-family="Arial" font-size="14.00">57</text>
</g>
<!-- 58 -->
<g id="node59" class="node">
<title>58</title>
<ellipse fill="lightblue" stroke="black" cx="329.83" cy="-542.18" rx="20.6" ry="20.6"/>
<text text-anchor="middle" x="329.83" y="-538.48" font-family="Arial" font-size="14.00">58</text>
</g>
<!-- 59 -->
<g id="node60" class="node">
<title>59</title>
<ellipse fill="lightblue" stroke="black" cx="429.51" cy="-451.38" rx="20.6" ry="20.6"/>
<text text-anchor="middle" x="429.51" y="-447.68" font-family="Arial" font-size="14.00">59</text>
</g>
<!-- 60 -->
<g id="node61" class="node">
<title>60</title>
<ellipse fill="lightblue" stroke="black" cx="564.68" cy="-491.25" rx="20.6" ry="20.6"/>
<text text-anchor="middle" x="564.68" y="-487.55" font-family="Arial" font-size="14.00">60</text>
</g>
<!-- 61 -->
<g id="node62" class="node">
<title>61</title>
<ellipse fill="lightblue" stroke="black" cx="435.89" cy="-211.53" rx="20.6" ry="20.6"/>
<text text-anchor="middle" x="435.89" y="-207.83" font-family="Arial" font-size="14.00">61</text>
</g>
<!-- 62 -->
<g id="node63" class="node">
<title>62</title>
<ellipse fill="lightblue" stroke="black" cx="244.26" cy="-236.65" rx="20.6" ry="20.6"/>
<text text-anchor="middle" x="244.26" y="-232.95" font-family="Arial" font-size="14.00">62</text>
</g>
<!-- 63 -->
<g id="node64" class="node">
<title>63</title>
<ellipse fill="lightblue" stroke="black" cx="399.61" cy="-100.48" rx="20.6" ry="20.6"/>
<text text-anchor="middle" x="399.61" y="-96.78" font-family="Arial" font-size="14.00">63</text>
</g>
<!-- 64 -->
<g id="node65" class="node">
<title>64</title>
<ellipse fill="lightblue" stroke="black" cx="81.38" cy="-595.24" rx="20.6" ry="20.6"/>
<text text-anchor="middle" x="81.38" y="-591.54" font-family="Arial" font-size="14.00">64</text>
</g>
<!-- 65 -->
<g id="node66" class="node">
<title>65</title>
<ellipse fill="lightblue" stroke="black" cx="605.7" cy="-269.59" rx="20.6" ry="20.6"/>
<text text-anchor="middle" x="605.7" y="-265.89" font-family="Arial" font-size="14.00">65</text>
</g>
<!-- 68 -->
<g id="node69" class="node">
<title>68</title>
<ellipse fill="lightblue" stroke="black" cx="161.9" cy="-346.46" rx="20.6" ry="20.6"/>
<text text-anchor="middle" x="161.9" y="-342.76" font-family="Arial" font-size="14.00">68</text>
</g>
<!-- 69 -->
<g id="node70" class="node">
<title>69</title>
<ellipse fill="lightblue" stroke="black" cx="616.81" cy="-397.8" rx="20.6" ry="20.6"/>
<text text-anchor="middle" x="616.81" y="-394.1" font-family="Arial" font-size="14.00">69</text>
</g>
<!-- 70 -->
<g id="node71" class="node">
<title>70</title>
<ellipse fill="lightblue" stroke="black" cx="320.5" cy="-383.76" rx="20.6" ry="20.6"/>
<text text-anchor="middle" x="320.5" y="-380.06" font-family="Arial" font-size="14.00">70</text>
</g>
<!-- 71 -->
<g id="node72" class="node">
<title>71</title>
<ellipse fill="lightblue" stroke="black" cx="300.38" cy="-129.93" rx="20.6" ry="20.6"/>
<text text-anchor="middle" x="300.38" y="-126.23" font-family="Arial" font-size="14.00">71</text>
</g>
<!-- 73 -->
<g id="node74" class="node">
<title>73</title>
<ellipse fill="lightblue" stroke="black" cx="518.79" cy="-159.05" rx="20.6" ry="20.6"/>
<text text-anchor="middle" x="518.79" y="-155.35" font-family="Arial" font-size="14.00">73</text>
</g>
<!-- 74 -->
<g id="node75" class="node">
<title>74</title>
<ellipse fill="lightblue" stroke="black" cx="537.03" cy="-54.04" rx="20.6" ry="20.6"/>
<text text-anchor="middle" x="537.03" y="-50.34" font-family="Arial" font-size="14.00">74</text>
</g>
<!-- 75 -->
<g id="node76" class="node">
<title>75</title>
<ellipse fill="lightblue" stroke="black" cx="386.23" cy="-180.5" rx="20.6" ry="20.6"/>
<text text-anchor="middle" x="386.23" y="-176.8" font-family="Arial" font-size="14.00">75</text>
</g>
<!-- 76 -->
<g id="node77" class="node">
<title>76</title>
<ellipse fill="lightblue" stroke="black" cx="227.75" cy="-629.63" rx="20.6" ry="20.6"/>
<text text-anchor="middle" x="227.75" y="-625.93" font-family="Arial" font-size="14.00">76</text>
</g>
<!-- 77 -->
<g id="node78" class="node">
<title>77</title>
<ellipse fill="lightblue" stroke="black" cx="449.94" cy="-584.64" rx="20.6" ry="20.6"/>
<text text-anchor="middle" x="449.94" y="-580.94" font-family="Arial" font-size="14.00">77</text>
</g>
<!-- 78 -->
<g id="node79" class="node">
<title>78</title>
<ellipse fill="lightblue" stroke="black" cx="443.56" cy="-157.41" rx="20.6" ry="20.6"/>
<text text-anchor="middle" x="443.56" y="-153.71" font-family="Arial" font-size="14.00">78</text>
</g>
<!-- 79 -->
<g id="node80" class="node">
<title>79</title>
<ellipse fill="lightblue" stroke="black" cx="375.65" cy="-488.91" rx="20.6" ry="20.6"/>
<text text-anchor="middle" x="375.65" y="-485.21" font-family="Arial" font-size="14.00">79</text>
</g>
<!-- 80 -->
<g id="node81" class="node">
<title>80</title>
<ellipse fill="lightblue" stroke="black" cx="58.46" cy="-32.12" rx="20.6" ry="20.6"/>
<text text-anchor="middle" x="58.46" y="-28.42" font-family="Arial" font-size="14.00">80</text>
</g>
<!-- 81 -->
<g id="node82" class="node">
<title>81</title>
<ellipse fill="lightblue" stroke="black" cx="654.96" cy="-319.22" rx="20.6" ry="20.6"/>
<text text-anchor="middle" x="654.96" y="-315.52" font-family="Arial" font-size="14.00">81</text>
</g>
<!-- 82 -->
<g id="node83" class="node">
<title>82</title>
<ellipse fill="lightblue" stroke="black" cx="168.08" cy="-45.2" rx="20.6" ry="20.6"/>
<text text-anchor="middle" x="168.08" y="-41.5" font-family="Arial" font-size="14.00">82</text>
</g>
<!-- 83 -->
<g id="node84" class="node">
<title>83</title>
<ellipse fill="lightblue" stroke="black" cx="192.8" cy="-396.12" rx="20.6" ry="20.6"/>
<text text-anchor="middle" x="192.8" y="-392.42" font-family="Arial" font-size="14.00">83</text>
</g>
<!-- 84 -->
<g id="node85" class="node">
<title>84</title>
<ellipse fill="lightblue" stroke="black" cx="545.34" cy="-544.71" rx="20.6" ry="20.6"/>
<text text-anchor="middle" x="545.34" y="-541.01" font-family="Arial" font-size="14.00">84</text>
</g>
<!-- 86 -->
<g id="node87" class="node">
<title>86</title>
<ellipse fill="lightblue" stroke="black" cx="59.88" cy="-86.37" rx="20.6" ry="20.6"/>
<text text-anchor="middle" x="59.88" y="-82.67" font-family="Arial" font-size="14.00">86</text>
</g>
<!-- 87 -->
<g id="node88" class="node">
<title>87</title>
<ellipse fill="lightblue" stroke="black" cx="319.06" cy="-307.11" rx="20.6" ry="20.6"/>
<text text-anchor="middle" x="319.06" y="-303.41" font-family="Arial" font-size="14.00">87</text>
</g>
<!-- 88 -->
<g id="node89" class="node">
<title>88</title>
<ellipse fill="lightblue" stroke="black" cx="442.09" cy="-370.11" rx="20.6" ry="20.6"/>
<text text-anchor="middle" x="442.09" y="-366.41" font-family="Arial" font-size="14.00">88</text>
</g>
<!-- 89 -->
<g id="node90" class="node">
<title>89</title>
<ellipse fill="lightblue" stroke="black" cx="20.38" cy="-626.91" rx="20.6" ry="20.6"/>
<text text-anchor="middle" x="20.38" y="-623.21" font-family="Arial" font-size="14.00">89</text>
</g>
<!-- 90 -->
<g id="node91" class="node">
<title>90</title>
<ellipse fill="lightblue" stroke="black" cx="386.4" cy="-538.99" rx="20.6" ry="20.6"/>
<text text-anchor="middle" x="386.4" y="-535.29" font-family="Arial" font-size="14.00">90</text>
</g>
<!-- 91 -->
<g id="node92" class="node">
<title>91</title>
<ellipse fill="lightblue" stroke="black" cx="151.66" cy="-445.73" rx="20.6" ry="20.6"/>
<text text-anchor="middle" x="151.66" y="-442.03" font-family="Arial" font-size="14.00">91</text>
</g>
<!-- 92 -->
<g id="node93" class="node">
<title>92</title>
<ellipse fill="lightblue" stroke="black" cx="144.97" cy="-239.72" rx="20.6" ry="20.6"/>
<text text-anchor="middle" x="144.97" y="-236.02" font-family="Arial" font-size="14.00">92</text>
</g>
<!-- 93 -->
<g id="node94" class="node">
<title>93</title>
<ellipse fill="lightblue" stroke="black" cx="673.7" cy="-202.11" rx="20.6" ry="20.6"/>
<text text-anchor="middle" x="673.7" y="-198.41" font-family="Arial" font-size="14.00">93</text>
</g>
<!-- 94 -->
<g id="node95" class="node">
<title>94</title>
<ellipse fill="lightblue" stroke="black" cx="250.76" cy="-147.02" rx="20.6" ry="20.6"/>
<text text-anchor="middle" x="250.76" y="-143.32" font-family="Arial" font-size="14.00">94</text>
</g>
<!-- 95 -->
<g id="node96" class="node">
<title>95</title>
<ellipse fill="lightblue" stroke="black" cx="226.83" cy="-450.24" rx="20.6" ry="20.6"/>
<text text-anchor="middle" x="226.83" y="-446.54" font-family="Arial" font-size="14.00">95</text>
</g>
<!-- 96 -->
<g id="node97" class="node">
<title>96</title>
<ellipse fill="lightblue" stroke="black" cx="541.32" cy="-273.02" rx="20.6" ry="20.6"/>
<text text-anchor="middle" x="541.32" y="-269.32" font-family="Arial" font-size="14.00">96</text>
</g>
<!-- 98 -->
<g id="node99" class="node">
<title>98</title>
<ellipse fill="lightblue" stroke="black" cx="330.52" cy="-433.78" rx="20.6" ry="20.6"/>
<text text-anchor="middle" x="330.52" y="-430.08" font-family="Arial" font-size="14.00">98</text>
</g>
<!-- 99 -->
<g id="node100" class="node">
<title>99</title>
<ellipse fill="lightblue" stroke="black" cx="293.98" cy="-242.62" rx="20.6" ry="20.6"/>
<text text-anchor="middle" x="293.98" y="-238.92" font-family="Arial" font-size="14.00">99</text>
</g>
</g>
</svg>
