<?xml version="1.0" encoding="UTF-8" standalone="no"?>
<!DOCTYPE svg PUBLIC "-//W3C//DTD SVG 1.1//EN"
 "http://www.w3.org/Graphics/SVG/1.1/DTD/svg11.dtd">
<!-- Generated by graphviz version 2.43.0 (0)
 -->
<!-- Title: Exp_a0_05_b1_5_maxDist50_tree Pages: 1 -->
<svg width="741pt" height="742pt"
 viewBox="0.00 0.00 741.00 742.00" xmlns="http://www.w3.org/2000/svg" xmlns:xlink="http://www.w3.org/1999/xlink">
<g id="graph0" class="graph" transform="scale(1 1) rotate(0) translate(4 738)">
<title>Exp_a0_05_b1_5_maxDist50_tree</title>
<polygon fill="white" stroke="transparent" points="-4,4 -4,-738 737,-738 737,4 -4,4"/>
<!-- 0 -->
<g id="node1" class="node">
<title>0</title>
<ellipse fill="lightblue" stroke="black" cx="423.19" cy="-46.14" rx="18" ry="18"/>
<text text-anchor="middle" x="423.19" y="-42.44" font-family="Arial" font-size="14.00">0</text>
</g>
<!-- 1 -->
<g id="node2" class="node">
<title>1</title>
<ellipse fill="lightblue" stroke="black" cx="361.34" cy="-373.98" rx="18" ry="18"/>
<text text-anchor="middle" x="361.34" y="-370.28" font-family="Arial" font-size="14.00">1</text>
</g>
<!-- 2 -->
<g id="node3" class="node">
<title>2</title>
<ellipse fill="lightblue" stroke="black" cx="450.11" cy="-90.2" rx="18" ry="18"/>
<text text-anchor="middle" x="450.11" y="-86.5" font-family="Arial" font-size="14.00">2</text>
</g>
<!-- 3 -->
<g id="node4" class="node">
<title>3</title>
<ellipse fill="#b2dfee" stroke="black" cx="367.29" cy="-666.54" rx="18" ry="18"/>
<text text-anchor="middle" x="367.29" y="-662.84" font-family="Arial" font-size="14.00">3</text>
</g>
<!-- 58 -->
<g id="node59" class="node">
<title>58</title>
<ellipse fill="skyblue" stroke="black" cx="274.97" cy="-619.67" rx="20.6" ry="20.6"/>
<text text-anchor="middle" x="274.97" y="-615.97" font-family="Arial" font-size="14.00">58</text>
</g>
<!-- 3&#45;&#45;58 -->
<g id="edge1" class="edge">
<title>3&#45;&#45;58</title>
<path fill="none" stroke="green" stroke-width="2" d="M351.21,-658.38C335.2,-650.25 310.62,-637.77 293.73,-629.2"/>
</g>
<!-- 4 -->
<g id="node5" class="node">
<title>4</title>
<ellipse fill="#68838b" stroke="black" cx="662.58" cy="-534.83" rx="18" ry="18"/>
<text text-anchor="middle" x="662.58" y="-531.13" font-family="Arial" font-size="14.00">4</text>
</g>
<!-- 12 -->
<g id="node13" class="node">
<title>12</title>
<ellipse fill="skyblue" stroke="black" cx="649.44" cy="-586.3" rx="20.6" ry="20.6"/>
<text text-anchor="middle" x="649.44" y="-582.6" font-family="Arial" font-size="14.00">12</text>
</g>
<!-- 4&#45;&#45;12 -->
<g id="edge2" class="edge">
<title>4&#45;&#45;12</title>
<path fill="none" stroke="green" stroke-width="2" d="M658.06,-552.54C656.96,-556.85 655.77,-561.48 654.65,-565.9"/>
</g>
<!-- 28 -->
<g id="node29" class="node">
<title>28</title>
<ellipse fill="#b2dfee" stroke="black" cx="577.89" cy="-519.88" rx="20.6" ry="20.6"/>
<text text-anchor="middle" x="577.89" y="-516.18" font-family="Arial" font-size="14.00">28</text>
</g>
<!-- 4&#45;&#45;28 -->
<g id="edge3" class="edge">
<title>4&#45;&#45;28</title>
<path fill="none" stroke="green" stroke-width="2" d="M644.62,-531.66C631.12,-529.28 612.61,-526.01 598.51,-523.52"/>
</g>
<!-- 39 -->
<g id="node40" class="node">
<title>39</title>
<ellipse fill="skyblue" stroke="black" cx="599.72" cy="-569.56" rx="20.6" ry="20.6"/>
<text text-anchor="middle" x="599.72" y="-565.86" font-family="Arial" font-size="14.00">39</text>
</g>
<!-- 4&#45;&#45;39 -->
<g id="edge4" class="edge">
<title>4&#45;&#45;39</title>
<path fill="none" stroke="green" stroke-width="2" d="M646.72,-543.59C637.99,-548.42 627.12,-554.42 618.03,-559.44"/>
</g>
<!-- 5 -->
<g id="node6" class="node">
<title>5</title>
<ellipse fill="lightblue" stroke="black" cx="690.96" cy="-149.74" rx="18" ry="18"/>
<text text-anchor="middle" x="690.96" y="-146.04" font-family="Arial" font-size="14.00">5</text>
</g>
<!-- 6 -->
<g id="node7" class="node">
<title>6</title>
<ellipse fill="lightblue" stroke="black" cx="646.93" cy="-192.34" rx="18" ry="18"/>
<text text-anchor="middle" x="646.93" y="-188.64" font-family="Arial" font-size="14.00">6</text>
</g>
<!-- 7 -->
<g id="node8" class="node">
<title>7</title>
<ellipse fill="#b2dfee" stroke="black" cx="228.25" cy="-425.13" rx="18" ry="18"/>
<text text-anchor="middle" x="228.25" y="-421.43" font-family="Arial" font-size="14.00">7</text>
</g>
<!-- 27 -->
<g id="node28" class="node">
<title>27</title>
<ellipse fill="#68838b" stroke="black" cx="237.3" cy="-471.96" rx="20.6" ry="20.6"/>
<text text-anchor="middle" x="237.3" y="-468.26" font-family="Arial" font-size="14.00">27</text>
</g>
<!-- 7&#45;&#45;27 -->
<g id="edge5" class="edge">
<title>7&#45;&#45;27</title>
<path fill="none" stroke="green" stroke-width="2" d="M231.67,-442.83C232.21,-445.63 232.77,-448.54 233.33,-451.4"/>
</g>
<!-- 8 -->
<g id="node9" class="node">
<title>8</title>
<ellipse fill="#b2dfee" stroke="black" cx="560.17" cy="-683.56" rx="18" ry="18"/>
<text text-anchor="middle" x="560.17" y="-679.86" font-family="Arial" font-size="14.00">8</text>
</g>
<!-- 8&#45;&#45;12 -->
<g id="edge6" class="edge">
<title>8&#45;&#45;12</title>
<path fill="none" stroke="green" stroke-width="2" d="M572.73,-670.43C578.09,-664.79 584.4,-658.11 590.03,-652.02 605.7,-635.08 623.4,-615.43 635.38,-602.06"/>
</g>
<!-- 9 -->
<g id="node10" class="node">
<title>9</title>
<ellipse fill="lightblue" stroke="black" cx="670.78" cy="-290.58" rx="18" ry="18"/>
<text text-anchor="middle" x="670.78" y="-286.88" font-family="Arial" font-size="14.00">9</text>
</g>
<!-- 10 -->
<g id="node11" class="node">
<title>10</title>
<ellipse fill="#9ac0cd" stroke="black" cx="237.41" cy="-669.31" rx="20.6" ry="20.6"/>
<text text-anchor="middle" x="237.41" y="-665.61" font-family="Arial" font-size="14.00">10</text>
</g>
<!-- 10&#45;&#45;58 -->
<g id="edge7" class="edge">
<title>10&#45;&#45;58</title>
<path fill="none" stroke="green" stroke-width="2" d="M250.13,-652.5C254.04,-647.33 258.35,-641.63 262.27,-636.46"/>
</g>
<!-- 76 -->
<g id="node77" class="node">
<title>76</title>
<ellipse fill="#9ac0cd" stroke="black" cx="187.81" cy="-713.53" rx="20.6" ry="20.6"/>
<text text-anchor="middle" x="187.81" y="-709.83" font-family="Arial" font-size="14.00">76</text>
</g>
<!-- 10&#45;&#45;76 -->
<g id="edge8" class="edge">
<title>10&#45;&#45;76</title>
<path fill="none" stroke="green" stroke-width="2" d="M221.72,-683.3C215.92,-688.46 209.37,-694.31 203.57,-699.48"/>
</g>
<!-- 11 -->
<g id="node12" class="node">
<title>11</title>
<ellipse fill="lightblue" stroke="black" cx="88.84" cy="-295.36" rx="20.6" ry="20.6"/>
<text text-anchor="middle" x="88.84" y="-291.66" font-family="Arial" font-size="14.00">11</text>
</g>
<!-- 29 -->
<g id="node30" class="node">
<title>29</title>
<ellipse fill="#b2dfee" stroke="black" cx="638.03" cy="-636.25" rx="20.6" ry="20.6"/>
<text text-anchor="middle" x="638.03" y="-632.55" font-family="Arial" font-size="14.00">29</text>
</g>
<!-- 12&#45;&#45;29 -->
<g id="edge9" class="edge">
<title>12&#45;&#45;29</title>
<path fill="none" stroke="green" stroke-width="2" d="M644.8,-606.62C644.11,-609.64 643.4,-612.76 642.7,-615.79"/>
</g>
<!-- 40 -->
<g id="node41" class="node">
<title>40</title>
<ellipse fill="#68838b" stroke="black" cx="574.26" cy="-636.11" rx="20.6" ry="20.6"/>
<text text-anchor="middle" x="574.26" y="-632.41" font-family="Arial" font-size="14.00">40</text>
</g>
<!-- 12&#45;&#45;40 -->
<g id="edge10" class="edge">
<title>12&#45;&#45;40</title>
<path fill="none" stroke="green" stroke-width="2" d="M632,-597.86C619.86,-605.9 603.73,-616.59 591.61,-624.62"/>
</g>
<!-- 13 -->
<g id="node14" class="node">
<title>13</title>
<ellipse fill="lightblue" stroke="black" cx="98.85" cy="-345.04" rx="20.6" ry="20.6"/>
<text text-anchor="middle" x="98.85" y="-341.34" font-family="Arial" font-size="14.00">13</text>
</g>
<!-- 14 -->
<g id="node15" class="node">
<title>14</title>
<ellipse fill="lightblue" stroke="black" cx="123.54" cy="-162.85" rx="20.6" ry="20.6"/>
<text text-anchor="middle" x="123.54" y="-159.15" font-family="Arial" font-size="14.00">14</text>
</g>
<!-- 15 -->
<g id="node16" class="node">
<title>15</title>
<ellipse fill="red" stroke="black" cx="513.32" cy="-677.64" rx="20.6" ry="20.6"/>
<text text-anchor="middle" x="513.32" y="-673.94" font-family="Arial" font-size="14.00" fill="white">15</text>
</g>
<!-- 15&#45;&#45;40 -->
<g id="edge11" class="edge">
<title>15&#45;&#45;40</title>
<path fill="none" stroke="green" stroke-width="2" d="M530.62,-665.85C538.79,-660.29 548.51,-653.66 556.71,-648.07"/>
</g>
<!-- 16 -->
<g id="node17" class="node">
<title>16</title>
<ellipse fill="lightblue" stroke="black" cx="443.06" cy="-356.63" rx="20.6" ry="20.6"/>
<text text-anchor="middle" x="443.06" y="-352.93" font-family="Arial" font-size="14.00">16</text>
</g>
<!-- 17 -->
<g id="node18" class="node">
<title>17</title>
<ellipse fill="lightblue" stroke="black" cx="600.07" cy="-210.11" rx="20.6" ry="20.6"/>
<text text-anchor="middle" x="600.07" y="-206.41" font-family="Arial" font-size="14.00">17</text>
</g>
<!-- 18 -->
<g id="node19" class="node">
<title>18</title>
<ellipse fill="lightblue" stroke="black" cx="472.24" cy="-20.83" rx="20.6" ry="20.6"/>
<text text-anchor="middle" x="472.24" y="-17.13" font-family="Arial" font-size="14.00">18</text>
</g>
<!-- 19 -->
<g id="node20" class="node">
<title>19</title>
<ellipse fill="lightblue" stroke="black" cx="192.27" cy="-188" rx="20.6" ry="20.6"/>
<text text-anchor="middle" x="192.27" y="-184.3" font-family="Arial" font-size="14.00">19</text>
</g>
<!-- 20 -->
<g id="node21" class="node">
<title>20</title>
<ellipse fill="#9ac0cd" stroke="black" cx="174.79" cy="-536.79" rx="20.6" ry="20.6"/>
<text text-anchor="middle" x="174.79" y="-533.09" font-family="Arial" font-size="14.00">20</text>
</g>
<!-- 46 -->
<g id="node47" class="node">
<title>46</title>
<ellipse fill="skyblue" stroke="black" cx="224.6" cy="-564.37" rx="20.6" ry="20.6"/>
<text text-anchor="middle" x="224.6" y="-560.67" font-family="Arial" font-size="14.00">46</text>
</g>
<!-- 20&#45;&#45;46 -->
<g id="edge12" class="edge">
<title>20&#45;&#45;46</title>
<path fill="none" stroke="green" stroke-width="2" d="M193.06,-546.9C197.39,-549.3 202.01,-551.86 206.34,-554.26"/>
</g>
<!-- 83 -->
<g id="node84" class="node">
<title>83</title>
<ellipse fill="#b2dfee" stroke="black" cx="181.41" cy="-433.83" rx="20.6" ry="20.6"/>
<text text-anchor="middle" x="181.41" y="-430.13" font-family="Arial" font-size="14.00">83</text>
</g>
<!-- 20&#45;&#45;83 -->
<g id="edge13" class="edge">
<title>20&#45;&#45;83</title>
<path fill="none" stroke="green" stroke-width="2" d="M168.74,-516.64C166.46,-507.04 164.56,-495.34 165.24,-484.7 165.92,-473.97 169.3,-462.52 172.8,-453.21"/>
</g>
<!-- 21 -->
<g id="node22" class="node">
<title>21</title>
<ellipse fill="lightblue" stroke="black" cx="302.23" cy="-103.29" rx="20.6" ry="20.6"/>
<text text-anchor="middle" x="302.23" y="-99.59" font-family="Arial" font-size="14.00">21</text>
</g>
<!-- 22 -->
<g id="node23" class="node">
<title>22</title>
<ellipse fill="lightblue" stroke="black" cx="209.73" cy="-378.32" rx="20.6" ry="20.6"/>
<text text-anchor="middle" x="209.73" y="-374.62" font-family="Arial" font-size="14.00">22</text>
</g>
<!-- 23 -->
<g id="node24" class="node">
<title>23</title>
<ellipse fill="lightblue" stroke="black" cx="74.73" cy="-224.43" rx="20.6" ry="20.6"/>
<text text-anchor="middle" x="74.73" y="-220.73" font-family="Arial" font-size="14.00">23</text>
</g>
<!-- 24 -->
<g id="node25" class="node">
<title>24</title>
<ellipse fill="lightblue" stroke="black" cx="35.38" cy="-572.18" rx="20.6" ry="20.6"/>
<text text-anchor="middle" x="35.38" y="-568.48" font-family="Arial" font-size="14.00">24</text>
</g>
<!-- 25 -->
<g id="node26" class="node">
<title>25</title>
<ellipse fill="lightblue" stroke="black" cx="85.03" cy="-532.98" rx="20.6" ry="20.6"/>
<text text-anchor="middle" x="85.03" y="-529.28" font-family="Arial" font-size="14.00">25</text>
</g>
<!-- 26 -->
<g id="node27" class="node">
<title>26</title>
<ellipse fill="lightblue" stroke="black" cx="339.99" cy="-284.57" rx="20.6" ry="20.6"/>
<text text-anchor="middle" x="339.99" y="-280.87" font-family="Arial" font-size="14.00">26</text>
</g>
<!-- 38 -->
<g id="node39" class="node">
<title>38</title>
<ellipse fill="#b2dfee" stroke="black" cx="286.93" cy="-520.43" rx="20.6" ry="20.6"/>
<text text-anchor="middle" x="286.93" y="-516.73" font-family="Arial" font-size="14.00">38</text>
</g>
<!-- 27&#45;&#45;38 -->
<g id="edge14" class="edge">
<title>27&#45;&#45;38</title>
<path fill="none" stroke="green" stroke-width="2" d="M252.19,-486.5C258.47,-492.64 265.77,-499.76 272.05,-505.9"/>
</g>
<!-- 27&#45;&#45;46 -->
<g id="edge15" class="edge">
<title>27&#45;&#45;46</title>
<path fill="none" stroke="green" stroke-width="2" d="M234.42,-492.93C232.34,-508.05 229.55,-528.38 227.47,-543.48"/>
</g>
<!-- 30 -->
<g id="node31" class="node">
<title>30</title>
<ellipse fill="lightblue" stroke="black" cx="623.82" cy="-145.49" rx="20.6" ry="20.6"/>
<text text-anchor="middle" x="623.82" y="-141.79" font-family="Arial" font-size="14.00">30</text>
</g>
<!-- 31 -->
<g id="node32" class="node">
<title>31</title>
<ellipse fill="lightblue" stroke="black" cx="591.95" cy="-348.51" rx="20.6" ry="20.6"/>
<text text-anchor="middle" x="591.95" y="-344.81" font-family="Arial" font-size="14.00">31</text>
</g>
<!-- 32 -->
<g id="node33" class="node">
<title>32</title>
<ellipse fill="lightblue" stroke="black" cx="682.41" cy="-388.38" rx="20.6" ry="20.6"/>
<text text-anchor="middle" x="682.41" y="-384.68" font-family="Arial" font-size="14.00">32</text>
</g>
<!-- 33 -->
<g id="node34" class="node">
<title>33</title>
<ellipse fill="lightblue" stroke="black" cx="188.09" cy="-328.69" rx="20.6" ry="20.6"/>
<text text-anchor="middle" x="188.09" y="-324.99" font-family="Arial" font-size="14.00">33</text>
</g>
<!-- 34 -->
<g id="node35" class="node">
<title>34</title>
<ellipse fill="lightblue" stroke="black" cx="668.17" cy="-447.74" rx="20.6" ry="20.6"/>
<text text-anchor="middle" x="668.17" y="-444.04" font-family="Arial" font-size="14.00">34</text>
</g>
<!-- 35 -->
<g id="node36" class="node">
<title>35</title>
<ellipse fill="lightblue" stroke="black" cx="651.24" cy="-240.13" rx="20.6" ry="20.6"/>
<text text-anchor="middle" x="651.24" y="-236.43" font-family="Arial" font-size="14.00">35</text>
</g>
<!-- 36 -->
<g id="node37" class="node">
<title>36</title>
<ellipse fill="lightblue" stroke="black" cx="542.33" cy="-372.87" rx="20.6" ry="20.6"/>
<text text-anchor="middle" x="542.33" y="-369.17" font-family="Arial" font-size="14.00">36</text>
</g>
<!-- 37 -->
<g id="node38" class="node">
<title>37</title>
<ellipse fill="lightblue" stroke="black" cx="34.82" cy="-621.78" rx="20.6" ry="20.6"/>
<text text-anchor="middle" x="34.82" y="-618.08" font-family="Arial" font-size="14.00">37</text>
</g>
<!-- 49 -->
<g id="node50" class="node">
<title>49</title>
<ellipse fill="#b2dfee" stroke="black" cx="478.64" cy="-516.5" rx="20.6" ry="20.6"/>
<text text-anchor="middle" x="478.64" y="-512.8" font-family="Arial" font-size="14.00">49</text>
</g>
<!-- 39&#45;&#45;49 -->
<g id="edge16" class="edge">
<title>39&#45;&#45;49</title>
<path fill="none" stroke="green" stroke-width="2" d="M581.91,-558.23C567.87,-549.77 547.53,-538.51 528.4,-531.6 518.89,-528.17 508.17,-524.85 499.13,-522.2"/>
</g>
<!-- 60 -->
<g id="node61" class="node">
<title>60</title>
<ellipse fill="#b2dfee" stroke="black" cx="528.28" cy="-554" rx="20.6" ry="20.6"/>
<text text-anchor="middle" x="528.28" y="-550.3" font-family="Arial" font-size="14.00">60</text>
</g>
<!-- 39&#45;&#45;60 -->
<g id="edge17" class="edge">
<title>39&#45;&#45;60</title>
<path fill="none" stroke="green" stroke-width="2" d="M579.06,-565.06C569.49,-562.98 558.17,-560.51 548.65,-558.44"/>
</g>
<!-- 84 -->
<g id="node85" class="node">
<title>84</title>
<ellipse fill="#b2dfee" stroke="black" cx="506.77" cy="-614.97" rx="20.6" ry="20.6"/>
<text text-anchor="middle" x="506.77" y="-611.27" font-family="Arial" font-size="14.00">84</text>
</g>
<!-- 39&#45;&#45;84 -->
<g id="edge18" class="edge">
<title>39&#45;&#45;84</title>
<path fill="none" stroke="green" stroke-width="2" d="M580.91,-578.75C564.78,-586.63 541.67,-597.92 525.55,-605.8"/>
</g>
<!-- 97 -->
<g id="node98" class="node">
<title>97</title>
<ellipse fill="#9ac0cd" stroke="black" cx="463.72" cy="-685.8" rx="20.6" ry="20.6"/>
<text text-anchor="middle" x="463.72" y="-682.1" font-family="Arial" font-size="14.00">97</text>
</g>
<!-- 40&#45;&#45;97 -->
<g id="edge19" class="edge">
<title>40&#45;&#45;97</title>
<path fill="none" stroke="green" stroke-width="2" d="M553.87,-640.76C537.9,-644.91 515.46,-651.86 497.51,-661.78 491.71,-664.98 485.72,-668.98 480.42,-672.8"/>
</g>
<!-- 41 -->
<g id="node42" class="node">
<title>41</title>
<ellipse fill="lightblue" stroke="black" cx="493.79" cy="-423.58" rx="20.6" ry="20.6"/>
<text text-anchor="middle" x="493.79" y="-419.88" font-family="Arial" font-size="14.00">41</text>
</g>
<!-- 42 -->
<g id="node43" class="node">
<title>42</title>
<ellipse fill="#68838b" stroke="black" cx="406.62" cy="-584.16" rx="20.6" ry="20.6"/>
<text text-anchor="middle" x="406.62" y="-580.46" font-family="Arial" font-size="14.00">42</text>
</g>
<!-- 45 -->
<g id="node46" class="node">
<title>45</title>
<ellipse fill="#b2dfee" stroke="black" cx="456.26" cy="-566.57" rx="20.6" ry="20.6"/>
<text text-anchor="middle" x="456.26" y="-562.87" font-family="Arial" font-size="14.00">45</text>
</g>
<!-- 42&#45;&#45;45 -->
<g id="edge20" class="edge">
<title>42&#45;&#45;45</title>
<path fill="none" stroke="green" stroke-width="2" d="M426.24,-577.21C429.6,-576.02 433.09,-574.78 436.46,-573.59"/>
</g>
<!-- 59 -->
<g id="node60" class="node">
<title>59</title>
<ellipse fill="#b2dfee" stroke="black" cx="405.62" cy="-524.47" rx="20.6" ry="20.6"/>
<text text-anchor="middle" x="405.62" y="-520.77" font-family="Arial" font-size="14.00">59</text>
</g>
<!-- 42&#45;&#45;59 -->
<g id="edge21" class="edge">
<title>42&#45;&#45;59</title>
<path fill="none" stroke="green" stroke-width="2" d="M406.27,-563.29C406.18,-557.5 406.07,-551.23 405.97,-545.44"/>
</g>
<!-- 77 -->
<g id="node78" class="node">
<title>77</title>
<ellipse fill="#68838b" stroke="black" cx="414.12" cy="-639.16" rx="20.6" ry="20.6"/>
<text text-anchor="middle" x="414.12" y="-635.46" font-family="Arial" font-size="14.00">77</text>
</g>
<!-- 42&#45;&#45;77 -->
<g id="edge22" class="edge">
<title>42&#45;&#45;77</title>
<path fill="none" stroke="green" stroke-width="2" d="M409.46,-604.96C410.06,-609.34 410.69,-613.96 411.28,-618.34"/>
</g>
<!-- 43 -->
<g id="node44" class="node">
<title>43</title>
<ellipse fill="lightblue" stroke="black" cx="132.89" cy="-230.96" rx="20.6" ry="20.6"/>
<text text-anchor="middle" x="132.89" y="-227.26" font-family="Arial" font-size="14.00">43</text>
</g>
<!-- 44 -->
<g id="node45" class="node">
<title>44</title>
<ellipse fill="#68838b" stroke="black" cx="134.13" cy="-586.7" rx="20.6" ry="20.6"/>
<text text-anchor="middle" x="134.13" y="-583" font-family="Arial" font-size="14.00">44</text>
</g>
<!-- 44&#45;&#45;46 -->
<g id="edge23" class="edge">
<title>44&#45;&#45;46</title>
<path fill="none" stroke="green" stroke-width="2" d="M154.66,-581.64C169.46,-577.98 189.36,-573.07 204.15,-569.42"/>
</g>
<!-- 91 -->
<g id="node92" class="node">
<title>91</title>
<ellipse fill="#b2dfee" stroke="black" cx="131.8" cy="-483.31" rx="20.6" ry="20.6"/>
<text text-anchor="middle" x="131.8" y="-479.61" font-family="Arial" font-size="14.00">91</text>
</g>
<!-- 44&#45;&#45;91 -->
<g id="edge24" class="edge">
<title>44&#45;&#45;91</title>
<path fill="none" stroke="green" stroke-width="2" d="M133.66,-565.78C133.25,-547.84 132.67,-522.13 132.27,-504.2"/>
</g>
<!-- 95 -->
<g id="node96" class="node">
<title>95</title>
<ellipse fill="#b2dfee" stroke="black" cx="187.64" cy="-484.77" rx="20.6" ry="20.6"/>
<text text-anchor="middle" x="187.64" y="-481.07" font-family="Arial" font-size="14.00">95</text>
</g>
<!-- 44&#45;&#45;95 -->
<g id="edge25" class="edge">
<title>44&#45;&#45;95</title>
<path fill="none" stroke="green" stroke-width="2" d="M139.75,-566.59C143.99,-553.11 150.53,-535.27 159.06,-520.86 163.21,-513.84 168.59,-506.69 173.56,-500.62"/>
</g>
<!-- 46&#45;&#45;76 -->
<g id="edge26" class="edge">
<title>46&#45;&#45;76</title>
<path fill="none" stroke="green" stroke-width="2" d="M219.56,-584.8C212.56,-613.2 199.94,-664.34 192.9,-692.87"/>
</g>
<!-- 47 -->
<g id="node48" class="node">
<title>47</title>
<ellipse fill="lightblue" stroke="black" cx="613.04" cy="-470.26" rx="20.6" ry="20.6"/>
<text text-anchor="middle" x="613.04" y="-466.56" font-family="Arial" font-size="14.00">47</text>
</g>
<!-- 48 -->
<g id="node49" class="node">
<title>48</title>
<ellipse fill="lightblue" stroke="black" cx="500.64" cy="-135.67" rx="20.6" ry="20.6"/>
<text text-anchor="middle" x="500.64" y="-131.97" font-family="Arial" font-size="14.00">48</text>
</g>
<!-- 50 -->
<g id="node51" class="node">
<title>50</title>
<ellipse fill="lightblue" stroke="black" cx="492.7" cy="-357.94" rx="20.6" ry="20.6"/>
<text text-anchor="middle" x="492.7" y="-354.24" font-family="Arial" font-size="14.00">50</text>
</g>
<!-- 51 -->
<g id="node52" class="node">
<title>51</title>
<ellipse fill="lightblue" stroke="black" cx="351.89" cy="-140.83" rx="20.6" ry="20.6"/>
<text text-anchor="middle" x="351.89" y="-137.13" font-family="Arial" font-size="14.00">51</text>
</g>
<!-- 52 -->
<g id="node53" class="node">
<title>52</title>
<ellipse fill="lightblue" stroke="black" cx="372.37" cy="-71.35" rx="20.6" ry="20.6"/>
<text text-anchor="middle" x="372.37" y="-67.65" font-family="Arial" font-size="14.00">52</text>
</g>
<!-- 53 -->
<g id="node54" class="node">
<title>53</title>
<ellipse fill="lightblue" stroke="black" cx="443.09" cy="-306.21" rx="20.6" ry="20.6"/>
<text text-anchor="middle" x="443.09" y="-302.51" font-family="Arial" font-size="14.00">53</text>
</g>
<!-- 54 -->
<g id="node55" class="node">
<title>54</title>
<ellipse fill="lightblue" stroke="black" cx="73.74" cy="-174.8" rx="20.6" ry="20.6"/>
<text text-anchor="middle" x="73.74" y="-171.1" font-family="Arial" font-size="14.00">54</text>
</g>
<!-- 55 -->
<g id="node56" class="node">
<title>55</title>
<ellipse fill="lightblue" stroke="black" cx="190.3" cy="-242.02" rx="20.6" ry="20.6"/>
<text text-anchor="middle" x="190.3" y="-238.32" font-family="Arial" font-size="14.00">55</text>
</g>
<!-- 56 -->
<g id="node57" class="node">
<title>56</title>
<ellipse fill="lightblue" stroke="black" cx="259.36" cy="-373.71" rx="20.6" ry="20.6"/>
<text text-anchor="middle" x="259.36" y="-370.01" font-family="Arial" font-size="14.00">56</text>
</g>
<!-- 57 -->
<g id="node58" class="node">
<title>57</title>
<ellipse fill="lightblue" stroke="black" cx="364.79" cy="-474.49" rx="20.6" ry="20.6"/>
<text text-anchor="middle" x="364.79" y="-470.79" font-family="Arial" font-size="14.00">57</text>
</g>
<!-- 58&#45;&#45;77 -->
<g id="edge27" class="edge">
<title>58&#45;&#45;77</title>
<path fill="none" stroke="green" stroke-width="2" d="M293.53,-630.14C303.14,-634.92 315.26,-639.98 326.84,-642.09 349.36,-646.21 375.68,-644.45 393.49,-642.32"/>
</g>
<!-- 79 -->
<g id="node80" class="node">
<title>79</title>
<ellipse fill="#b2dfee" stroke="black" cx="292.07" cy="-570.05" rx="20.6" ry="20.6"/>
<text text-anchor="middle" x="292.07" y="-566.35" font-family="Arial" font-size="14.00">79</text>
</g>
<!-- 58&#45;&#45;79 -->
<g id="edge28" class="edge">
<title>58&#45;&#45;79</title>
<path fill="none" stroke="green" stroke-width="2" d="M281.83,-599.77C282.94,-596.54 284.1,-593.19 285.21,-589.95"/>
</g>
<!-- 90 -->
<g id="node91" class="node">
<title>90</title>
<ellipse fill="#b2dfee" stroke="black" cx="326.9" cy="-619.7" rx="20.6" ry="20.6"/>
<text text-anchor="middle" x="326.9" y="-616" font-family="Arial" font-size="14.00">90</text>
</g>
<!-- 58&#45;&#45;90 -->
<g id="edge29" class="edge">
<title>58&#45;&#45;90</title>
<path fill="none" stroke="green" stroke-width="2" d="M295.79,-619.68C299.18,-619.68 302.69,-619.68 306.07,-619.69"/>
</g>
<!-- 61 -->
<g id="node62" class="node">
<title>61</title>
<ellipse fill="lightblue" stroke="black" cx="446.14" cy="-256.59" rx="20.6" ry="20.6"/>
<text text-anchor="middle" x="446.14" y="-252.89" font-family="Arial" font-size="14.00">61</text>
</g>
<!-- 62 -->
<g id="node63" class="node">
<title>62</title>
<ellipse fill="lightblue" stroke="black" cx="240.37" cy="-276.35" rx="20.6" ry="20.6"/>
<text text-anchor="middle" x="240.37" y="-272.65" font-family="Arial" font-size="14.00">62</text>
</g>
<!-- 63 -->
<g id="node64" class="node">
<title>63</title>
<ellipse fill="lightblue" stroke="black" cx="401.51" cy="-132.97" rx="20.6" ry="20.6"/>
<text text-anchor="middle" x="401.51" y="-129.27" font-family="Arial" font-size="14.00">63</text>
</g>
<!-- 64 -->
<g id="node65" class="node">
<title>64</title>
<ellipse fill="lightblue" stroke="black" cx="84.5" cy="-627.52" rx="20.6" ry="20.6"/>
<text text-anchor="middle" x="84.5" y="-623.82" font-family="Arial" font-size="14.00">64</text>
</g>
<!-- 65 -->
<g id="node66" class="node">
<title>65</title>
<ellipse fill="lightblue" stroke="black" cx="615.26" cy="-298.91" rx="20.6" ry="20.6"/>
<text text-anchor="middle" x="615.26" y="-295.21" font-family="Arial" font-size="14.00">65</text>
</g>
<!-- 66 -->
<g id="node67" class="node">
<title>66</title>
<ellipse fill="lightblue" stroke="black" cx="131.49" cy="-113.23" rx="20.6" ry="20.6"/>
<text text-anchor="middle" x="131.49" y="-109.53" font-family="Arial" font-size="14.00">66</text>
</g>
<!-- 67 -->
<g id="node68" class="node">
<title>67</title>
<ellipse fill="lightblue" stroke="black" cx="39.22" cy="-274.06" rx="20.6" ry="20.6"/>
<text text-anchor="middle" x="39.22" y="-270.36" font-family="Arial" font-size="14.00">67</text>
</g>
<!-- 68 -->
<g id="node69" class="node">
<title>68</title>
<ellipse fill="lightblue" stroke="black" cx="148.9" cy="-383.65" rx="20.6" ry="20.6"/>
<text text-anchor="middle" x="148.9" y="-379.95" font-family="Arial" font-size="14.00">68</text>
</g>
<!-- 69 -->
<g id="node70" class="node">
<title>69</title>
<ellipse fill="lightblue" stroke="black" cx="619.18" cy="-398.13" rx="20.6" ry="20.6"/>
<text text-anchor="middle" x="619.18" y="-394.43" font-family="Arial" font-size="14.00">69</text>
</g>
<!-- 70 -->
<g id="node71" class="node">
<title>70</title>
<ellipse fill="lightblue" stroke="black" cx="309.01" cy="-395.26" rx="20.6" ry="20.6"/>
<text text-anchor="middle" x="309.01" y="-391.56" font-family="Arial" font-size="14.00">70</text>
</g>
<!-- 71 -->
<g id="node72" class="node">
<title>71</title>
<ellipse fill="lightblue" stroke="black" cx="309.23" cy="-190.46" rx="20.6" ry="20.6"/>
<text text-anchor="middle" x="309.23" y="-186.76" font-family="Arial" font-size="14.00">71</text>
</g>
<!-- 72 -->
<g id="node73" class="node">
<title>72</title>
<ellipse fill="lightblue" stroke="black" cx="252.58" cy="-95.69" rx="20.6" ry="20.6"/>
<text text-anchor="middle" x="252.58" y="-91.99" font-family="Arial" font-size="14.00">72</text>
</g>
<!-- 73 -->
<g id="node74" class="node">
<title>73</title>
<ellipse fill="lightblue" stroke="black" cx="550.41" cy="-183.7" rx="20.6" ry="20.6"/>
<text text-anchor="middle" x="550.41" y="-180" font-family="Arial" font-size="14.00">73</text>
</g>
<!-- 74 -->
<g id="node75" class="node">
<title>74</title>
<ellipse fill="lightblue" stroke="black" cx="561.47" cy="-72" rx="20.6" ry="20.6"/>
<text text-anchor="middle" x="561.47" y="-68.3" font-family="Arial" font-size="14.00">74</text>
</g>
<!-- 75 -->
<g id="node76" class="node">
<title>75</title>
<ellipse fill="lightblue" stroke="black" cx="389.03" cy="-234.93" rx="20.6" ry="20.6"/>
<text text-anchor="middle" x="389.03" y="-231.23" font-family="Arial" font-size="14.00">75</text>
</g>
<!-- 77&#45;&#45;97 -->
<g id="edge30" class="edge">
<title>77&#45;&#45;97</title>
<path fill="none" stroke="green" stroke-width="2" d="M429.55,-653.67C435.57,-659.33 442.47,-665.82 448.48,-671.47"/>
</g>
<!-- 78 -->
<g id="node79" class="node">
<title>78</title>
<ellipse fill="lightblue" stroke="black" cx="451" cy="-182.59" rx="20.6" ry="20.6"/>
<text text-anchor="middle" x="451" y="-178.89" font-family="Arial" font-size="14.00">78</text>
</g>
<!-- 80 -->
<g id="node81" class="node">
<title>80</title>
<ellipse fill="lightblue" stroke="black" cx="69.27" cy="-78.66" rx="20.6" ry="20.6"/>
<text text-anchor="middle" x="69.27" y="-74.96" font-family="Arial" font-size="14.00">80</text>
</g>
<!-- 81 -->
<g id="node82" class="node">
<title>81</title>
<ellipse fill="lightblue" stroke="black" cx="665.15" cy="-338.25" rx="20.6" ry="20.6"/>
<text text-anchor="middle" x="665.15" y="-334.55" font-family="Arial" font-size="14.00">81</text>
</g>
<!-- 82 -->
<g id="node83" class="node">
<title>82</title>
<ellipse fill="lightblue" stroke="black" cx="181.3" cy="-104.31" rx="20.6" ry="20.6"/>
<text text-anchor="middle" x="181.3" y="-100.61" font-family="Arial" font-size="14.00">82</text>
</g>
<!-- 85 -->
<g id="node86" class="node">
<title>85</title>
<ellipse fill="lightblue" stroke="black" cx="393.42" cy="-324.27" rx="20.6" ry="20.6"/>
<text text-anchor="middle" x="393.42" y="-320.57" font-family="Arial" font-size="14.00">85</text>
</g>
<!-- 86 -->
<g id="node87" class="node">
<title>86</title>
<ellipse fill="lightblue" stroke="black" cx="24.09" cy="-131.14" rx="20.6" ry="20.6"/>
<text text-anchor="middle" x="24.09" y="-127.44" font-family="Arial" font-size="14.00">86</text>
</g>
<!-- 87 -->
<g id="node88" class="node">
<title>87</title>
<ellipse fill="lightblue" stroke="black" cx="314.52" cy="-345.65" rx="20.6" ry="20.6"/>
<text text-anchor="middle" x="314.52" y="-341.95" font-family="Arial" font-size="14.00">87</text>
</g>
<!-- 88 -->
<g id="node89" class="node">
<title>88</title>
<ellipse fill="lightblue" stroke="black" cx="443.88" cy="-411.4" rx="20.6" ry="20.6"/>
<text text-anchor="middle" x="443.88" y="-407.7" font-family="Arial" font-size="14.00">88</text>
</g>
<!-- 89 -->
<g id="node90" class="node">
<title>89</title>
<ellipse fill="lightblue" stroke="black" cx="21.02" cy="-671.41" rx="20.6" ry="20.6"/>
<text text-anchor="middle" x="21.02" y="-667.71" font-family="Arial" font-size="14.00">89</text>
</g>
<!-- 92 -->
<g id="node93" class="node">
<title>92</title>
<ellipse fill="lightblue" stroke="black" cx="138.47" cy="-286.66" rx="20.6" ry="20.6"/>
<text text-anchor="middle" x="138.47" y="-282.96" font-family="Arial" font-size="14.00">92</text>
</g>
<!-- 93 -->
<g id="node94" class="node">
<title>93</title>
<ellipse fill="lightblue" stroke="black" cx="712.69" cy="-243.58" rx="20.6" ry="20.6"/>
<text text-anchor="middle" x="712.69" y="-239.88" font-family="Arial" font-size="14.00">93</text>
</g>
<!-- 94 -->
<g id="node95" class="node">
<title>94</title>
<ellipse fill="lightblue" stroke="black" cx="259.59" cy="-191.01" rx="20.6" ry="20.6"/>
<text text-anchor="middle" x="259.59" y="-187.31" font-family="Arial" font-size="14.00">94</text>
</g>
<!-- 96 -->
<g id="node97" class="node">
<title>96</title>
<ellipse fill="lightblue" stroke="black" cx="549.46" cy="-294.06" rx="20.6" ry="20.6"/>
<text text-anchor="middle" x="549.46" y="-290.36" font-family="Arial" font-size="14.00">96</text>
</g>
<!-- 98 -->
<g id="node99" class="node">
<title>98</title>
<ellipse fill="lightblue" stroke="black" cx="315.11" cy="-459.05" rx="20.6" ry="20.6"/>
<text text-anchor="middle" x="315.11" y="-455.35" font-family="Arial" font-size="14.00">98</text>
</g>
<!-- 99 -->
<g id="node100" class="node">
<title>99</title>
<ellipse fill="lightblue" stroke="black" cx="290.01" cy="-272.7" rx="20.6" ry="20.6"/>
<text text-anchor="middle" x="290.01" y="-269" font-family="Arial" font-size="14.00">99</text>
</g>
</g>
</svg>
