<?xml version="1.0" encoding="UTF-8" standalone="no"?>
<!DOCTYPE svg PUBLIC "-//W3C//DTD SVG 1.1//EN"
 "http://www.w3.org/Graphics/SVG/1.1/DTD/svg11.dtd">
<!-- Generated by graphviz version 2.43.0 (0)
 -->
<!-- Title: Exp_a0_1_b1_0_tree Pages: 1 -->
<svg width="725pt" height="700pt"
 viewBox="0.00 0.00 725.00 700.00" xmlns="http://www.w3.org/2000/svg" xmlns:xlink="http://www.w3.org/1999/xlink">
<g id="graph0" class="graph" transform="scale(1 1) rotate(0) translate(4 696)">
<title>Exp_a0_1_b1_0_tree</title>
<polygon fill="white" stroke="transparent" points="-4,4 -4,-696 721,-696 721,4 -4,4"/>
<!-- 0 -->
<g id="node1" class="node">
<title>0</title>
<ellipse fill="lightblue" stroke="black" cx="380.46" cy="-40" rx="18" ry="18"/>
<text text-anchor="middle" x="380.46" y="-36.3" font-family="Arial" font-size="14.00">0</text>
</g>
<!-- 1 -->
<g id="node2" class="node">
<title>1</title>
<ellipse fill="lightblue" stroke="black" cx="337.59" cy="-361.67" rx="18" ry="18"/>
<text text-anchor="middle" x="337.59" y="-357.97" font-family="Arial" font-size="14.00">1</text>
</g>
<!-- 2 -->
<g id="node3" class="node">
<title>2</title>
<ellipse fill="lightblue" stroke="black" cx="428.01" cy="-84.23" rx="18" ry="18"/>
<text text-anchor="middle" x="428.01" y="-80.53" font-family="Arial" font-size="14.00">2</text>
</g>
<!-- 3 -->
<g id="node4" class="node">
<title>3</title>
<ellipse fill="lightblue" stroke="black" cx="379.93" cy="-632.17" rx="18" ry="18"/>
<text text-anchor="middle" x="379.93" y="-628.47" font-family="Arial" font-size="14.00">3</text>
</g>
<!-- 4 -->
<g id="node5" class="node">
<title>4</title>
<ellipse fill="#68838b" stroke="black" cx="620.69" cy="-534.33" rx="18" ry="18"/>
<text text-anchor="middle" x="620.69" y="-530.63" font-family="Arial" font-size="14.00">4</text>
</g>
<!-- 8 -->
<g id="node9" class="node">
<title>8</title>
<ellipse fill="#9ac0cd" stroke="black" cx="581.05" cy="-671.99" rx="18" ry="18"/>
<text text-anchor="middle" x="581.05" y="-668.29" font-family="Arial" font-size="14.00">8</text>
</g>
<!-- 4&#45;&#45;8 -->
<g id="edge1" class="edge">
<title>4&#45;&#45;8</title>
<path fill="none" stroke="green" stroke-width="2" d="M618.98,-552.42C616.99,-570.35 613.09,-598.49 606.31,-622.08 604.21,-629.41 602.99,-631.03 599.68,-637.89 596.76,-643.97 593.27,-650.5 590.12,-656.21"/>
</g>
<!-- 32 -->
<g id="node33" class="node">
<title>32</title>
<ellipse fill="#9ac0cd" stroke="black" cx="670.42" cy="-386.24" rx="20.6" ry="20.6"/>
<text text-anchor="middle" x="670.42" y="-382.54" font-family="Arial" font-size="14.00">32</text>
</g>
<!-- 4&#45;&#45;32 -->
<g id="edge2" class="edge">
<title>4&#45;&#45;32</title>
<path fill="none" stroke="green" stroke-width="2" d="M620.93,-516.04C621.98,-492.36 626.46,-450.51 644.18,-420.05 647.77,-413.88 652.36,-407.59 656.69,-402.13"/>
</g>
<!-- 47 -->
<g id="node48" class="node">
<title>47</title>
<ellipse fill="#68838b" stroke="black" cx="607.35" cy="-454.82" rx="20.6" ry="20.6"/>
<text text-anchor="middle" x="607.35" y="-451.12" font-family="Arial" font-size="14.00">47</text>
</g>
<!-- 4&#45;&#45;47 -->
<g id="edge3" class="edge">
<title>4&#45;&#45;47</title>
<path fill="none" stroke="green" stroke-width="2" d="M617.67,-516.29C615.64,-504.19 612.96,-488.23 610.84,-475.6"/>
</g>
<!-- 5 -->
<g id="node6" class="node">
<title>5</title>
<ellipse fill="lightblue" stroke="black" cx="663.18" cy="-139.18" rx="18" ry="18"/>
<text text-anchor="middle" x="663.18" y="-135.48" font-family="Arial" font-size="14.00">5</text>
</g>
<!-- 6 -->
<g id="node7" class="node">
<title>6</title>
<ellipse fill="#b2dfee" stroke="black" cx="620.6" cy="-185.31" rx="18" ry="18"/>
<text text-anchor="middle" x="620.6" y="-181.61" font-family="Arial" font-size="14.00">6</text>
</g>
<!-- 96 -->
<g id="node97" class="node">
<title>96</title>
<ellipse fill="skyblue" stroke="black" cx="551.83" cy="-256.01" rx="20.6" ry="20.6"/>
<text text-anchor="middle" x="551.83" y="-252.31" font-family="Arial" font-size="14.00">96</text>
</g>
<!-- 6&#45;&#45;96 -->
<g id="edge4" class="edge">
<title>6&#45;&#45;96</title>
<path fill="none" stroke="green" stroke-width="2" d="M607.95,-198.54C602.33,-204.39 595.63,-211.35 589.57,-217.59 582.01,-225.37 573.55,-233.99 566.56,-241.09"/>
</g>
<!-- 7 -->
<g id="node8" class="node">
<title>7</title>
<ellipse fill="lightblue" stroke="black" cx="216.73" cy="-421.57" rx="18" ry="18"/>
<text text-anchor="middle" x="216.73" y="-417.87" font-family="Arial" font-size="14.00">7</text>
</g>
<!-- 40 -->
<g id="node41" class="node">
<title>40</title>
<ellipse fill="red" stroke="black" cx="583.91" cy="-621.99" rx="20.6" ry="20.6"/>
<text text-anchor="middle" x="583.91" y="-618.29" font-family="Arial" font-size="14.00" fill="white">40</text>
</g>
<!-- 8&#45;&#45;40 -->
<g id="edge5" class="edge">
<title>8&#45;&#45;40</title>
<path fill="none" stroke="green" stroke-width="2" d="M582.08,-653.94C582.29,-650.36 582.51,-646.57 582.72,-642.9"/>
</g>
<!-- 9 -->
<g id="node10" class="node">
<title>9</title>
<ellipse fill="#b2dfee" stroke="black" cx="665.4" cy="-284.8" rx="18" ry="18"/>
<text text-anchor="middle" x="665.4" y="-281.1" font-family="Arial" font-size="14.00">9</text>
</g>
<!-- 81 -->
<g id="node82" class="node">
<title>81</title>
<ellipse fill="skyblue" stroke="black" cx="658.48" cy="-335.27" rx="20.6" ry="20.6"/>
<text text-anchor="middle" x="658.48" y="-331.57" font-family="Arial" font-size="14.00">81</text>
</g>
<!-- 9&#45;&#45;81 -->
<g id="edge6" class="edge">
<title>9&#45;&#45;81</title>
<path fill="none" stroke="green" stroke-width="2" d="M662.94,-302.73C662.41,-306.59 661.85,-310.69 661.31,-314.63"/>
</g>
<!-- 10 -->
<g id="node11" class="node">
<title>10</title>
<ellipse fill="#b2dfee" stroke="black" cx="250.26" cy="-593.41" rx="20.6" ry="20.6"/>
<text text-anchor="middle" x="250.26" y="-589.71" font-family="Arial" font-size="14.00">10</text>
</g>
<!-- 76 -->
<g id="node77" class="node">
<title>76</title>
<ellipse fill="#9ac0cd" stroke="black" cx="200.61" cy="-642.13" rx="20.6" ry="20.6"/>
<text text-anchor="middle" x="200.61" y="-638.43" font-family="Arial" font-size="14.00">76</text>
</g>
<!-- 10&#45;&#45;76 -->
<g id="edge7" class="edge">
<title>10&#45;&#45;76</title>
<path fill="none" stroke="green" stroke-width="2" d="M235.36,-608.03C229.08,-614.19 221.78,-621.36 215.49,-627.52"/>
</g>
<!-- 11 -->
<g id="node12" class="node">
<title>11</title>
<ellipse fill="#b2dfee" stroke="black" cx="84.57" cy="-269.84" rx="20.6" ry="20.6"/>
<text text-anchor="middle" x="84.57" y="-266.14" font-family="Arial" font-size="14.00">11</text>
</g>
<!-- 91 -->
<g id="node92" class="node">
<title>91</title>
<ellipse fill="skyblue" stroke="black" cx="107.93" cy="-464.1" rx="20.6" ry="20.6"/>
<text text-anchor="middle" x="107.93" y="-460.4" font-family="Arial" font-size="14.00">91</text>
</g>
<!-- 11&#45;&#45;91 -->
<g id="edge8" class="edge">
<title>11&#45;&#45;91</title>
<path fill="none" stroke="green" stroke-width="2" d="M75.68,-288.71C72.14,-297.79 68.84,-308.96 68.6,-319.46 67.54,-365.77 86.97,-417.6 98.91,-444.89"/>
</g>
<!-- 12 -->
<g id="node13" class="node">
<title>12</title>
<ellipse fill="#b2dfee" stroke="black" cx="667.52" cy="-577.67" rx="20.6" ry="20.6"/>
<text text-anchor="middle" x="667.52" y="-573.97" font-family="Arial" font-size="14.00">12</text>
</g>
<!-- 12&#45;&#45;40 -->
<g id="edge9" class="edge">
<title>12&#45;&#45;40</title>
<path fill="none" stroke="green" stroke-width="2" d="M648.96,-587.5C635.11,-594.85 616.26,-604.84 602.42,-612.18"/>
</g>
<!-- 13 -->
<g id="node14" class="node">
<title>13</title>
<ellipse fill="#b2dfee" stroke="black" cx="91" cy="-319.47" rx="20.6" ry="20.6"/>
<text text-anchor="middle" x="91" y="-315.77" font-family="Arial" font-size="14.00">13</text>
</g>
<!-- 45 -->
<g id="node46" class="node">
<title>45</title>
<ellipse fill="#68838b" stroke="black" cx="450.29" cy="-525.64" rx="20.6" ry="20.6"/>
<text text-anchor="middle" x="450.29" y="-521.94" font-family="Arial" font-size="14.00">45</text>
</g>
<!-- 13&#45;&#45;45 -->
<g id="edge10" class="edge">
<title>13&#45;&#45;45</title>
<path fill="none" stroke="green" stroke-width="2" d="M109.87,-328.28C122.28,-334.48 138.56,-343.43 151.57,-353.4 163.68,-362.67 163.12,-369.11 175.54,-377.95 189.28,-387.72 298.66,-433.36 312.86,-442.46 348.06,-465.01 349.09,-481.32 384.78,-503.09 398.74,-511.61 416.36,-517.44 429.81,-521.04"/>
</g>
<!-- 14 -->
<g id="node15" class="node">
<title>14</title>
<ellipse fill="lightblue" stroke="black" cx="121.81" cy="-136.41" rx="20.6" ry="20.6"/>
<text text-anchor="middle" x="121.81" y="-132.71" font-family="Arial" font-size="14.00">14</text>
</g>
<!-- 15 -->
<g id="node16" class="node">
<title>15</title>
<ellipse fill="#b2dfee" stroke="black" cx="534.2" cy="-669.01" rx="20.6" ry="20.6"/>
<text text-anchor="middle" x="534.2" y="-665.31" font-family="Arial" font-size="14.00">15</text>
</g>
<!-- 77 -->
<g id="node78" class="node">
<title>77</title>
<ellipse fill="skyblue" stroke="black" cx="426.79" cy="-623.45" rx="20.6" ry="20.6"/>
<text text-anchor="middle" x="426.79" y="-619.75" font-family="Arial" font-size="14.00">77</text>
</g>
<!-- 15&#45;&#45;77 -->
<g id="edge11" class="edge">
<title>15&#45;&#45;77</title>
<path fill="none" stroke="green" stroke-width="2" d="M515,-660.87C495.57,-652.62 465.69,-639.95 446.19,-631.67"/>
</g>
<!-- 16 -->
<g id="node17" class="node">
<title>16</title>
<ellipse fill="#b2dfee" stroke="black" cx="436" cy="-356.34" rx="20.6" ry="20.6"/>
<text text-anchor="middle" x="436" y="-352.64" font-family="Arial" font-size="14.00">16</text>
</g>
<!-- 34 -->
<g id="node35" class="node">
<title>34</title>
<ellipse fill="#68838b" stroke="black" cx="660.01" cy="-435.9" rx="20.6" ry="20.6"/>
<text text-anchor="middle" x="660.01" y="-432.2" font-family="Arial" font-size="14.00">34</text>
</g>
<!-- 16&#45;&#45;34 -->
<g id="edge12" class="edge">
<title>16&#45;&#45;34</title>
<path fill="none" stroke="green" stroke-width="2" d="M455.1,-364.74C464.22,-368.62 475.33,-373.17 485.47,-376.81 492.6,-379.38 494.56,-379.48 501.76,-381.82 551.75,-398.03 610.16,-418.36 640.09,-428.87"/>
</g>
<!-- 17 -->
<g id="node18" class="node">
<title>17</title>
<ellipse fill="#b2dfee" stroke="black" cx="573.76" cy="-201.72" rx="20.6" ry="20.6"/>
<text text-anchor="middle" x="573.76" y="-198.02" font-family="Arial" font-size="14.00">17</text>
</g>
<!-- 17&#45;&#45;32 -->
<g id="edge13" class="edge">
<title>17&#45;&#45;32</title>
<path fill="none" stroke="green" stroke-width="2" d="M577.37,-222.31C580.56,-239.15 585.73,-263.48 592.28,-284.19 603.85,-320.78 635.14,-354.27 654.44,-372.31"/>
</g>
<!-- 18 -->
<g id="node19" class="node">
<title>18</title>
<ellipse fill="lightblue" stroke="black" cx="437.22" cy="-21.08" rx="20.6" ry="20.6"/>
<text text-anchor="middle" x="437.22" y="-17.38" font-family="Arial" font-size="14.00">18</text>
</g>
<!-- 19 -->
<g id="node20" class="node">
<title>19</title>
<ellipse fill="lightblue" stroke="black" cx="177.77" cy="-136.4" rx="20.6" ry="20.6"/>
<text text-anchor="middle" x="177.77" y="-132.7" font-family="Arial" font-size="14.00">19</text>
</g>
<!-- 20 -->
<g id="node21" class="node">
<title>20</title>
<ellipse fill="#b2dfee" stroke="black" cx="156.77" cy="-518.81" rx="20.6" ry="20.6"/>
<text text-anchor="middle" x="156.77" y="-515.11" font-family="Arial" font-size="14.00">20</text>
</g>
<!-- 20&#45;&#45;91 -->
<g id="edge14" class="edge">
<title>20&#45;&#45;91</title>
<path fill="none" stroke="green" stroke-width="2" d="M142.9,-503.27C136.36,-495.95 128.57,-487.21 122,-479.86"/>
</g>
<!-- 21 -->
<g id="node22" class="node">
<title>21</title>
<ellipse fill="lightblue" stroke="black" cx="281.21" cy="-58.65" rx="20.6" ry="20.6"/>
<text text-anchor="middle" x="281.21" y="-54.95" font-family="Arial" font-size="14.00">21</text>
</g>
<!-- 22 -->
<g id="node23" class="node">
<title>22</title>
<ellipse fill="lightblue" stroke="black" cx="191.38" cy="-362.11" rx="20.6" ry="20.6"/>
<text text-anchor="middle" x="191.38" y="-358.41" font-family="Arial" font-size="14.00">22</text>
</g>
<!-- 23 -->
<g id="node24" class="node">
<title>23</title>
<ellipse fill="lightblue" stroke="black" cx="83.86" cy="-194.53" rx="20.6" ry="20.6"/>
<text text-anchor="middle" x="83.86" y="-190.83" font-family="Arial" font-size="14.00">23</text>
</g>
<!-- 24 -->
<g id="node25" class="node">
<title>24</title>
<ellipse fill="lightblue" stroke="black" cx="39.5" cy="-554.42" rx="20.6" ry="20.6"/>
<text text-anchor="middle" x="39.5" y="-550.72" font-family="Arial" font-size="14.00">24</text>
</g>
<!-- 25 -->
<g id="node26" class="node">
<title>25</title>
<ellipse fill="#b2dfee" stroke="black" cx="89.19" cy="-514.1" rx="20.6" ry="20.6"/>
<text text-anchor="middle" x="89.19" y="-510.4" font-family="Arial" font-size="14.00">25</text>
</g>
<!-- 44 -->
<g id="node45" class="node">
<title>44</title>
<ellipse fill="#68838b" stroke="black" cx="113.49" cy="-568.44" rx="20.6" ry="20.6"/>
<text text-anchor="middle" x="113.49" y="-564.74" font-family="Arial" font-size="14.00">44</text>
</g>
<!-- 25&#45;&#45;44 -->
<g id="edge15" class="edge">
<title>25&#45;&#45;44</title>
<path fill="none" stroke="green" stroke-width="2" d="M97.69,-533.1C100.04,-538.37 102.6,-544.09 104.95,-549.36"/>
</g>
<!-- 26 -->
<g id="node27" class="node">
<title>26</title>
<ellipse fill="#b2dfee" stroke="black" cx="332.65" cy="-278.23" rx="20.6" ry="20.6"/>
<text text-anchor="middle" x="332.65" y="-274.53" font-family="Arial" font-size="14.00">26</text>
</g>
<!-- 26&#45;&#45;45 -->
<g id="edge16" class="edge">
<title>26&#45;&#45;45</title>
<path fill="none" stroke="green" stroke-width="2" d="M341.69,-297.23C363.59,-343.28 419.3,-460.45 441.23,-506.57"/>
</g>
<!-- 27 -->
<g id="node28" class="node">
<title>27</title>
<ellipse fill="skyblue" stroke="black" cx="228.37" cy="-476.83" rx="20.6" ry="20.6"/>
<text text-anchor="middle" x="228.37" y="-473.13" font-family="Arial" font-size="14.00">27</text>
</g>
<!-- 35 -->
<g id="node36" class="node">
<title>35</title>
<ellipse fill="#b2dfee" stroke="black" cx="629.55" cy="-232.15" rx="20.6" ry="20.6"/>
<text text-anchor="middle" x="629.55" y="-228.45" font-family="Arial" font-size="14.00">35</text>
</g>
<!-- 27&#45;&#45;35 -->
<g id="edge17" class="edge">
<title>27&#45;&#45;35</title>
<path fill="none" stroke="green" stroke-width="2" d="M246.08,-465.18C267.56,-451.03 301.63,-428.54 307.46,-424.45 358.6,-388.5 366.56,-372.42 420.25,-340.41 482.24,-303.45 504.29,-306.78 567.52,-271.99 583.11,-263.42 600.06,-252.41 612.29,-244.14"/>
</g>
<!-- 42 -->
<g id="node43" class="node">
<title>42</title>
<ellipse fill="skyblue" stroke="black" cx="400.66" cy="-544.06" rx="20.6" ry="20.6"/>
<text text-anchor="middle" x="400.66" y="-540.36" font-family="Arial" font-size="14.00">42</text>
</g>
<!-- 27&#45;&#45;42 -->
<g id="edge18" class="edge">
<title>27&#45;&#45;42</title>
<path fill="none" stroke="green" stroke-width="2" d="M249.41,-479.36C258.35,-480.71 268.83,-482.66 278.08,-485.35 317.28,-496.74 359.48,-519.54 382.73,-533.14"/>
</g>
<!-- 64 -->
<g id="node65" class="node">
<title>64</title>
<ellipse fill="#b2dfee" stroke="black" cx="84.5" cy="-618.05" rx="20.6" ry="20.6"/>
<text text-anchor="middle" x="84.5" y="-614.35" font-family="Arial" font-size="14.00">64</text>
</g>
<!-- 27&#45;&#45;64 -->
<g id="edge19" class="edge">
<title>27&#45;&#45;64</title>
<path fill="none" stroke="green" stroke-width="2" d="M214.48,-492.59C191.62,-518.41 146.83,-568.45 129.23,-584.39 120.72,-592.08 110.56,-599.83 102.07,-605.96"/>
</g>
<!-- 83 -->
<g id="node84" class="node">
<title>83</title>
<ellipse fill="#b2dfee" stroke="black" cx="157.71" cy="-418.72" rx="20.6" ry="20.6"/>
<text text-anchor="middle" x="157.71" y="-415.02" font-family="Arial" font-size="14.00">83</text>
</g>
<!-- 27&#45;&#45;83 -->
<g id="edge20" class="edge">
<title>27&#45;&#45;83</title>
<path fill="none" stroke="green" stroke-width="2" d="M211.98,-463.36C200.57,-453.97 185.41,-441.5 174.01,-432.13"/>
</g>
<!-- 98 -->
<g id="node99" class="node">
<title>98</title>
<ellipse fill="#b2dfee" stroke="black" cx="296.86" cy="-458.14" rx="20.6" ry="20.6"/>
<text text-anchor="middle" x="296.86" y="-454.44" font-family="Arial" font-size="14.00">98</text>
</g>
<!-- 27&#45;&#45;98 -->
<g id="edge21" class="edge">
<title>27&#45;&#45;98</title>
<path fill="none" stroke="green" stroke-width="2" d="M248.55,-471.33C257.39,-468.91 267.74,-466.09 276.59,-463.67"/>
</g>
<!-- 28 -->
<g id="node29" class="node">
<title>28</title>
<ellipse fill="#b2dfee" stroke="black" cx="552.73" cy="-494.76" rx="20.6" ry="20.6"/>
<text text-anchor="middle" x="552.73" y="-491.06" font-family="Arial" font-size="14.00">28</text>
</g>
<!-- 60 -->
<g id="node61" class="node">
<title>60</title>
<ellipse fill="#9ac0cd" stroke="black" cx="503.1" cy="-513.2" rx="20.6" ry="20.6"/>
<text text-anchor="middle" x="503.1" y="-509.5" font-family="Arial" font-size="14.00">60</text>
</g>
<!-- 28&#45;&#45;60 -->
<g id="edge22" class="edge">
<title>28&#45;&#45;60</title>
<path fill="none" stroke="green" stroke-width="2" d="M533.11,-502.05C529.75,-503.3 526.26,-504.59 522.9,-505.84"/>
</g>
<!-- 29 -->
<g id="node30" class="node">
<title>29</title>
<ellipse fill="#b2dfee" stroke="black" cx="636.78" cy="-627.31" rx="20.6" ry="20.6"/>
<text text-anchor="middle" x="636.78" y="-623.61" font-family="Arial" font-size="14.00">29</text>
</g>
<!-- 84 -->
<g id="node85" class="node">
<title>84</title>
<ellipse fill="skyblue" stroke="black" cx="501.22" cy="-566.82" rx="20.6" ry="20.6"/>
<text text-anchor="middle" x="501.22" y="-563.12" font-family="Arial" font-size="14.00">84</text>
</g>
<!-- 29&#45;&#45;84 -->
<g id="edge23" class="edge">
<title>29&#45;&#45;84</title>
<path fill="none" stroke="green" stroke-width="2" d="M618.97,-616.57C612.97,-613.1 606.18,-609.35 599.82,-606.22 573.2,-593.1 541.06,-580.9 520.88,-573.65"/>
</g>
<!-- 30 -->
<g id="node31" class="node">
<title>30</title>
<ellipse fill="#b2dfee" stroke="black" cx="600.14" cy="-138.34" rx="20.6" ry="20.6"/>
<text text-anchor="middle" x="600.14" y="-134.64" font-family="Arial" font-size="14.00">30</text>
</g>
<!-- 30&#45;&#45;34 -->
<g id="edge24" class="edge">
<title>30&#45;&#45;34</title>
<path fill="none" stroke="green" stroke-width="2" d="M600.02,-159.39C600.11,-167.49 600.37,-176.82 601,-185.27 602.56,-206.14 601.83,-211.72 607.15,-231.96 609.09,-239.32 609.68,-241.3 613.57,-247.85 619.63,-258.02 624.43,-258.24 630.53,-268.38 634.45,-274.91 635.66,-276.74 637.07,-284.23 641.25,-306.43 633.71,-312.59 636.08,-335.06 638.53,-358.19 642.65,-363.39 648.02,-386.02 650.32,-395.73 652.9,-406.49 655.08,-415.53"/>
</g>
<!-- 31 -->
<g id="node32" class="node">
<title>31</title>
<ellipse fill="#b2dfee" stroke="black" cx="584.89" cy="-336.66" rx="20.6" ry="20.6"/>
<text text-anchor="middle" x="584.89" y="-332.96" font-family="Arial" font-size="14.00">31</text>
</g>
<!-- 31&#45;&#45;81 -->
<g id="edge25" class="edge">
<title>31&#45;&#45;81</title>
<path fill="none" stroke="green" stroke-width="2" d="M605.78,-336.27C615.73,-336.08 627.59,-335.85 637.54,-335.67"/>
</g>
<!-- 33 -->
<g id="node34" class="node">
<title>33</title>
<ellipse fill="lightblue" stroke="black" cx="171.3" cy="-312.48" rx="20.6" ry="20.6"/>
<text text-anchor="middle" x="171.3" y="-308.78" font-family="Arial" font-size="14.00">33</text>
</g>
<!-- 39 -->
<g id="node40" class="node">
<title>39</title>
<ellipse fill="#68838b" stroke="black" cx="573.84" cy="-544.39" rx="20.6" ry="20.6"/>
<text text-anchor="middle" x="573.84" y="-540.69" font-family="Arial" font-size="14.00">39</text>
</g>
<!-- 34&#45;&#45;39 -->
<g id="edge26" class="edge">
<title>34&#45;&#45;39</title>
<path fill="none" stroke="green" stroke-width="2" d="M646.92,-452.38C630.72,-472.77 603.3,-507.29 587.05,-527.75"/>
</g>
<!-- 36 -->
<g id="node37" class="node">
<title>36</title>
<ellipse fill="skyblue" stroke="black" cx="535.24" cy="-352.84" rx="20.6" ry="20.6"/>
<text text-anchor="middle" x="535.24" y="-349.14" font-family="Arial" font-size="14.00">36</text>
</g>
<!-- 41 -->
<g id="node42" class="node">
<title>41</title>
<ellipse fill="#b2dfee" stroke="black" cx="501.65" cy="-404.22" rx="20.6" ry="20.6"/>
<text text-anchor="middle" x="501.65" y="-400.52" font-family="Arial" font-size="14.00">41</text>
</g>
<!-- 36&#45;&#45;41 -->
<g id="edge27" class="edge">
<title>36&#45;&#45;41</title>
<path fill="none" stroke="green" stroke-width="2" d="M523.68,-370.52C520.27,-375.75 516.53,-381.46 513.12,-386.68"/>
</g>
<!-- 49 -->
<g id="node50" class="node">
<title>49</title>
<ellipse fill="#9ac0cd" stroke="black" cx="463.5" cy="-458.48" rx="20.6" ry="20.6"/>
<text text-anchor="middle" x="463.5" y="-454.78" font-family="Arial" font-size="14.00">49</text>
</g>
<!-- 36&#45;&#45;49 -->
<g id="edge28" class="edge">
<title>36&#45;&#45;49</title>
<path fill="none" stroke="green" stroke-width="2" d="M516.88,-362.65C506.64,-368.87 494.31,-377.74 485.89,-388.3 474.58,-402.5 468.92,-422.54 466.13,-437.57"/>
</g>
<!-- 73 -->
<g id="node74" class="node">
<title>73</title>
<ellipse fill="#b2dfee" stroke="black" cx="524.15" cy="-177.96" rx="20.6" ry="20.6"/>
<text text-anchor="middle" x="524.15" y="-174.26" font-family="Arial" font-size="14.00">73</text>
</g>
<!-- 36&#45;&#45;73 -->
<g id="edge29" class="edge">
<title>36&#45;&#45;73</title>
<path fill="none" stroke="green" stroke-width="2" d="M533.9,-331.75C531.77,-298.04 527.6,-232.44 525.47,-198.86"/>
</g>
<!-- 74 -->
<g id="node75" class="node">
<title>74</title>
<ellipse fill="#b2dfee" stroke="black" cx="517.17" cy="-81.84" rx="20.6" ry="20.6"/>
<text text-anchor="middle" x="517.17" y="-78.14" font-family="Arial" font-size="14.00">74</text>
</g>
<!-- 36&#45;&#45;74 -->
<g id="edge30" class="edge">
<title>36&#45;&#45;74</title>
<path fill="none" stroke="green" stroke-width="2" d="M529.06,-332.87C519.62,-300.62 502.6,-234.91 501.75,-177.84 501.36,-151.51 507.17,-121.62 511.77,-102.29"/>
</g>
<!-- 87 -->
<g id="node88" class="node">
<title>87</title>
<ellipse fill="#b2dfee" stroke="black" cx="290.74" cy="-337.1" rx="20.6" ry="20.6"/>
<text text-anchor="middle" x="290.74" y="-333.4" font-family="Arial" font-size="14.00">87</text>
</g>
<!-- 36&#45;&#45;87 -->
<g id="edge31" class="edge">
<title>36&#45;&#45;87</title>
<path fill="none" stroke="green" stroke-width="2" d="M516.58,-342.71C507.56,-338.41 496.41,-333.95 485.78,-332.02 441.13,-323.9 429.6,-340.7 384.28,-343.24 370.63,-344 334.61,-341.12 311.46,-339.05"/>
</g>
<!-- 37 -->
<g id="node38" class="node">
<title>37</title>
<ellipse fill="#b2dfee" stroke="black" cx="34.89" cy="-610.46" rx="20.6" ry="20.6"/>
<text text-anchor="middle" x="34.89" y="-606.76" font-family="Arial" font-size="14.00">37</text>
</g>
<!-- 37&#45;&#45;91 -->
<g id="edge32" class="edge">
<title>37&#45;&#45;91</title>
<path fill="none" stroke="green" stroke-width="2" d="M44.66,-591.84C48.09,-585.13 51.9,-577.47 55.19,-570.4 58.41,-563.49 59.93,-561.99 61.9,-554.62 68.5,-529.9 59.08,-519.42 73.4,-498.2 78.49,-490.66 85.43,-483.41 91.76,-477.55"/>
</g>
<!-- 38 -->
<g id="node39" class="node">
<title>38</title>
<ellipse fill="#b2dfee" stroke="black" cx="278.01" cy="-507.75" rx="20.6" ry="20.6"/>
<text text-anchor="middle" x="278.01" y="-504.05" font-family="Arial" font-size="14.00">38</text>
</g>
<!-- 57 -->
<g id="node58" class="node">
<title>57</title>
<ellipse fill="#9ac0cd" stroke="black" cx="349.81" cy="-438.54" rx="20.6" ry="20.6"/>
<text text-anchor="middle" x="349.81" y="-434.84" font-family="Arial" font-size="14.00">57</text>
</g>
<!-- 38&#45;&#45;57 -->
<g id="edge33" class="edge">
<title>38&#45;&#45;57</title>
<path fill="none" stroke="green" stroke-width="2" d="M293.24,-493.07C305.42,-481.33 322.42,-464.94 334.6,-453.2"/>
</g>
<!-- 39&#45;&#45;84 -->
<g id="edge34" class="edge">
<title>39&#45;&#45;84</title>
<path fill="none" stroke="green" stroke-width="2" d="M553.61,-550.64C543.54,-553.75 531.4,-557.5 521.34,-560.61"/>
</g>
<!-- 39&#45;&#45;96 -->
<g id="edge35" class="edge">
<title>39&#45;&#45;96</title>
<path fill="none" stroke="green" stroke-width="2" d="M574.97,-523.17C575.28,-514.4 575.46,-504.13 575.13,-494.85 572.24,-413.87 560.29,-318.07 554.72,-276.72"/>
</g>
<!-- 40&#45;&#45;77 -->
<g id="edge36" class="edge">
<title>40&#45;&#45;77</title>
<path fill="none" stroke="green" stroke-width="2" d="M563.05,-622.18C533,-622.46 477.84,-622.97 447.74,-623.25"/>
</g>
<!-- 40&#45;&#45;84 -->
<g id="edge37" class="edge">
<title>40&#45;&#45;84</title>
<path fill="none" stroke="green" stroke-width="2" d="M566.38,-610.29C552.34,-600.93 532.76,-587.86 518.74,-578.5"/>
</g>
<!-- 42&#45;&#45;45 -->
<g id="edge38" class="edge">
<title>42&#45;&#45;45</title>
<path fill="none" stroke="green" stroke-width="2" d="M420.28,-536.78C423.64,-535.53 427.13,-534.23 430.5,-532.99"/>
</g>
<!-- 42&#45;&#45;57 -->
<g id="edge39" class="edge">
<title>42&#45;&#45;57</title>
<path fill="none" stroke="green" stroke-width="2" d="M391.57,-525.19C382.37,-506.11 368.22,-476.76 358.99,-457.6"/>
</g>
<!-- 42&#45;&#45;77 -->
<g id="edge40" class="edge">
<title>42&#45;&#45;77</title>
<path fill="none" stroke="green" stroke-width="2" d="M407.26,-564.09C411.22,-576.13 416.24,-591.39 420.2,-603.42"/>
</g>
<!-- 43 -->
<g id="node44" class="node">
<title>43</title>
<ellipse fill="lightblue" stroke="black" cx="133.66" cy="-192.5" rx="20.6" ry="20.6"/>
<text text-anchor="middle" x="133.66" y="-188.8" font-family="Arial" font-size="14.00">43</text>
</g>
<!-- 58 -->
<g id="node59" class="node">
<title>58</title>
<ellipse fill="skyblue" stroke="black" cx="301.21" cy="-591.37" rx="20.6" ry="20.6"/>
<text text-anchor="middle" x="301.21" y="-587.67" font-family="Arial" font-size="14.00">58</text>
</g>
<!-- 44&#45;&#45;58 -->
<g id="edge41" class="edge">
<title>44&#45;&#45;58</title>
<path fill="none" stroke="green" stroke-width="2" d="M134.61,-566.51C161.72,-564.55 210.05,-562.85 250.34,-571.01 261.34,-573.24 273.01,-577.74 282.39,-581.94"/>
</g>
<!-- 90 -->
<g id="node91" class="node">
<title>90</title>
<ellipse fill="#b2dfee" stroke="black" cx="351.02" cy="-585.37" rx="20.6" ry="20.6"/>
<text text-anchor="middle" x="351.02" y="-581.67" font-family="Arial" font-size="14.00">90</text>
</g>
<!-- 44&#45;&#45;90 -->
<g id="edge42" class="edge">
<title>44&#45;&#45;90</title>
<path fill="none" stroke="green" stroke-width="2" d="M134.24,-566.38C169.07,-563.4 241.36,-559.22 301.42,-568.98 311.63,-570.63 322.58,-574.07 331.59,-577.36"/>
</g>
<!-- 46 -->
<g id="node47" class="node">
<title>46</title>
<ellipse fill="lightblue" stroke="black" cx="207.62" cy="-535.28" rx="20.6" ry="20.6"/>
<text text-anchor="middle" x="207.62" y="-531.58" font-family="Arial" font-size="14.00">46</text>
</g>
<!-- 48 -->
<g id="node49" class="node">
<title>48</title>
<ellipse fill="#b2dfee" stroke="black" cx="474.53" cy="-131.44" rx="20.6" ry="20.6"/>
<text text-anchor="middle" x="474.53" y="-127.74" font-family="Arial" font-size="14.00">48</text>
</g>
<!-- 47&#45;&#45;48 -->
<g id="edge43" class="edge">
<title>47&#45;&#45;48</title>
<path fill="none" stroke="green" stroke-width="2" d="M599.44,-435.56C575.87,-378.18 506.3,-208.79 482.56,-151.01"/>
</g>
<!-- 50 -->
<g id="node51" class="node">
<title>50</title>
<ellipse fill="#b2dfee" stroke="black" cx="485.62" cy="-354.42" rx="20.6" ry="20.6"/>
<text text-anchor="middle" x="485.62" y="-350.72" font-family="Arial" font-size="14.00">50</text>
</g>
<!-- 47&#45;&#45;50 -->
<g id="edge44" class="edge">
<title>47&#45;&#45;50</title>
<path fill="none" stroke="green" stroke-width="2" d="M591.19,-441.48C567.9,-422.28 525.17,-387.04 501.86,-367.8"/>
</g>
<!-- 49&#45;&#45;84 -->
<g id="edge45" class="edge">
<title>49&#45;&#45;84</title>
<path fill="none" stroke="green" stroke-width="2" d="M469.5,-478.54C472.69,-488.9 476.75,-501.72 480.7,-513.08 484.64,-524.4 489.4,-536.91 493.34,-547.02"/>
</g>
<!-- 51 -->
<g id="node52" class="node">
<title>51</title>
<ellipse fill="lightblue" stroke="black" cx="330.82" cy="-79.48" rx="20.6" ry="20.6"/>
<text text-anchor="middle" x="330.82" y="-75.78" font-family="Arial" font-size="14.00">51</text>
</g>
<!-- 52 -->
<g id="node53" class="node">
<title>52</title>
<ellipse fill="lightblue" stroke="black" cx="333.4" cy="-27.93" rx="20.6" ry="20.6"/>
<text text-anchor="middle" x="333.4" y="-24.23" font-family="Arial" font-size="14.00">52</text>
</g>
<!-- 53 -->
<g id="node54" class="node">
<title>53</title>
<ellipse fill="lightblue" stroke="black" cx="435.84" cy="-306.74" rx="20.6" ry="20.6"/>
<text text-anchor="middle" x="435.84" y="-303.04" font-family="Arial" font-size="14.00">53</text>
</g>
<!-- 54 -->
<g id="node55" class="node">
<title>54</title>
<ellipse fill="lightblue" stroke="black" cx="72.15" cy="-144.9" rx="20.6" ry="20.6"/>
<text text-anchor="middle" x="72.15" y="-141.2" font-family="Arial" font-size="14.00">54</text>
</g>
<!-- 55 -->
<g id="node56" class="node">
<title>55</title>
<ellipse fill="lightblue" stroke="black" cx="183.81" cy="-224.77" rx="20.6" ry="20.6"/>
<text text-anchor="middle" x="183.81" y="-221.07" font-family="Arial" font-size="14.00">55</text>
</g>
<!-- 56 -->
<g id="node57" class="node">
<title>56</title>
<ellipse fill="#b2dfee" stroke="black" cx="241.03" cy="-370.23" rx="20.6" ry="20.6"/>
<text text-anchor="middle" x="241.03" y="-366.53" font-family="Arial" font-size="14.00">56</text>
</g>
<!-- 56&#45;&#45;91 -->
<g id="edge46" class="edge">
<title>56&#45;&#45;91</title>
<path fill="none" stroke="green" stroke-width="2" d="M226.16,-384.93C208.07,-402.71 179.25,-430.77 173.43,-434.68 159.15,-444.28 141.23,-452.08 127.75,-457.23"/>
</g>
<!-- 58&#45;&#45;76 -->
<g id="edge47" class="edge">
<title>58&#45;&#45;76</title>
<path fill="none" stroke="green" stroke-width="2" d="M282.6,-600.89C277.26,-603.61 271.42,-606.58 266.04,-609.3 250.28,-617.27 232.34,-626.27 219.24,-632.82"/>
</g>
<!-- 79 -->
<g id="node80" class="node">
<title>79</title>
<ellipse fill="#b2dfee" stroke="black" cx="327.65" cy="-535.72" rx="20.6" ry="20.6"/>
<text text-anchor="middle" x="327.65" y="-532.02" font-family="Arial" font-size="14.00">79</text>
</g>
<!-- 58&#45;&#45;79 -->
<g id="edge48" class="edge">
<title>58&#45;&#45;79</title>
<path fill="none" stroke="green" stroke-width="2" d="M310.16,-572.53C312.92,-566.73 315.95,-560.35 318.71,-554.55"/>
</g>
<!-- 58&#45;&#45;84 -->
<g id="edge49" class="edge">
<title>58&#45;&#45;84</title>
<path fill="none" stroke="green" stroke-width="2" d="M317.58,-578.08C326.8,-571.66 338.88,-564.94 351.07,-562.97 372.85,-559.46 378.55,-565.64 400.59,-566.46 428.18,-567.48 460.05,-567.38 480.4,-567.15"/>
</g>
<!-- 59 -->
<g id="node60" class="node">
<title>59</title>
<ellipse fill="#9ac0cd" stroke="black" cx="400.66" cy="-487.3" rx="20.6" ry="20.6"/>
<text text-anchor="middle" x="400.66" y="-483.6" font-family="Arial" font-size="14.00">59</text>
</g>
<!-- 59&#45;&#45;77 -->
<g id="edge50" class="edge">
<title>59&#45;&#45;77</title>
<path fill="none" stroke="green" stroke-width="2" d="M409.84,-506.01C414.7,-516.87 420.24,-530.96 423.06,-544.13 427.25,-563.67 427.89,-586.52 427.66,-602.66"/>
</g>
<!-- 59&#45;&#45;81 -->
<g id="edge51" class="edge">
<title>59&#45;&#45;81</title>
<path fill="none" stroke="green" stroke-width="2" d="M414.71,-471.19C423.5,-461.86 435.47,-450.43 447.82,-442.49 468.76,-429.02 477.88,-434.36 501.54,-426.62 548.61,-411.2 555.21,-395.75 597.71,-370.32 611.92,-361.82 628.18,-352.46 640.31,-345.55"/>
</g>
<!-- 60&#45;&#45;84 -->
<g id="edge52" class="edge">
<title>60&#45;&#45;84</title>
<path fill="none" stroke="green" stroke-width="2" d="M502.37,-534.09C502.23,-537.97 502.09,-542.02 501.96,-545.91"/>
</g>
<!-- 61 -->
<g id="node62" class="node">
<title>61</title>
<ellipse fill="lightblue" stroke="black" cx="423.35" cy="-257.1" rx="20.6" ry="20.6"/>
<text text-anchor="middle" x="423.35" y="-253.4" font-family="Arial" font-size="14.00">61</text>
</g>
<!-- 62 -->
<g id="node63" class="node">
<title>62</title>
<ellipse fill="lightblue" stroke="black" cx="233.42" cy="-264.19" rx="20.6" ry="20.6"/>
<text text-anchor="middle" x="233.42" y="-260.49" font-family="Arial" font-size="14.00">62</text>
</g>
<!-- 63 -->
<g id="node64" class="node">
<title>63</title>
<ellipse fill="lightblue" stroke="black" cx="380.46" cy="-128.25" rx="20.6" ry="20.6"/>
<text text-anchor="middle" x="380.46" y="-124.55" font-family="Arial" font-size="14.00">63</text>
</g>
<!-- 65 -->
<g id="node66" class="node">
<title>65</title>
<ellipse fill="#b2dfee" stroke="black" cx="614.67" cy="-284.21" rx="20.6" ry="20.6"/>
<text text-anchor="middle" x="614.67" y="-280.51" font-family="Arial" font-size="14.00">65</text>
</g>
<!-- 65&#45;&#45;81 -->
<g id="edge53" class="edge">
<title>65&#45;&#45;81</title>
<path fill="none" stroke="green" stroke-width="2" d="M628.29,-300.08C633.52,-306.17 639.48,-313.12 644.72,-319.23"/>
</g>
<!-- 66 -->
<g id="node67" class="node">
<title>66</title>
<ellipse fill="lightblue" stroke="black" cx="132.3" cy="-86.53" rx="20.6" ry="20.6"/>
<text text-anchor="middle" x="132.3" y="-82.83" font-family="Arial" font-size="14.00">66</text>
</g>
<!-- 67 -->
<g id="node68" class="node">
<title>67</title>
<ellipse fill="lightblue" stroke="black" cx="34.14" cy="-241.81" rx="20.6" ry="20.6"/>
<text text-anchor="middle" x="34.14" y="-238.11" font-family="Arial" font-size="14.00">67</text>
</g>
<!-- 68 -->
<g id="node69" class="node">
<title>68</title>
<ellipse fill="#9ac0cd" stroke="black" cx="135.61" cy="-369.12" rx="20.6" ry="20.6"/>
<text text-anchor="middle" x="135.61" y="-365.42" font-family="Arial" font-size="14.00">68</text>
</g>
<!-- 68&#45;&#45;77 -->
<g id="edge54" class="edge">
<title>68&#45;&#45;77</title>
<path fill="none" stroke="green" stroke-width="2" d="M151.53,-382.59C158.49,-388.66 166.65,-396.02 173.68,-403.01 187.36,-416.62 187.84,-423.01 202.73,-435.29 216.82,-446.91 329.82,-507.97 343.57,-519.98 373.45,-546.04 400.74,-583.79 415.44,-605.76"/>
</g>
<!-- 68&#45;&#45;91 -->
<g id="edge55" class="edge">
<title>68&#45;&#45;91</title>
<path fill="none" stroke="green" stroke-width="2" d="M129.74,-389.26C125.04,-405.38 118.49,-427.87 113.79,-443.98"/>
</g>
<!-- 69 -->
<g id="node70" class="node">
<title>69</title>
<ellipse fill="lightblue" stroke="black" cx="613.44" cy="-386.26" rx="20.6" ry="20.6"/>
<text text-anchor="middle" x="613.44" y="-382.56" font-family="Arial" font-size="14.00">69</text>
</g>
<!-- 70 -->
<g id="node71" class="node">
<title>70</title>
<ellipse fill="lightblue" stroke="black" cx="291.72" cy="-408.51" rx="20.6" ry="20.6"/>
<text text-anchor="middle" x="291.72" y="-404.81" font-family="Arial" font-size="14.00">70</text>
</g>
<!-- 71 -->
<g id="node72" class="node">
<title>71</title>
<ellipse fill="lightblue" stroke="black" cx="308.35" cy="-151.94" rx="20.6" ry="20.6"/>
<text text-anchor="middle" x="308.35" y="-148.24" font-family="Arial" font-size="14.00">71</text>
</g>
<!-- 72 -->
<g id="node73" class="node">
<title>72</title>
<ellipse fill="lightblue" stroke="black" cx="231.61" cy="-55.27" rx="20.6" ry="20.6"/>
<text text-anchor="middle" x="231.61" y="-51.57" font-family="Arial" font-size="14.00">72</text>
</g>
<!-- 75 -->
<g id="node76" class="node">
<title>75</title>
<ellipse fill="#b2dfee" stroke="black" cx="373.7" cy="-223.39" rx="20.6" ry="20.6"/>
<text text-anchor="middle" x="373.7" y="-219.69" font-family="Arial" font-size="14.00">75</text>
</g>
<!-- 75&#45;&#45;96 -->
<g id="edge56" class="edge">
<title>75&#45;&#45;96</title>
<path fill="none" stroke="green" stroke-width="2" d="M394.48,-227.19C428.81,-233.48 496.95,-245.96 531.18,-252.23"/>
</g>
<!-- 97 -->
<g id="node98" class="node">
<title>97</title>
<ellipse fill="#b2dfee" stroke="black" cx="476.43" cy="-671.21" rx="20.6" ry="20.6"/>
<text text-anchor="middle" x="476.43" y="-667.51" font-family="Arial" font-size="14.00">97</text>
</g>
<!-- 77&#45;&#45;97 -->
<g id="edge57" class="edge">
<title>77&#45;&#45;97</title>
<path fill="none" stroke="green" stroke-width="2" d="M441.95,-638.04C448.11,-643.96 455.21,-650.79 461.36,-656.71"/>
</g>
<!-- 78 -->
<g id="node79" class="node">
<title>78</title>
<ellipse fill="#b2dfee" stroke="black" cx="424.89" cy="-177.86" rx="20.6" ry="20.6"/>
<text text-anchor="middle" x="424.89" y="-174.16" font-family="Arial" font-size="14.00">78</text>
</g>
<!-- 78&#45;&#45;96 -->
<g id="edge58" class="edge">
<title>78&#45;&#45;96</title>
<path fill="none" stroke="green" stroke-width="2" d="M442.81,-188.89C467,-203.79 509.86,-230.17 534,-245.03"/>
</g>
<!-- 80 -->
<g id="node81" class="node">
<title>80</title>
<ellipse fill="lightblue" stroke="black" cx="73.47" cy="-58.97" rx="20.6" ry="20.6"/>
<text text-anchor="middle" x="73.47" y="-55.27" font-family="Arial" font-size="14.00">80</text>
</g>
<!-- 82 -->
<g id="node83" class="node">
<title>82</title>
<ellipse fill="lightblue" stroke="black" cx="181.95" cy="-70.88" rx="20.6" ry="20.6"/>
<text text-anchor="middle" x="181.95" y="-67.18" font-family="Arial" font-size="14.00">82</text>
</g>
<!-- 85 -->
<g id="node86" class="node">
<title>85</title>
<ellipse fill="lightblue" stroke="black" cx="384.42" cy="-320.84" rx="20.6" ry="20.6"/>
<text text-anchor="middle" x="384.42" y="-317.14" font-family="Arial" font-size="14.00">85</text>
</g>
<!-- 86 -->
<g id="node87" class="node">
<title>86</title>
<ellipse fill="lightblue" stroke="black" cx="22.52" cy="-103.91" rx="20.6" ry="20.6"/>
<text text-anchor="middle" x="22.52" y="-100.21" font-family="Arial" font-size="14.00">86</text>
</g>
<!-- 88 -->
<g id="node89" class="node">
<title>88</title>
<ellipse fill="lightblue" stroke="black" cx="441.35" cy="-405.99" rx="20.6" ry="20.6"/>
<text text-anchor="middle" x="441.35" y="-402.29" font-family="Arial" font-size="14.00">88</text>
</g>
<!-- 89 -->
<g id="node90" class="node">
<title>89</title>
<ellipse fill="#b2dfee" stroke="black" cx="20.98" cy="-660.1" rx="20.6" ry="20.6"/>
<text text-anchor="middle" x="20.98" y="-656.4" font-family="Arial" font-size="14.00">89</text>
</g>
<!-- 89&#45;&#45;91 -->
<g id="edge59" class="edge">
<title>89&#45;&#45;91</title>
<path fill="none" stroke="green" stroke-width="2" d="M35.56,-644.89C40.6,-639.3 46.1,-632.77 50.61,-626.42 67.04,-603.27 107.02,-542.19 111.58,-514.17 113.16,-504.54 112.65,-493.75 111.59,-484.66"/>
</g>
<!-- 95 -->
<g id="node96" class="node">
<title>95</title>
<ellipse fill="#b2dfee" stroke="black" cx="178.76" cy="-469.15" rx="20.6" ry="20.6"/>
<text text-anchor="middle" x="178.76" y="-465.45" font-family="Arial" font-size="14.00">95</text>
</g>
<!-- 91&#45;&#45;95 -->
<g id="edge60" class="edge">
<title>91&#45;&#45;95</title>
<path fill="none" stroke="green" stroke-width="2" d="M128.8,-465.59C137.94,-466.24 148.64,-467 157.79,-467.65"/>
</g>
<!-- 92 -->
<g id="node93" class="node">
<title>92</title>
<ellipse fill="lightblue" stroke="black" cx="134.2" cy="-255.13" rx="20.6" ry="20.6"/>
<text text-anchor="middle" x="134.2" y="-251.43" font-family="Arial" font-size="14.00">92</text>
</g>
<!-- 93 -->
<g id="node94" class="node">
<title>93</title>
<ellipse fill="lightblue" stroke="black" cx="695.79" cy="-236.72" rx="20.6" ry="20.6"/>
<text text-anchor="middle" x="695.79" y="-233.02" font-family="Arial" font-size="14.00">93</text>
</g>
<!-- 94 -->
<g id="node95" class="node">
<title>94</title>
<ellipse fill="lightblue" stroke="black" cx="244.58" cy="-151.42" rx="20.6" ry="20.6"/>
<text text-anchor="middle" x="244.58" y="-147.72" font-family="Arial" font-size="14.00">94</text>
</g>
<!-- 99 -->
<g id="node100" class="node">
<title>99</title>
<ellipse fill="lightblue" stroke="black" cx="283.04" cy="-271.12" rx="20.6" ry="20.6"/>
<text text-anchor="middle" x="283.04" y="-267.42" font-family="Arial" font-size="14.00">99</text>
</g>
</g>
</svg>
