<?xml version="1.0" encoding="UTF-8" standalone="no"?>
<!DOCTYPE svg PUBLIC "-//W3C//DTD SVG 1.1//EN"
 "http://www.w3.org/Graphics/SVG/1.1/DTD/svg11.dtd">
<!-- Generated by graphviz version 2.43.0 (0)
 -->
<!-- Title: Exp_a0_001_b3_0_maxDist30_tree Pages: 1 -->
<svg width="773pt" height="718pt"
 viewBox="0.00 0.00 773.00 718.00" xmlns="http://www.w3.org/2000/svg" xmlns:xlink="http://www.w3.org/1999/xlink">
<g id="graph0" class="graph" transform="scale(1 1) rotate(0) translate(4 714)">
<title>Exp_a0_001_b3_0_maxDist30_tree</title>
<polygon fill="white" stroke="transparent" points="-4,4 -4,-714 769,-714 769,4 -4,4"/>
<!-- 0 -->
<g id="node1" class="node">
<title>0</title>
<ellipse fill="lightblue" stroke="black" cx="455.8" cy="-41.55" rx="18" ry="18"/>
<text text-anchor="middle" x="455.8" y="-37.85" font-family="Arial" font-size="14.00">0</text>
</g>
<!-- 1 -->
<g id="node2" class="node">
<title>1</title>
<ellipse fill="skyblue" stroke="black" cx="352.46" cy="-361.14" rx="18" ry="18"/>
<text text-anchor="middle" x="352.46" y="-357.44" font-family="Arial" font-size="14.00">1</text>
</g>
<!-- 53 -->
<g id="node54" class="node">
<title>53</title>
<ellipse fill="#9ac0cd" stroke="black" cx="448.9" cy="-306.51" rx="20.6" ry="20.6"/>
<text text-anchor="middle" x="448.9" y="-302.81" font-family="Arial" font-size="14.00">53</text>
</g>
<!-- 1&#45;&#45;53 -->
<g id="edge1" class="edge">
<title>1&#45;&#45;53</title>
<path fill="none" stroke="green" stroke-width="2" d="M370.27,-357.75C383.43,-354.66 401.34,-349.17 415.01,-340.13 422.34,-335.29 429.41,-328.69 435.18,-322.62"/>
</g>
<!-- 56 -->
<g id="node57" class="node">
<title>56</title>
<ellipse fill="#68838b" stroke="black" cx="256.05" cy="-381.56" rx="20.6" ry="20.6"/>
<text text-anchor="middle" x="256.05" y="-377.86" font-family="Arial" font-size="14.00">56</text>
</g>
<!-- 1&#45;&#45;56 -->
<g id="edge2" class="edge">
<title>1&#45;&#45;56</title>
<path fill="none" stroke="green" stroke-width="2" d="M334.71,-366.11C325.96,-368.46 315.22,-371.2 305.5,-373.26 296.14,-375.25 285.69,-377.07 276.82,-378.49"/>
</g>
<!-- 85 -->
<g id="node86" class="node">
<title>85</title>
<ellipse fill="#b2dfee" stroke="black" cx="399.26" cy="-324.2" rx="20.6" ry="20.6"/>
<text text-anchor="middle" x="399.26" y="-320.5" font-family="Arial" font-size="14.00">85</text>
</g>
<!-- 1&#45;&#45;85 -->
<g id="edge3" class="edge">
<title>1&#45;&#45;85</title>
<path fill="none" stroke="green" stroke-width="2" d="M366.76,-349.86C371.81,-345.87 377.54,-341.35 382.76,-337.23"/>
</g>
<!-- 88 -->
<g id="node89" class="node">
<title>88</title>
<ellipse fill="#68838b" stroke="black" cx="460.44" cy="-405.83" rx="20.6" ry="20.6"/>
<text text-anchor="middle" x="460.44" y="-402.13" font-family="Arial" font-size="14.00">88</text>
</g>
<!-- 1&#45;&#45;88 -->
<g id="edge4" class="edge">
<title>1&#45;&#45;88</title>
<path fill="none" stroke="green" stroke-width="2" d="M369.33,-368.12C388.79,-376.17 420.7,-389.38 441.13,-397.84"/>
</g>
<!-- 2 -->
<g id="node3" class="node">
<title>2</title>
<ellipse fill="lightblue" stroke="black" cx="481.68" cy="-85.6" rx="18" ry="18"/>
<text text-anchor="middle" x="481.68" y="-81.9" font-family="Arial" font-size="14.00">2</text>
</g>
<!-- 3 -->
<g id="node4" class="node">
<title>3</title>
<ellipse fill="#9ac0cd" stroke="black" cx="403.75" cy="-647.91" rx="18" ry="18"/>
<text text-anchor="middle" x="403.75" y="-644.21" font-family="Arial" font-size="14.00">3</text>
</g>
<!-- 58 -->
<g id="node59" class="node">
<title>58</title>
<ellipse fill="#68838b" stroke="black" cx="322.38" cy="-600.33" rx="20.6" ry="20.6"/>
<text text-anchor="middle" x="322.38" y="-596.63" font-family="Arial" font-size="14.00">58</text>
</g>
<!-- 3&#45;&#45;58 -->
<g id="edge5" class="edge">
<title>3&#45;&#45;58</title>
<path fill="none" stroke="green" stroke-width="2" d="M388.06,-638.73C374.48,-630.79 354.84,-619.31 340.57,-610.97"/>
</g>
<!-- 77 -->
<g id="node78" class="node">
<title>77</title>
<ellipse fill="#68838b" stroke="black" cx="450.6" cy="-621.98" rx="20.6" ry="20.6"/>
<text text-anchor="middle" x="450.6" y="-618.28" font-family="Arial" font-size="14.00">77</text>
</g>
<!-- 3&#45;&#45;77 -->
<g id="edge6" class="edge">
<title>3&#45;&#45;77</title>
<path fill="none" stroke="green" stroke-width="2" d="M419.61,-639.13C423.65,-636.9 428.02,-634.48 432.17,-632.18"/>
</g>
<!-- 4 -->
<g id="node5" class="node">
<title>4</title>
<ellipse fill="#b2dfee" stroke="black" cx="671.01" cy="-547.84" rx="18" ry="18"/>
<text text-anchor="middle" x="671.01" y="-544.14" font-family="Arial" font-size="14.00">4</text>
</g>
<!-- 39 -->
<g id="node40" class="node">
<title>39</title>
<ellipse fill="#9ac0cd" stroke="black" cx="621.3" cy="-548.72" rx="20.6" ry="20.6"/>
<text text-anchor="middle" x="621.3" y="-545.02" font-family="Arial" font-size="14.00">39</text>
</g>
<!-- 4&#45;&#45;39 -->
<g id="edge7" class="edge">
<title>4&#45;&#45;39</title>
<path fill="none" stroke="green" stroke-width="2" d="M652.78,-548.16C649.35,-548.22 645.73,-548.29 642.22,-548.35"/>
</g>
<!-- 5 -->
<g id="node6" class="node">
<title>5</title>
<ellipse fill="lightblue" stroke="black" cx="713.59" cy="-147.77" rx="18" ry="18"/>
<text text-anchor="middle" x="713.59" y="-144.07" font-family="Arial" font-size="14.00">5</text>
</g>
<!-- 6 -->
<g id="node7" class="node">
<title>6</title>
<ellipse fill="lightblue" stroke="black" cx="673.1" cy="-191.85" rx="18" ry="18"/>
<text text-anchor="middle" x="673.1" y="-188.15" font-family="Arial" font-size="14.00">6</text>
</g>
<!-- 7 -->
<g id="node8" class="node">
<title>7</title>
<ellipse fill="#b2dfee" stroke="black" cx="246.5" cy="-437.52" rx="18" ry="18"/>
<text text-anchor="middle" x="246.5" y="-433.82" font-family="Arial" font-size="14.00">7</text>
</g>
<!-- 38 -->
<g id="node39" class="node">
<title>38</title>
<ellipse fill="skyblue" stroke="black" cx="298.62" cy="-510.33" rx="20.6" ry="20.6"/>
<text text-anchor="middle" x="298.62" y="-506.63" font-family="Arial" font-size="14.00">38</text>
</g>
<!-- 7&#45;&#45;38 -->
<g id="edge8" class="edge">
<title>7&#45;&#45;38</title>
<path fill="none" stroke="green" stroke-width="2" d="M257.05,-452.25C265.56,-464.14 277.53,-480.87 286.45,-493.32"/>
</g>
<!-- 8 -->
<g id="node9" class="node">
<title>8</title>
<ellipse fill="#9ac0cd" stroke="black" cx="593.89" cy="-691.83" rx="18" ry="18"/>
<text text-anchor="middle" x="593.89" y="-688.13" font-family="Arial" font-size="14.00">8</text>
</g>
<!-- 15 -->
<g id="node16" class="node">
<title>15</title>
<ellipse fill="#9ac0cd" stroke="black" cx="547.05" cy="-682.5" rx="20.6" ry="20.6"/>
<text text-anchor="middle" x="547.05" y="-678.8" font-family="Arial" font-size="14.00">15</text>
</g>
<!-- 8&#45;&#45;15 -->
<g id="edge9" class="edge">
<title>8&#45;&#45;15</title>
<path fill="none" stroke="green" stroke-width="2" d="M576.18,-688.3C573.39,-687.75 570.47,-687.17 567.62,-686.6"/>
</g>
<!-- 40 -->
<g id="node41" class="node">
<title>40</title>
<ellipse fill="#b2dfee" stroke="black" cx="609.24" cy="-645.01" rx="20.6" ry="20.6"/>
<text text-anchor="middle" x="609.24" y="-641.31" font-family="Arial" font-size="14.00">40</text>
</g>
<!-- 8&#45;&#45;40 -->
<g id="edge10" class="edge">
<title>8&#45;&#45;40</title>
<path fill="none" stroke="green" stroke-width="2" d="M599.52,-674.66C600.55,-671.53 601.62,-668.24 602.68,-665.03"/>
</g>
<!-- 9 -->
<g id="node10" class="node">
<title>9</title>
<ellipse fill="lightblue" stroke="black" cx="708.67" cy="-289.3" rx="18" ry="18"/>
<text text-anchor="middle" x="708.67" y="-285.6" font-family="Arial" font-size="14.00">9</text>
</g>
<!-- 10 -->
<g id="node11" class="node">
<title>10</title>
<ellipse fill="#9ac0cd" stroke="black" cx="272.75" cy="-630.59" rx="20.6" ry="20.6"/>
<text text-anchor="middle" x="272.75" y="-626.89" font-family="Arial" font-size="14.00">10</text>
</g>
<!-- 76 -->
<g id="node77" class="node">
<title>76</title>
<ellipse fill="#b2dfee" stroke="black" cx="220.27" cy="-679.31" rx="20.6" ry="20.6"/>
<text text-anchor="middle" x="220.27" y="-675.61" font-family="Arial" font-size="14.00">76</text>
</g>
<!-- 10&#45;&#45;76 -->
<g id="edge11" class="edge">
<title>10&#45;&#45;76</title>
<path fill="none" stroke="green" stroke-width="2" d="M257.29,-644.95C250.51,-651.23 242.58,-658.6 235.8,-664.89"/>
</g>
<!-- 79 -->
<g id="node80" class="node">
<title>79</title>
<ellipse fill="#68838b" stroke="black" cx="348.46" cy="-549.47" rx="20.6" ry="20.6"/>
<text text-anchor="middle" x="348.46" y="-545.77" font-family="Arial" font-size="14.00">79</text>
</g>
<!-- 10&#45;&#45;79 -->
<g id="edge12" class="edge">
<title>10&#45;&#45;79</title>
<path fill="none" stroke="green" stroke-width="2" d="M284.07,-613.12C290.27,-604.12 298.37,-593.2 306.69,-584.34 314.19,-576.36 323.47,-568.45 331.37,-562.19"/>
</g>
<!-- 11 -->
<g id="node12" class="node">
<title>11</title>
<ellipse fill="lightblue" stroke="black" cx="95.89" cy="-285.09" rx="20.6" ry="20.6"/>
<text text-anchor="middle" x="95.89" y="-281.39" font-family="Arial" font-size="14.00">11</text>
</g>
<!-- 12 -->
<g id="node13" class="node">
<title>12</title>
<ellipse fill="#9ac0cd" stroke="black" cx="673.09" cy="-594.65" rx="20.6" ry="20.6"/>
<text text-anchor="middle" x="673.09" y="-590.95" font-family="Arial" font-size="14.00">12</text>
</g>
<!-- 29 -->
<g id="node30" class="node">
<title>29</title>
<ellipse fill="#b2dfee" stroke="black" cx="658.87" cy="-644.28" rx="20.6" ry="20.6"/>
<text text-anchor="middle" x="658.87" y="-640.58" font-family="Arial" font-size="14.00">29</text>
</g>
<!-- 12&#45;&#45;29 -->
<g id="edge13" class="edge">
<title>12&#45;&#45;29</title>
<path fill="none" stroke="green" stroke-width="2" d="M667.3,-614.83C666.41,-617.95 665.49,-621.16 664.6,-624.27"/>
</g>
<!-- 84 -->
<g id="node85" class="node">
<title>84</title>
<ellipse fill="skyblue" stroke="black" cx="527.04" cy="-582.55" rx="20.6" ry="20.6"/>
<text text-anchor="middle" x="527.04" y="-578.85" font-family="Arial" font-size="14.00">84</text>
</g>
<!-- 12&#45;&#45;84 -->
<g id="edge14" class="edge">
<title>12&#45;&#45;84</title>
<path fill="none" stroke="green" stroke-width="2" d="M652.16,-592.91C624.4,-590.61 575.67,-586.58 547.93,-584.28"/>
</g>
<!-- 13 -->
<g id="node14" class="node">
<title>13</title>
<ellipse fill="lightblue" stroke="black" cx="106.4" cy="-334.73" rx="20.6" ry="20.6"/>
<text text-anchor="middle" x="106.4" y="-331.03" font-family="Arial" font-size="14.00">13</text>
</g>
<!-- 14 -->
<g id="node15" class="node">
<title>14</title>
<ellipse fill="lightblue" stroke="black" cx="142.17" cy="-144.85" rx="20.6" ry="20.6"/>
<text text-anchor="middle" x="142.17" y="-141.15" font-family="Arial" font-size="14.00">14</text>
</g>
<!-- 97 -->
<g id="node98" class="node">
<title>97</title>
<ellipse fill="#9ac0cd" stroke="black" cx="497.43" cy="-671.62" rx="20.6" ry="20.6"/>
<text text-anchor="middle" x="497.43" y="-667.92" font-family="Arial" font-size="14.00">97</text>
</g>
<!-- 15&#45;&#45;97 -->
<g id="edge15" class="edge">
<title>15&#45;&#45;97</title>
<path fill="none" stroke="green" stroke-width="2" d="M526.58,-678.01C523.7,-677.38 520.74,-676.73 517.85,-676.1"/>
</g>
<!-- 16 -->
<g id="node17" class="node">
<title>16</title>
<ellipse fill="#9ac0cd" stroke="black" cx="450.4" cy="-356.2" rx="20.6" ry="20.6"/>
<text text-anchor="middle" x="450.4" y="-352.5" font-family="Arial" font-size="14.00">16</text>
</g>
<!-- 61 -->
<g id="node62" class="node">
<title>61</title>
<ellipse fill="#9ac0cd" stroke="black" cx="451.88" cy="-247.12" rx="20.6" ry="20.6"/>
<text text-anchor="middle" x="451.88" y="-243.42" font-family="Arial" font-size="14.00">61</text>
</g>
<!-- 16&#45;&#45;61 -->
<g id="edge16" class="edge">
<title>16&#45;&#45;61</title>
<path fill="none" stroke="green" stroke-width="2" d="M461.67,-338.13C466.36,-329.05 470.84,-317.67 471.3,-306.67 471.9,-292.44 466.8,-277.17 461.68,-265.66"/>
</g>
<!-- 16&#45;&#45;88 -->
<g id="edge17" class="edge">
<title>16&#45;&#45;88</title>
<path fill="none" stroke="green" stroke-width="2" d="M454.54,-376.67C455.13,-379.55 455.73,-382.52 456.31,-385.4"/>
</g>
<!-- 17 -->
<g id="node18" class="node">
<title>17</title>
<ellipse fill="lightblue" stroke="black" cx="626.29" cy="-204.86" rx="20.6" ry="20.6"/>
<text text-anchor="middle" x="626.29" y="-201.16" font-family="Arial" font-size="14.00">17</text>
</g>
<!-- 18 -->
<g id="node19" class="node">
<title>18</title>
<ellipse fill="lightblue" stroke="black" cx="509.21" cy="-20.96" rx="20.6" ry="20.6"/>
<text text-anchor="middle" x="509.21" y="-17.26" font-family="Arial" font-size="14.00">18</text>
</g>
<!-- 19 -->
<g id="node20" class="node">
<title>19</title>
<ellipse fill="lightblue" stroke="black" cx="211.54" cy="-178.87" rx="20.6" ry="20.6"/>
<text text-anchor="middle" x="211.54" y="-175.17" font-family="Arial" font-size="14.00">19</text>
</g>
<!-- 20 -->
<g id="node21" class="node">
<title>20</title>
<ellipse fill="#b2dfee" stroke="black" cx="172.83" cy="-533" rx="20.6" ry="20.6"/>
<text text-anchor="middle" x="172.83" y="-529.3" font-family="Arial" font-size="14.00">20</text>
</g>
<!-- 44 -->
<g id="node45" class="node">
<title>44</title>
<ellipse fill="red" stroke="black" cx="128.31" cy="-582.64" rx="20.6" ry="20.6"/>
<text text-anchor="middle" x="128.31" y="-578.94" font-family="Arial" font-size="14.00" fill="white">44</text>
</g>
<!-- 20&#45;&#45;44 -->
<g id="edge18" class="edge">
<title>20&#45;&#45;44</title>
<path fill="none" stroke="green" stroke-width="2" d="M158.74,-548.71C153.54,-554.51 147.66,-561.07 142.45,-566.87"/>
</g>
<!-- 21 -->
<g id="node22" class="node">
<title>21</title>
<ellipse fill="lightblue" stroke="black" cx="333.56" cy="-86.95" rx="20.6" ry="20.6"/>
<text text-anchor="middle" x="333.56" y="-83.25" font-family="Arial" font-size="14.00">21</text>
</g>
<!-- 22 -->
<g id="node23" class="node">
<title>22</title>
<ellipse fill="#68838b" stroke="black" cx="206.44" cy="-371.96" rx="20.6" ry="20.6"/>
<text text-anchor="middle" x="206.44" y="-368.26" font-family="Arial" font-size="14.00">22</text>
</g>
<!-- 68 -->
<g id="node69" class="node">
<title>68</title>
<ellipse fill="#68838b" stroke="black" cx="156.02" cy="-381.89" rx="20.6" ry="20.6"/>
<text text-anchor="middle" x="156.02" y="-378.19" font-family="Arial" font-size="14.00">68</text>
</g>
<!-- 22&#45;&#45;68 -->
<g id="edge19" class="edge">
<title>22&#45;&#45;68</title>
<path fill="none" stroke="green" stroke-width="2" d="M185.93,-376C182.88,-376.6 179.73,-377.22 176.67,-377.82"/>
</g>
<!-- 70 -->
<g id="node71" class="node">
<title>70</title>
<ellipse fill="#b2dfee" stroke="black" cx="322.02" cy="-409.41" rx="20.6" ry="20.6"/>
<text text-anchor="middle" x="322.02" y="-405.71" font-family="Arial" font-size="14.00">70</text>
</g>
<!-- 22&#45;&#45;70 -->
<g id="edge20" class="edge">
<title>22&#45;&#45;70</title>
<path fill="none" stroke="green" stroke-width="2" d="M222.67,-385.46C228.04,-389.57 234.17,-393.9 240.13,-397.32 258.83,-408.06 283.73,-410.36 301.14,-410.43"/>
</g>
<!-- 98 -->
<g id="node99" class="node">
<title>98</title>
<ellipse fill="#9ac0cd" stroke="black" cx="327.06" cy="-459.89" rx="20.6" ry="20.6"/>
<text text-anchor="middle" x="327.06" y="-456.19" font-family="Arial" font-size="14.00">98</text>
</g>
<!-- 22&#45;&#45;98 -->
<g id="edge21" class="edge">
<title>22&#45;&#45;98</title>
<path fill="none" stroke="green" stroke-width="2" d="M223.18,-384.67C228.58,-388.74 234.59,-393.24 240.13,-397.32 264.24,-415.07 292.41,-435.24 310,-447.77"/>
</g>
<!-- 23 -->
<g id="node24" class="node">
<title>23</title>
<ellipse fill="lightblue" stroke="black" cx="92.39" cy="-213.92" rx="20.6" ry="20.6"/>
<text text-anchor="middle" x="92.39" y="-210.22" font-family="Arial" font-size="14.00">23</text>
</g>
<!-- 24 -->
<g id="node25" class="node">
<title>24</title>
<ellipse fill="#b2dfee" stroke="black" cx="29.04" cy="-581.76" rx="20.6" ry="20.6"/>
<text text-anchor="middle" x="29.04" y="-578.06" font-family="Arial" font-size="14.00">24</text>
</g>
<!-- 25 -->
<g id="node26" class="node">
<title>25</title>
<ellipse fill="#68838b" stroke="black" cx="78.68" cy="-542.31" rx="20.6" ry="20.6"/>
<text text-anchor="middle" x="78.68" y="-538.61" font-family="Arial" font-size="14.00">25</text>
</g>
<!-- 24&#45;&#45;25 -->
<g id="edge22" class="edge">
<title>24&#45;&#45;25</title>
<path fill="none" stroke="green" stroke-width="2" d="M45.57,-568.62C50.98,-564.32 56.99,-559.54 62.39,-555.26"/>
</g>
<!-- 64 -->
<g id="node65" class="node">
<title>64</title>
<ellipse fill="#68838b" stroke="black" cx="84.18" cy="-636.04" rx="20.6" ry="20.6"/>
<text text-anchor="middle" x="84.18" y="-632.34" font-family="Arial" font-size="14.00">64</text>
</g>
<!-- 25&#45;&#45;64 -->
<g id="edge23" class="edge">
<title>25&#45;&#45;64</title>
<path fill="none" stroke="green" stroke-width="2" d="M79.9,-563.12C80.81,-578.54 82.04,-599.49 82.95,-614.98"/>
</g>
<!-- 91 -->
<g id="node92" class="node">
<title>91</title>
<ellipse fill="#9ac0cd" stroke="black" cx="119.02" cy="-492.67" rx="20.6" ry="20.6"/>
<text text-anchor="middle" x="119.02" y="-488.97" font-family="Arial" font-size="14.00">91</text>
</g>
<!-- 25&#45;&#45;91 -->
<g id="edge24" class="edge">
<title>25&#45;&#45;91</title>
<path fill="none" stroke="green" stroke-width="2" d="M91.89,-526.06C96.3,-520.63 101.22,-514.58 105.64,-509.13"/>
</g>
<!-- 26 -->
<g id="node27" class="node">
<title>26</title>
<ellipse fill="#b2dfee" stroke="black" cx="349.42" cy="-275.69" rx="20.6" ry="20.6"/>
<text text-anchor="middle" x="349.42" y="-271.99" font-family="Arial" font-size="14.00">26</text>
</g>
<!-- 99 -->
<g id="node100" class="node">
<title>99</title>
<ellipse fill="#9ac0cd" stroke="black" cx="299.62" cy="-272.19" rx="20.6" ry="20.6"/>
<text text-anchor="middle" x="299.62" y="-268.49" font-family="Arial" font-size="14.00">99</text>
</g>
<!-- 26&#45;&#45;99 -->
<g id="edge25" class="edge">
<title>26&#45;&#45;99</title>
<path fill="none" stroke="green" stroke-width="2" d="M328.59,-274.23C325.93,-274.04 323.2,-273.85 320.53,-273.66"/>
</g>
<!-- 27 -->
<g id="node28" class="node">
<title>27</title>
<ellipse fill="#b2dfee" stroke="black" cx="248.99" cy="-484.35" rx="20.6" ry="20.6"/>
<text text-anchor="middle" x="248.99" y="-480.65" font-family="Arial" font-size="14.00">27</text>
</g>
<!-- 27&#45;&#45;38 -->
<g id="edge26" class="edge">
<title>27&#45;&#45;38</title>
<path fill="none" stroke="green" stroke-width="2" d="M267.47,-494.03C271.55,-496.16 275.87,-498.42 279.96,-500.56"/>
</g>
<!-- 28 -->
<g id="node29" class="node">
<title>28</title>
<ellipse fill="#9ac0cd" stroke="black" cx="602.74" cy="-499.08" rx="20.6" ry="20.6"/>
<text text-anchor="middle" x="602.74" y="-495.38" font-family="Arial" font-size="14.00">28</text>
</g>
<!-- 47 -->
<g id="node48" class="node">
<title>47</title>
<ellipse fill="#b2dfee" stroke="black" cx="624.73" cy="-449.46" rx="20.6" ry="20.6"/>
<text text-anchor="middle" x="624.73" y="-445.76" font-family="Arial" font-size="14.00">47</text>
</g>
<!-- 28&#45;&#45;47 -->
<g id="edge27" class="edge">
<title>28&#45;&#45;47</title>
<path fill="none" stroke="green" stroke-width="2" d="M611.18,-480.04C612.83,-476.32 614.55,-472.42 616.2,-468.7"/>
</g>
<!-- 60 -->
<g id="node61" class="node">
<title>60</title>
<ellipse fill="#9ac0cd" stroke="black" cx="553.11" cy="-532.9" rx="20.6" ry="20.6"/>
<text text-anchor="middle" x="553.11" y="-529.2" font-family="Arial" font-size="14.00">60</text>
</g>
<!-- 28&#45;&#45;60 -->
<g id="edge28" class="edge">
<title>28&#45;&#45;60</title>
<path fill="none" stroke="green" stroke-width="2" d="M585.38,-510.91C580.58,-514.18 575.35,-517.74 570.54,-521.02"/>
</g>
<!-- 30 -->
<g id="node31" class="node">
<title>30</title>
<ellipse fill="lightblue" stroke="black" cx="654.57" cy="-144.97" rx="20.6" ry="20.6"/>
<text text-anchor="middle" x="654.57" y="-141.27" font-family="Arial" font-size="14.00">30</text>
</g>
<!-- 31 -->
<g id="node32" class="node">
<title>31</title>
<ellipse fill="skyblue" stroke="black" cx="599.26" cy="-341.41" rx="20.6" ry="20.6"/>
<text text-anchor="middle" x="599.26" y="-337.71" font-family="Arial" font-size="14.00">31</text>
</g>
<!-- 32 -->
<g id="node33" class="node">
<title>32</title>
<ellipse fill="#b2dfee" stroke="black" cx="679.9" cy="-381.98" rx="20.6" ry="20.6"/>
<text text-anchor="middle" x="679.9" y="-378.28" font-family="Arial" font-size="14.00">32</text>
</g>
<!-- 31&#45;&#45;32 -->
<g id="edge29" class="edge">
<title>31&#45;&#45;32</title>
<path fill="none" stroke="green" stroke-width="2" d="M617.96,-350.82C630.99,-357.37 648.29,-366.08 661.3,-372.62"/>
</g>
<!-- 36 -->
<g id="node37" class="node">
<title>36</title>
<ellipse fill="#68838b" stroke="black" cx="549.66" cy="-362.38" rx="20.6" ry="20.6"/>
<text text-anchor="middle" x="549.66" y="-358.68" font-family="Arial" font-size="14.00">36</text>
</g>
<!-- 31&#45;&#45;36 -->
<g id="edge30" class="edge">
<title>31&#45;&#45;36</title>
<path fill="none" stroke="green" stroke-width="2" d="M579.94,-349.58C576.35,-351.09 572.6,-352.68 569.01,-354.2"/>
</g>
<!-- 65 -->
<g id="node66" class="node">
<title>65</title>
<ellipse fill="#b2dfee" stroke="black" cx="612.24" cy="-282.96" rx="20.6" ry="20.6"/>
<text text-anchor="middle" x="612.24" y="-279.26" font-family="Arial" font-size="14.00">65</text>
</g>
<!-- 31&#45;&#45;65 -->
<g id="edge31" class="edge">
<title>31&#45;&#45;65</title>
<path fill="none" stroke="green" stroke-width="2" d="M603.8,-320.97C605.06,-315.31 606.42,-309.16 607.68,-303.49"/>
</g>
<!-- 69 -->
<g id="node70" class="node">
<title>69</title>
<ellipse fill="#b2dfee" stroke="black" cx="611.43" cy="-399.84" rx="20.6" ry="20.6"/>
<text text-anchor="middle" x="611.43" y="-396.14" font-family="Arial" font-size="14.00">69</text>
</g>
<!-- 31&#45;&#45;69 -->
<g id="edge32" class="edge">
<title>31&#45;&#45;69</title>
<path fill="none" stroke="green" stroke-width="2" d="M603.52,-361.84C604.7,-367.5 605.98,-373.65 607.16,-379.31"/>
</g>
<!-- 33 -->
<g id="node34" class="node">
<title>33</title>
<ellipse fill="#68838b" stroke="black" cx="176.05" cy="-322.34" rx="20.6" ry="20.6"/>
<text text-anchor="middle" x="176.05" y="-318.64" font-family="Arial" font-size="14.00">33</text>
</g>
<!-- 55 -->
<g id="node56" class="node">
<title>55</title>
<ellipse fill="#68838b" stroke="black" cx="199.62" cy="-252.88" rx="20.6" ry="20.6"/>
<text text-anchor="middle" x="199.62" y="-249.18" font-family="Arial" font-size="14.00">55</text>
</g>
<!-- 33&#45;&#45;55 -->
<g id="edge33" class="edge">
<title>33&#45;&#45;55</title>
<path fill="none" stroke="green" stroke-width="2" d="M182.74,-302.62C185.9,-293.32 189.66,-282.23 192.83,-272.89"/>
</g>
<!-- 33&#45;&#45;56 -->
<g id="edge34" class="edge">
<title>33&#45;&#45;56</title>
<path fill="none" stroke="green" stroke-width="2" d="M193.22,-334.8C201.94,-341.15 212.7,-349.02 222.28,-356.13 227.82,-360.24 233.84,-364.76 239.25,-368.83"/>
</g>
<!-- 33&#45;&#45;68 -->
<g id="edge35" class="edge">
<title>33&#45;&#45;68</title>
<path fill="none" stroke="green" stroke-width="2" d="M169.38,-342.17C167.24,-348.53 164.87,-355.58 162.73,-361.95"/>
</g>
<!-- 34 -->
<g id="node35" class="node">
<title>34</title>
<ellipse fill="lightblue" stroke="black" cx="680.78" cy="-431.62" rx="20.6" ry="20.6"/>
<text text-anchor="middle" x="680.78" y="-427.92" font-family="Arial" font-size="14.00">34</text>
</g>
<!-- 35 -->
<g id="node36" class="node">
<title>35</title>
<ellipse fill="lightblue" stroke="black" cx="681.1" cy="-238.69" rx="20.6" ry="20.6"/>
<text text-anchor="middle" x="681.1" y="-234.99" font-family="Arial" font-size="14.00">35</text>
</g>
<!-- 41 -->
<g id="node42" class="node">
<title>41</title>
<ellipse fill="#9ac0cd" stroke="black" cx="528.84" cy="-412.02" rx="20.6" ry="20.6"/>
<text text-anchor="middle" x="528.84" y="-408.32" font-family="Arial" font-size="14.00">41</text>
</g>
<!-- 36&#45;&#45;41 -->
<g id="edge36" class="edge">
<title>36&#45;&#45;41</title>
<path fill="none" stroke="green" stroke-width="2" d="M541.55,-381.71C540.04,-385.3 538.47,-389.06 536.96,-392.65"/>
</g>
<!-- 96 -->
<g id="node97" class="node">
<title>96</title>
<ellipse fill="#b2dfee" stroke="black" cx="549.65" cy="-292.71" rx="20.6" ry="20.6"/>
<text text-anchor="middle" x="549.65" y="-289.01" font-family="Arial" font-size="14.00">96</text>
</g>
<!-- 36&#45;&#45;96 -->
<g id="edge37" class="edge">
<title>36&#45;&#45;96</title>
<path fill="none" stroke="green" stroke-width="2" d="M549.65,-341.48C549.65,-332.66 549.65,-322.42 549.65,-313.6"/>
</g>
<!-- 37 -->
<g id="node38" class="node">
<title>37</title>
<ellipse fill="#b2dfee" stroke="black" cx="34.05" cy="-632.69" rx="20.6" ry="20.6"/>
<text text-anchor="middle" x="34.05" y="-628.99" font-family="Arial" font-size="14.00">37</text>
</g>
<!-- 37&#45;&#45;64 -->
<g id="edge38" class="edge">
<title>37&#45;&#45;64</title>
<path fill="none" stroke="green" stroke-width="2" d="M55.02,-634.09C57.71,-634.27 60.45,-634.46 63.14,-634.64"/>
</g>
<!-- 46 -->
<g id="node47" class="node">
<title>46</title>
<ellipse fill="skyblue" stroke="black" cx="222.45" cy="-551.71" rx="20.6" ry="20.6"/>
<text text-anchor="middle" x="222.45" y="-548.01" font-family="Arial" font-size="14.00">46</text>
</g>
<!-- 38&#45;&#45;46 -->
<g id="edge39" class="edge">
<title>38&#45;&#45;46</title>
<path fill="none" stroke="green" stroke-width="2" d="M280.19,-520.35C268.3,-526.81 252.89,-535.18 240.99,-541.64"/>
</g>
<!-- 38&#45;&#45;79 -->
<g id="edge40" class="edge">
<title>38&#45;&#45;79</title>
<path fill="none" stroke="green" stroke-width="2" d="M315.22,-523.37C320.54,-527.55 326.44,-532.18 331.77,-536.36"/>
</g>
<!-- 39&#45;&#45;84 -->
<g id="edge41" class="edge">
<title>39&#45;&#45;84</title>
<path fill="none" stroke="green" stroke-width="2" d="M601.31,-555.89C585.2,-561.67 562.69,-569.75 546.68,-575.5"/>
</g>
<!-- 41&#45;&#45;88 -->
<g id="edge42" class="edge">
<title>41&#45;&#45;88</title>
<path fill="none" stroke="green" stroke-width="2" d="M507.95,-410.13C499.46,-409.36 489.68,-408.47 481.2,-407.71"/>
</g>
<!-- 42 -->
<g id="node43" class="node">
<title>42</title>
<ellipse fill="#9ac0cd" stroke="black" cx="427.73" cy="-572.34" rx="20.6" ry="20.6"/>
<text text-anchor="middle" x="427.73" y="-568.64" font-family="Arial" font-size="14.00">42</text>
</g>
<!-- 45 -->
<g id="node46" class="node">
<title>45</title>
<ellipse fill="#9ac0cd" stroke="black" cx="477.42" cy="-554.11" rx="20.6" ry="20.6"/>
<text text-anchor="middle" x="477.42" y="-550.41" font-family="Arial" font-size="14.00">45</text>
</g>
<!-- 42&#45;&#45;45 -->
<g id="edge43" class="edge">
<title>42&#45;&#45;45</title>
<path fill="none" stroke="green" stroke-width="2" d="M447.37,-565.14C450.73,-563.9 454.23,-562.62 457.6,-561.38"/>
</g>
<!-- 42&#45;&#45;77 -->
<g id="edge44" class="edge">
<title>42&#45;&#45;77</title>
<path fill="none" stroke="green" stroke-width="2" d="M436.51,-591.39C438.27,-595.22 440.12,-599.24 441.88,-603.07"/>
</g>
<!-- 43 -->
<g id="node44" class="node">
<title>43</title>
<ellipse fill="lightblue" stroke="black" cx="143.06" cy="-223.07" rx="20.6" ry="20.6"/>
<text text-anchor="middle" x="143.06" y="-219.37" font-family="Arial" font-size="14.00">43</text>
</g>
<!-- 44&#45;&#45;46 -->
<g id="edge45" class="edge">
<title>44&#45;&#45;46</title>
<path fill="none" stroke="green" stroke-width="2" d="M148.27,-576.08C164.25,-570.83 186.55,-563.51 202.52,-558.26"/>
</g>
<!-- 45&#45;&#45;84 -->
<g id="edge46" class="edge">
<title>45&#45;&#45;84</title>
<path fill="none" stroke="green" stroke-width="2" d="M495.62,-564.54C499.93,-567.01 504.53,-569.65 508.85,-572.12"/>
</g>
<!-- 46&#45;&#45;91 -->
<g id="edge47" class="edge">
<title>46&#45;&#45;91</title>
<path fill="none" stroke="green" stroke-width="2" d="M209.18,-535.58C203.39,-529.27 196.23,-522.35 188.76,-517.27 173.8,-507.08 154.16,-500.65 139.54,-496.93"/>
</g>
<!-- 95 -->
<g id="node96" class="node">
<title>95</title>
<ellipse fill="#9ac0cd" stroke="black" cx="199.36" cy="-483.38" rx="20.6" ry="20.6"/>
<text text-anchor="middle" x="199.36" y="-479.68" font-family="Arial" font-size="14.00">95</text>
</g>
<!-- 46&#45;&#45;95 -->
<g id="edge48" class="edge">
<title>46&#45;&#45;95</title>
<path fill="none" stroke="green" stroke-width="2" d="M215.77,-531.95C212.74,-522.96 209.15,-512.34 206.1,-503.33"/>
</g>
<!-- 48 -->
<g id="node49" class="node">
<title>48</title>
<ellipse fill="lightblue" stroke="black" cx="532.03" cy="-119.13" rx="20.6" ry="20.6"/>
<text text-anchor="middle" x="532.03" y="-115.43" font-family="Arial" font-size="14.00">48</text>
</g>
<!-- 49 -->
<g id="node50" class="node">
<title>49</title>
<ellipse fill="#b2dfee" stroke="black" cx="502.88" cy="-504.48" rx="20.6" ry="20.6"/>
<text text-anchor="middle" x="502.88" y="-500.78" font-family="Arial" font-size="14.00">49</text>
</g>
<!-- 49&#45;&#45;84 -->
<g id="edge49" class="edge">
<title>49&#45;&#45;84</title>
<path fill="none" stroke="green" stroke-width="2" d="M509.1,-524.58C512.71,-536.24 517.24,-550.87 520.84,-562.51"/>
</g>
<!-- 50 -->
<g id="node51" class="node">
<title>50</title>
<ellipse fill="#b2dfee" stroke="black" cx="500.01" cy="-341.64" rx="20.6" ry="20.6"/>
<text text-anchor="middle" x="500.01" y="-337.94" font-family="Arial" font-size="14.00">50</text>
</g>
<!-- 50&#45;&#45;53 -->
<g id="edge50" class="edge">
<title>50&#45;&#45;53</title>
<path fill="none" stroke="green" stroke-width="2" d="M482.71,-329.75C477.38,-326.08 471.52,-322.05 466.19,-318.39"/>
</g>
<!-- 51 -->
<g id="node52" class="node">
<title>51</title>
<ellipse fill="lightblue" stroke="black" cx="383.17" cy="-112.04" rx="20.6" ry="20.6"/>
<text text-anchor="middle" x="383.17" y="-108.34" font-family="Arial" font-size="14.00">51</text>
</g>
<!-- 52 -->
<g id="node53" class="node">
<title>52</title>
<ellipse fill="lightblue" stroke="black" cx="408.46" cy="-50.73" rx="20.6" ry="20.6"/>
<text text-anchor="middle" x="408.46" y="-47.03" font-family="Arial" font-size="14.00">52</text>
</g>
<!-- 54 -->
<g id="node55" class="node">
<title>54</title>
<ellipse fill="lightblue" stroke="black" cx="92.53" cy="-164.31" rx="20.6" ry="20.6"/>
<text text-anchor="middle" x="92.53" y="-160.61" font-family="Arial" font-size="14.00">54</text>
</g>
<!-- 62 -->
<g id="node63" class="node">
<title>62</title>
<ellipse fill="#b2dfee" stroke="black" cx="249.99" cy="-291.51" rx="20.6" ry="20.6"/>
<text text-anchor="middle" x="249.99" y="-287.81" font-family="Arial" font-size="14.00">62</text>
</g>
<!-- 55&#45;&#45;62 -->
<g id="edge51" class="edge">
<title>55&#45;&#45;62</title>
<path fill="none" stroke="green" stroke-width="2" d="M216.39,-265.75C221.88,-269.96 227.98,-274.64 233.46,-278.84"/>
</g>
<!-- 55&#45;&#45;99 -->
<g id="edge52" class="edge">
<title>55&#45;&#45;99</title>
<path fill="none" stroke="green" stroke-width="2" d="M220.34,-256.88C237.5,-260.2 261.77,-264.88 278.93,-268.19"/>
</g>
<!-- 87 -->
<g id="node88" class="node">
<title>87</title>
<ellipse fill="#b2dfee" stroke="black" cx="305.65" cy="-350.87" rx="20.6" ry="20.6"/>
<text text-anchor="middle" x="305.65" y="-347.17" font-family="Arial" font-size="14.00">87</text>
</g>
<!-- 56&#45;&#45;87 -->
<g id="edge53" class="edge">
<title>56&#45;&#45;87</title>
<path fill="none" stroke="green" stroke-width="2" d="M273.95,-370.48C278.5,-367.66 283.39,-364.64 287.93,-361.83"/>
</g>
<!-- 57 -->
<g id="node58" class="node">
<title>57</title>
<ellipse fill="#b2dfee" stroke="black" cx="376.7" cy="-474.42" rx="20.6" ry="20.6"/>
<text text-anchor="middle" x="376.7" y="-470.72" font-family="Arial" font-size="14.00">57</text>
</g>
<!-- 57&#45;&#45;98 -->
<g id="edge54" class="edge">
<title>57&#45;&#45;98</title>
<path fill="none" stroke="green" stroke-width="2" d="M356.51,-468.51C353.4,-467.6 350.18,-466.66 347.07,-465.75"/>
</g>
<!-- 58&#45;&#45;79 -->
<g id="edge55" class="edge">
<title>58&#45;&#45;79</title>
<path fill="none" stroke="green" stroke-width="2" d="M331.94,-581.68C334.21,-577.26 336.63,-572.54 338.89,-568.12"/>
</g>
<!-- 90 -->
<g id="node91" class="node">
<title>90</title>
<ellipse fill="#9ac0cd" stroke="black" cx="372.02" cy="-599.16" rx="20.6" ry="20.6"/>
<text text-anchor="middle" x="372.02" y="-595.46" font-family="Arial" font-size="14.00">90</text>
</g>
<!-- 58&#45;&#45;90 -->
<g id="edge56" class="edge">
<title>58&#45;&#45;90</title>
<path fill="none" stroke="green" stroke-width="2" d="M343.43,-599.84C345.97,-599.78 348.56,-599.71 351.09,-599.65"/>
</g>
<!-- 59 -->
<g id="node60" class="node">
<title>59</title>
<ellipse fill="#b2dfee" stroke="black" cx="427.79" cy="-513.36" rx="20.6" ry="20.6"/>
<text text-anchor="middle" x="427.79" y="-509.66" font-family="Arial" font-size="14.00">59</text>
</g>
<!-- 59&#45;&#45;90 -->
<g id="edge57" class="edge">
<title>59&#45;&#45;90</title>
<path fill="none" stroke="green" stroke-width="2" d="M416.23,-531.14C406.6,-545.96 392.95,-566.97 383.37,-581.7"/>
</g>
<!-- 60&#45;&#45;84 -->
<g id="edge58" class="edge">
<title>60&#45;&#45;84</title>
<path fill="none" stroke="green" stroke-width="2" d="M543.4,-551.39C541.26,-555.47 538.99,-559.79 536.84,-563.88"/>
</g>
<!-- 75 -->
<g id="node76" class="node">
<title>75</title>
<ellipse fill="#b2dfee" stroke="black" cx="397.64" cy="-224.21" rx="20.6" ry="20.6"/>
<text text-anchor="middle" x="397.64" y="-220.51" font-family="Arial" font-size="14.00">75</text>
</g>
<!-- 61&#45;&#45;75 -->
<g id="edge59" class="edge">
<title>61&#45;&#45;75</title>
<path fill="none" stroke="green" stroke-width="2" d="M432.6,-238.97C427.49,-236.81 421.96,-234.48 416.85,-232.32"/>
</g>
<!-- 63 -->
<g id="node64" class="node">
<title>63</title>
<ellipse fill="lightblue" stroke="black" cx="432.77" cy="-120.27" rx="20.6" ry="20.6"/>
<text text-anchor="middle" x="432.77" y="-116.57" font-family="Arial" font-size="14.00">63</text>
</g>
<!-- 89 -->
<g id="node90" class="node">
<title>89</title>
<ellipse fill="#b2dfee" stroke="black" cx="21.14" cy="-682.31" rx="20.6" ry="20.6"/>
<text text-anchor="middle" x="21.14" y="-678.61" font-family="Arial" font-size="14.00">89</text>
</g>
<!-- 64&#45;&#45;89 -->
<g id="edge60" class="edge">
<title>64&#45;&#45;89</title>
<path fill="none" stroke="green" stroke-width="2" d="M67.29,-648.44C58.24,-655.08 47.13,-663.24 38.08,-669.88"/>
</g>
<!-- 66 -->
<g id="node67" class="node">
<title>66</title>
<ellipse fill="lightblue" stroke="black" cx="138.72" cy="-95.05" rx="20.6" ry="20.6"/>
<text text-anchor="middle" x="138.72" y="-91.35" font-family="Arial" font-size="14.00">66</text>
</g>
<!-- 67 -->
<g id="node68" class="node">
<title>67</title>
<ellipse fill="lightblue" stroke="black" cx="46.27" cy="-263.55" rx="20.6" ry="20.6"/>
<text text-anchor="middle" x="46.27" y="-259.85" font-family="Arial" font-size="14.00">67</text>
</g>
<!-- 83 -->
<g id="node84" class="node">
<title>83</title>
<ellipse fill="#9ac0cd" stroke="black" cx="175.75" cy="-433.76" rx="20.6" ry="20.6"/>
<text text-anchor="middle" x="175.75" y="-430.06" font-family="Arial" font-size="14.00">83</text>
</g>
<!-- 68&#45;&#45;83 -->
<g id="edge61" class="edge">
<title>68&#45;&#45;83</title>
<path fill="none" stroke="green" stroke-width="2" d="M163.48,-401.5C165.05,-405.63 166.71,-409.99 168.28,-414.12"/>
</g>
<!-- 71 -->
<g id="node72" class="node">
<title>71</title>
<ellipse fill="lightblue" stroke="black" cx="332.32" cy="-165.4" rx="20.6" ry="20.6"/>
<text text-anchor="middle" x="332.32" y="-161.7" font-family="Arial" font-size="14.00">71</text>
</g>
<!-- 72 -->
<g id="node73" class="node">
<title>72</title>
<ellipse fill="lightblue" stroke="black" cx="283.94" cy="-81.14" rx="20.6" ry="20.6"/>
<text text-anchor="middle" x="283.94" y="-77.44" font-family="Arial" font-size="14.00">72</text>
</g>
<!-- 73 -->
<g id="node74" class="node">
<title>73</title>
<ellipse fill="lightblue" stroke="black" cx="576.67" cy="-168.91" rx="20.6" ry="20.6"/>
<text text-anchor="middle" x="576.67" y="-165.21" font-family="Arial" font-size="14.00">73</text>
</g>
<!-- 74 -->
<g id="node75" class="node">
<title>74</title>
<ellipse fill="lightblue" stroke="black" cx="592.83" cy="-56.64" rx="20.6" ry="20.6"/>
<text text-anchor="middle" x="592.83" y="-52.94" font-family="Arial" font-size="14.00">74</text>
</g>
<!-- 77&#45;&#45;97 -->
<g id="edge62" class="edge">
<title>77&#45;&#45;97</title>
<path fill="none" stroke="green" stroke-width="2" d="M464.91,-637.15C470.61,-643.19 477.16,-650.14 482.89,-656.21"/>
</g>
<!-- 78 -->
<g id="node79" class="node">
<title>78</title>
<ellipse fill="lightblue" stroke="black" cx="482.41" cy="-164.06" rx="20.6" ry="20.6"/>
<text text-anchor="middle" x="482.41" y="-160.36" font-family="Arial" font-size="14.00">78</text>
</g>
<!-- 80 -->
<g id="node81" class="node">
<title>80</title>
<ellipse fill="lightblue" stroke="black" cx="85.64" cy="-62.09" rx="20.6" ry="20.6"/>
<text text-anchor="middle" x="85.64" y="-58.39" font-family="Arial" font-size="14.00">80</text>
</g>
<!-- 81 -->
<g id="node82" class="node">
<title>81</title>
<ellipse fill="lightblue" stroke="black" cx="661.85" cy="-332.35" rx="20.6" ry="20.6"/>
<text text-anchor="middle" x="661.85" y="-328.65" font-family="Arial" font-size="14.00">81</text>
</g>
<!-- 82 -->
<g id="node83" class="node">
<title>82</title>
<ellipse fill="lightblue" stroke="black" cx="188.33" cy="-83.76" rx="20.6" ry="20.6"/>
<text text-anchor="middle" x="188.33" y="-80.06" font-family="Arial" font-size="14.00">82</text>
</g>
<!-- 83&#45;&#45;95 -->
<g id="edge63" class="edge">
<title>83&#45;&#45;95</title>
<path fill="none" stroke="green" stroke-width="2" d="M184.81,-452.8C186.63,-456.62 188.54,-460.64 190.36,-464.47"/>
</g>
<!-- 86 -->
<g id="node87" class="node">
<title>86</title>
<ellipse fill="lightblue" stroke="black" cx="42.91" cy="-123.08" rx="20.6" ry="20.6"/>
<text text-anchor="middle" x="42.91" y="-119.38" font-family="Arial" font-size="14.00">86</text>
</g>
<!-- 92 -->
<g id="node93" class="node">
<title>92</title>
<ellipse fill="lightblue" stroke="black" cx="147.89" cy="-272.71" rx="20.6" ry="20.6"/>
<text text-anchor="middle" x="147.89" y="-269.01" font-family="Arial" font-size="14.00">92</text>
</g>
<!-- 93 -->
<g id="node94" class="node">
<title>93</title>
<ellipse fill="lightblue" stroke="black" cx="744.04" cy="-242.46" rx="20.6" ry="20.6"/>
<text text-anchor="middle" x="744.04" y="-238.76" font-family="Arial" font-size="14.00">93</text>
</g>
<!-- 94 -->
<g id="node95" class="node">
<title>94</title>
<ellipse fill="lightblue" stroke="black" cx="282.48" cy="-177.23" rx="20.6" ry="20.6"/>
<text text-anchor="middle" x="282.48" y="-173.53" font-family="Arial" font-size="14.00">94</text>
</g>
</g>
</svg>
