<?xml version="1.0" encoding="UTF-8" standalone="no"?>
<!DOCTYPE svg PUBLIC "-//W3C//DTD SVG 1.1//EN"
 "http://www.w3.org/Graphics/SVG/1.1/DTD/svg11.dtd">
<!-- Generated by graphviz version 2.43.0 (0)
 -->
<!-- Title: Inv_b2_0_maxDeg8_tree Pages: 1 -->
<svg width="748pt" height="693pt"
 viewBox="0.00 0.00 748.00 693.00" xmlns="http://www.w3.org/2000/svg" xmlns:xlink="http://www.w3.org/1999/xlink">
<g id="graph0" class="graph" transform="scale(1 1) rotate(0) translate(4 689)">
<title>Inv_b2_0_maxDeg8_tree</title>
<polygon fill="white" stroke="transparent" points="-4,4 -4,-689 744,-689 744,4 -4,4"/>
<!-- 0 -->
<g id="node1" class="node">
<title>0</title>
<ellipse fill="#9ac0cd" stroke="black" cx="415.22" cy="-45.51" rx="18" ry="18"/>
<text text-anchor="middle" x="415.22" y="-41.81" font-family="Arial" font-size="14.00">0</text>
</g>
<!-- 78 -->
<g id="node79" class="node">
<title>78</title>
<ellipse fill="skyblue" stroke="black" cx="451.86" cy="-185.15" rx="20.6" ry="20.6"/>
<text text-anchor="middle" x="451.86" y="-181.45" font-family="Arial" font-size="14.00">78</text>
</g>
<!-- 0&#45;&#45;78 -->
<g id="edge1" class="edge">
<title>0&#45;&#45;78</title>
<path fill="none" stroke="green" stroke-width="2" d="M419.86,-63.19C426.68,-89.17 439.36,-137.53 446.54,-164.9"/>
</g>
<!-- 97 -->
<g id="node98" class="node">
<title>97</title>
<ellipse fill="#b2dfee" stroke="black" cx="512.11" cy="-649.19" rx="20.6" ry="20.6"/>
<text text-anchor="middle" x="512.11" y="-645.49" font-family="Arial" font-size="14.00">97</text>
</g>
<!-- 0&#45;&#45;97 -->
<g id="edge2" class="edge">
<title>0&#45;&#45;97</title>
<path fill="none" stroke="green" stroke-width="2" d="M418.72,-63.37C422.06,-81.48 426.81,-110.37 428.4,-135.62 433.95,-223.57 415.01,-246.48 426.24,-333.89 429.27,-357.47 432.12,-363.08 439.04,-385.83 450.48,-423.41 460.05,-430.7 469.29,-468.88 473.34,-485.59 470.79,-490.4 474.14,-507.26 482.42,-549.01 488.42,-558.51 499.33,-599.64 501.88,-609.26 504.64,-619.94 506.95,-628.92"/>
</g>
<!-- 1 -->
<g id="node2" class="node">
<title>1</title>
<ellipse fill="#9ac0cd" stroke="black" cx="372.19" cy="-354.86" rx="18" ry="18"/>
<text text-anchor="middle" x="372.19" y="-351.16" font-family="Arial" font-size="14.00">1</text>
</g>
<!-- 26 -->
<g id="node27" class="node">
<title>26</title>
<ellipse fill="#b2dfee" stroke="black" cx="349.71" cy="-258.43" rx="20.6" ry="20.6"/>
<text text-anchor="middle" x="349.71" y="-254.73" font-family="Arial" font-size="14.00">26</text>
</g>
<!-- 1&#45;&#45;26 -->
<g id="edge3" class="edge">
<title>1&#45;&#45;26</title>
<path fill="none" stroke="green" stroke-width="2" d="M368.06,-337.18C364.24,-320.75 358.54,-296.31 354.51,-279.01"/>
</g>
<!-- 36 -->
<g id="node37" class="node">
<title>36</title>
<ellipse fill="skyblue" stroke="black" cx="547.86" cy="-346.08" rx="20.6" ry="20.6"/>
<text text-anchor="middle" x="547.86" y="-342.38" font-family="Arial" font-size="14.00">36</text>
</g>
<!-- 1&#45;&#45;36 -->
<g id="edge4" class="edge">
<title>1&#45;&#45;36</title>
<path fill="none" stroke="green" stroke-width="2" d="M390.18,-357.01C414.67,-359.56 459.83,-363 498.09,-358.79 508.02,-357.7 518.79,-355.13 527.76,-352.59"/>
</g>
<!-- 2 -->
<g id="node3" class="node">
<title>2</title>
<ellipse fill="#b2dfee" stroke="black" cx="453.51" cy="-89.55" rx="18" ry="18"/>
<text text-anchor="middle" x="453.51" y="-85.85" font-family="Arial" font-size="14.00">2</text>
</g>
<!-- 63 -->
<g id="node64" class="node">
<title>63</title>
<ellipse fill="skyblue" stroke="black" cx="406.01" cy="-135.51" rx="20.6" ry="20.6"/>
<text text-anchor="middle" x="406.01" y="-131.81" font-family="Arial" font-size="14.00">63</text>
</g>
<!-- 2&#45;&#45;63 -->
<g id="edge5" class="edge">
<title>2&#45;&#45;63</title>
<path fill="none" stroke="green" stroke-width="2" d="M440.53,-102.11C434.48,-107.95 427.26,-114.94 420.99,-121.01"/>
</g>
<!-- 3 -->
<g id="node4" class="node">
<title>3</title>
<ellipse fill="#9ac0cd" stroke="black" cx="430.1" cy="-607.59" rx="18" ry="18"/>
<text text-anchor="middle" x="430.1" y="-603.89" font-family="Arial" font-size="14.00">3</text>
</g>
<!-- 65 -->
<g id="node66" class="node">
<title>65</title>
<ellipse fill="#b2dfee" stroke="black" cx="608.83" cy="-267.17" rx="20.6" ry="20.6"/>
<text text-anchor="middle" x="608.83" y="-263.47" font-family="Arial" font-size="14.00">65</text>
</g>
<!-- 3&#45;&#45;65 -->
<g id="edge6" class="edge">
<title>3&#45;&#45;65</title>
<path fill="none" stroke="green" stroke-width="2" d="M439.47,-592.1C448.47,-576.56 461.75,-551.66 469.22,-528.47 472.19,-519.26 471.4,-516.54 474.14,-507.26 480.78,-484.74 483.47,-479.42 492.05,-457.56 494.84,-450.47 494.19,-447.88 498.77,-441.79 508.51,-428.82 516.24,-430.82 527.06,-418.73 547.08,-396.35 549.72,-388.53 563.68,-361.94 567.22,-355.19 567.98,-353.38 570.26,-346.11 573.28,-336.48 572.06,-333.54 575.09,-323.91 579.63,-309.48 588.46,-294.85 595.95,-284.06"/>
</g>
<!-- 76 -->
<g id="node77" class="node">
<title>76</title>
<ellipse fill="skyblue" stroke="black" cx="221.84" cy="-640.7" rx="20.6" ry="20.6"/>
<text text-anchor="middle" x="221.84" y="-637" font-family="Arial" font-size="14.00">76</text>
</g>
<!-- 3&#45;&#45;76 -->
<g id="edge7" class="edge">
<title>3&#45;&#45;76</title>
<path fill="none" stroke="green" stroke-width="2" d="M411.98,-610.47C373.39,-616.6 283.26,-630.93 242.51,-637.41"/>
</g>
<!-- 4 -->
<g id="node5" class="node">
<title>4</title>
<ellipse fill="#b2dfee" stroke="black" cx="677.96" cy="-523.54" rx="18" ry="18"/>
<text text-anchor="middle" x="677.96" y="-519.84" font-family="Arial" font-size="14.00">4</text>
</g>
<!-- 47 -->
<g id="node48" class="node">
<title>47</title>
<ellipse fill="skyblue" stroke="black" cx="662.2" cy="-450.29" rx="20.6" ry="20.6"/>
<text text-anchor="middle" x="662.2" y="-446.59" font-family="Arial" font-size="14.00">47</text>
</g>
<!-- 4&#45;&#45;47 -->
<g id="edge8" class="edge">
<title>4&#45;&#45;47</title>
<path fill="none" stroke="green" stroke-width="2" d="M674.14,-505.81C671.87,-495.22 668.97,-481.74 666.59,-470.71"/>
</g>
<!-- 5 -->
<g id="node6" class="node">
<title>5</title>
<ellipse fill="#b2dfee" stroke="black" cx="684.12" cy="-121.5" rx="18" ry="18"/>
<text text-anchor="middle" x="684.12" y="-117.8" font-family="Arial" font-size="14.00">5</text>
</g>
<!-- 6 -->
<g id="node7" class="node">
<title>6</title>
<ellipse fill="#9ac0cd" stroke="black" cx="647.43" cy="-168.01" rx="18" ry="18"/>
<text text-anchor="middle" x="647.43" y="-164.31" font-family="Arial" font-size="14.00">6</text>
</g>
<!-- 5&#45;&#45;6 -->
<g id="edge9" class="edge">
<title>5&#45;&#45;6</title>
<path fill="none" stroke="green" stroke-width="2" d="M672.91,-135.71C668.44,-141.37 663.31,-147.88 658.82,-153.57"/>
</g>
<!-- 30 -->
<g id="node31" class="node">
<title>30</title>
<ellipse fill="skyblue" stroke="black" cx="616.23" cy="-121.11" rx="20.6" ry="20.6"/>
<text text-anchor="middle" x="616.23" y="-117.41" font-family="Arial" font-size="14.00">30</text>
</g>
<!-- 6&#45;&#45;30 -->
<g id="edge10" class="edge">
<title>6&#45;&#45;30</title>
<path fill="none" stroke="green" stroke-width="2" d="M637.39,-152.91C634.32,-148.31 630.93,-143.21 627.77,-138.46"/>
</g>
<!-- 7 -->
<g id="node8" class="node">
<title>7</title>
<ellipse fill="lightblue" stroke="black" cx="249.14" cy="-423.61" rx="18" ry="18"/>
<text text-anchor="middle" x="249.14" y="-419.91" font-family="Arial" font-size="14.00">7</text>
</g>
<!-- 8 -->
<g id="node9" class="node">
<title>8</title>
<ellipse fill="#b2dfee" stroke="black" cx="608.56" cy="-666.76" rx="18" ry="18"/>
<text text-anchor="middle" x="608.56" y="-663.06" font-family="Arial" font-size="14.00">8</text>
</g>
<!-- 15 -->
<g id="node16" class="node">
<title>15</title>
<ellipse fill="skyblue" stroke="black" cx="561.75" cy="-640.27" rx="20.6" ry="20.6"/>
<text text-anchor="middle" x="561.75" y="-636.57" font-family="Arial" font-size="14.00">15</text>
</g>
<!-- 8&#45;&#45;15 -->
<g id="edge11" class="edge">
<title>8&#45;&#45;15</title>
<path fill="none" stroke="green" stroke-width="2" d="M592.71,-657.79C588.68,-655.51 584.31,-653.04 580.16,-650.69"/>
</g>
<!-- 9 -->
<g id="node10" class="node">
<title>9</title>
<ellipse fill="#68838b" stroke="black" cx="685.89" cy="-269.12" rx="18" ry="18"/>
<text text-anchor="middle" x="685.89" y="-265.42" font-family="Arial" font-size="14.00">9</text>
</g>
<!-- 16 -->
<g id="node17" class="node">
<title>16</title>
<ellipse fill="#b2dfee" stroke="black" cx="448.64" cy="-334.02" rx="20.6" ry="20.6"/>
<text text-anchor="middle" x="448.64" y="-330.32" font-family="Arial" font-size="14.00">16</text>
</g>
<!-- 9&#45;&#45;16 -->
<g id="edge12" class="edge">
<title>9&#45;&#45;16</title>
<path fill="none" stroke="green" stroke-width="2" d="M668.71,-275.39C642.84,-284.56 592.17,-301.42 547.67,-309.78 526.07,-313.84 519.78,-308.9 498.4,-314 487.89,-316.5 476.69,-320.85 467.58,-324.85"/>
</g>
<!-- 9&#45;&#45;30 -->
<g id="edge13" class="edge">
<title>9&#45;&#45;30</title>
<path fill="none" stroke="green" stroke-width="2" d="M670.84,-258.77C661.51,-251.73 649.85,-241.7 641.99,-230.62 631.99,-216.53 623.5,-169.57 619.21,-141.93"/>
</g>
<!-- 60 -->
<g id="node61" class="node">
<title>60</title>
<ellipse fill="#b2dfee" stroke="black" cx="562.91" cy="-507.61" rx="20.6" ry="20.6"/>
<text text-anchor="middle" x="562.91" y="-503.91" font-family="Arial" font-size="14.00">60</text>
</g>
<!-- 9&#45;&#45;60 -->
<g id="edge14" class="edge">
<title>9&#45;&#45;60</title>
<path fill="none" stroke="green" stroke-width="2" d="M669.68,-277.61C660.31,-283.18 648.86,-291.2 641.01,-300.8 594.02,-358.31 573.45,-447.03 566.2,-486.93"/>
</g>
<!-- 10 -->
<g id="node11" class="node">
<title>10</title>
<ellipse fill="#9ac0cd" stroke="black" cx="283.7" cy="-586.34" rx="20.6" ry="20.6"/>
<text text-anchor="middle" x="283.7" y="-582.64" font-family="Arial" font-size="14.00">10</text>
</g>
<!-- 10&#45;&#45;76 -->
<g id="edge15" class="edge">
<title>10&#45;&#45;76</title>
<path fill="none" stroke="green" stroke-width="2" d="M267.77,-600.34C258.46,-608.51 246.76,-618.8 237.5,-626.93"/>
</g>
<!-- 90 -->
<g id="node91" class="node">
<title>90</title>
<ellipse fill="#b2dfee" stroke="black" cx="397.1" cy="-560.77" rx="20.6" ry="20.6"/>
<text text-anchor="middle" x="397.1" y="-557.07" font-family="Arial" font-size="14.00">90</text>
</g>
<!-- 10&#45;&#45;90 -->
<g id="edge16" class="edge">
<title>10&#45;&#45;90</title>
<path fill="none" stroke="green" stroke-width="2" d="M304.49,-587.38C316.98,-587.56 333.11,-587.02 347.12,-584.03 354.57,-582.45 356.06,-580.74 363.02,-577.62 368.08,-575.36 373.48,-572.76 378.47,-570.3"/>
</g>
<!-- 11 -->
<g id="node12" class="node">
<title>11</title>
<ellipse fill="#b2dfee" stroke="black" cx="116.21" cy="-266.46" rx="20.6" ry="20.6"/>
<text text-anchor="middle" x="116.21" y="-262.76" font-family="Arial" font-size="14.00">11</text>
</g>
<!-- 55 -->
<g id="node56" class="node">
<title>55</title>
<ellipse fill="#68838b" stroke="black" cx="200.6" cy="-214.84" rx="20.6" ry="20.6"/>
<text text-anchor="middle" x="200.6" y="-211.14" font-family="Arial" font-size="14.00">55</text>
</g>
<!-- 11&#45;&#45;55 -->
<g id="edge17" class="edge">
<title>11&#45;&#45;55</title>
<path fill="none" stroke="green" stroke-width="2" d="M134.11,-255.52C148.43,-246.76 168.41,-234.53 182.73,-225.77"/>
</g>
<!-- 12 -->
<g id="node13" class="node">
<title>12</title>
<ellipse fill="lightblue" stroke="black" cx="686.95" cy="-570.55" rx="20.6" ry="20.6"/>
<text text-anchor="middle" x="686.95" y="-566.85" font-family="Arial" font-size="14.00">12</text>
</g>
<!-- 13 -->
<g id="node14" class="node">
<title>13</title>
<ellipse fill="#b2dfee" stroke="black" cx="137.4" cy="-316.06" rx="20.6" ry="20.6"/>
<text text-anchor="middle" x="137.4" y="-312.36" font-family="Arial" font-size="14.00">13</text>
</g>
<!-- 92 -->
<g id="node93" class="node">
<title>92</title>
<ellipse fill="skyblue" stroke="black" cx="165.97" cy="-264.47" rx="20.6" ry="20.6"/>
<text text-anchor="middle" x="165.97" y="-260.77" font-family="Arial" font-size="14.00">92</text>
</g>
<!-- 13&#45;&#45;92 -->
<g id="edge18" class="edge">
<title>13&#45;&#45;92</title>
<path fill="none" stroke="green" stroke-width="2" d="M147.55,-297.73C150.25,-292.86 153.16,-287.61 155.85,-282.75"/>
</g>
<!-- 14 -->
<g id="node15" class="node">
<title>14</title>
<ellipse fill="#b2dfee" stroke="black" cx="159.65" cy="-141.88" rx="20.6" ry="20.6"/>
<text text-anchor="middle" x="159.65" y="-138.18" font-family="Arial" font-size="14.00">14</text>
</g>
<!-- 43 -->
<g id="node44" class="node">
<title>43</title>
<ellipse fill="skyblue" stroke="black" cx="150.98" cy="-200.6" rx="20.6" ry="20.6"/>
<text text-anchor="middle" x="150.98" y="-196.9" font-family="Arial" font-size="14.00">43</text>
</g>
<!-- 14&#45;&#45;43 -->
<g id="edge19" class="edge">
<title>14&#45;&#45;43</title>
<path fill="none" stroke="green" stroke-width="2" d="M156.57,-162.75C155.75,-168.29 154.87,-174.27 154.05,-179.8"/>
</g>
<!-- 40 -->
<g id="node41" class="node">
<title>40</title>
<ellipse fill="#b2dfee" stroke="black" cx="612.55" cy="-617.31" rx="20.6" ry="20.6"/>
<text text-anchor="middle" x="612.55" y="-613.61" font-family="Arial" font-size="14.00">40</text>
</g>
<!-- 15&#45;&#45;40 -->
<g id="edge20" class="edge">
<title>15&#45;&#45;40</title>
<path fill="none" stroke="green" stroke-width="2" d="M580.95,-631.59C585,-629.76 589.27,-627.83 593.32,-626"/>
</g>
<!-- 15&#45;&#45;63 -->
<g id="edge21" class="edge">
<title>15&#45;&#45;63</title>
<path fill="none" stroke="green" stroke-width="2" d="M548.7,-623.95C531.55,-601.98 501.18,-561.23 480.58,-523.15 476.96,-516.45 476.06,-514.64 474.14,-507.26 469.79,-490.63 473.34,-485.59 469.29,-468.88 460.05,-430.7 450.48,-423.41 439.04,-385.83 432.12,-363.08 429.55,-357.43 426.24,-333.89 419.18,-283.72 427.59,-270.32 421.92,-219.98 419.44,-197.88 414.45,-172.89 410.72,-155.86"/>
</g>
<!-- 77 -->
<g id="node78" class="node">
<title>77</title>
<ellipse fill="#b2dfee" stroke="black" cx="476.93" cy="-599.51" rx="20.6" ry="20.6"/>
<text text-anchor="middle" x="476.93" y="-595.81" font-family="Arial" font-size="14.00">77</text>
</g>
<!-- 15&#45;&#45;77 -->
<g id="edge22" class="edge">
<title>15&#45;&#45;77</title>
<path fill="none" stroke="green" stroke-width="2" d="M542.92,-631.22C528.87,-624.47 509.74,-615.28 495.7,-608.53"/>
</g>
<!-- 84 -->
<g id="node85" class="node">
<title>84</title>
<ellipse fill="#b2dfee" stroke="black" cx="543.28" cy="-560.19" rx="20.6" ry="20.6"/>
<text text-anchor="middle" x="543.28" y="-556.49" font-family="Arial" font-size="14.00">84</text>
</g>
<!-- 15&#45;&#45;84 -->
<g id="edge23" class="edge">
<title>15&#45;&#45;84</title>
<path fill="none" stroke="green" stroke-width="2" d="M556.99,-619.65C554.21,-607.6 550.72,-592.45 547.95,-580.46"/>
</g>
<!-- 17 -->
<g id="node18" class="node">
<title>17</title>
<ellipse fill="#b2dfee" stroke="black" cx="599.42" cy="-179.49" rx="20.6" ry="20.6"/>
<text text-anchor="middle" x="599.42" y="-175.79" font-family="Arial" font-size="14.00">17</text>
</g>
<!-- 35 -->
<g id="node36" class="node">
<title>35</title>
<ellipse fill="#9ac0cd" stroke="black" cx="657.97" cy="-214.93" rx="20.6" ry="20.6"/>
<text text-anchor="middle" x="657.97" y="-211.23" font-family="Arial" font-size="14.00">35</text>
</g>
<!-- 17&#45;&#45;35 -->
<g id="edge24" class="edge">
<title>17&#45;&#45;35</title>
<path fill="none" stroke="green" stroke-width="2" d="M617.3,-190.31C624.43,-194.63 632.63,-199.59 639.79,-203.92"/>
</g>
<!-- 18 -->
<g id="node19" class="node">
<title>18</title>
<ellipse fill="#b2dfee" stroke="black" cx="465.2" cy="-20.86" rx="20.6" ry="20.6"/>
<text text-anchor="middle" x="465.2" y="-17.16" font-family="Arial" font-size="14.00">18</text>
</g>
<!-- 18&#45;&#45;63 -->
<g id="edge25" class="edge">
<title>18&#45;&#45;63</title>
<path fill="none" stroke="green" stroke-width="2" d="M455.56,-39.54C444.55,-60.85 426.65,-95.52 415.64,-116.84"/>
</g>
<!-- 19 -->
<g id="node20" class="node">
<title>19</title>
<ellipse fill="skyblue" stroke="black" cx="225.78" cy="-165.21" rx="20.6" ry="20.6"/>
<text text-anchor="middle" x="225.78" y="-161.51" font-family="Arial" font-size="14.00">19</text>
</g>
<!-- 19&#45;&#45;43 -->
<g id="edge26" class="edge">
<title>19&#45;&#45;43</title>
<path fill="none" stroke="green" stroke-width="2" d="M206.91,-174.14C195.57,-179.51 181.19,-186.31 169.85,-191.67"/>
</g>
<!-- 46 -->
<g id="node47" class="node">
<title>46</title>
<ellipse fill="skyblue" stroke="black" cx="228.55" cy="-533.84" rx="20.6" ry="20.6"/>
<text text-anchor="middle" x="228.55" y="-530.14" font-family="Arial" font-size="14.00">46</text>
</g>
<!-- 19&#45;&#45;46 -->
<g id="edge27" class="edge">
<title>19&#45;&#45;46</title>
<path fill="none" stroke="green" stroke-width="2" d="M225.53,-186.09C225.49,-203.82 225.88,-229.92 227.95,-252.59 232.51,-302.6 248.32,-314.05 245.61,-364.19 244.14,-391.43 231.71,-396.23 229.54,-423.42 227.86,-444.4 234.42,-449.47 234.54,-470.52 234.62,-484.77 233.1,-500.73 231.57,-513.07"/>
</g>
<!-- 48 -->
<g id="node49" class="node">
<title>48</title>
<ellipse fill="red" stroke="black" cx="501.49" cy="-135.87" rx="20.6" ry="20.6"/>
<text text-anchor="middle" x="501.49" y="-132.17" font-family="Arial" font-size="14.00" fill="white">48</text>
</g>
<!-- 19&#45;&#45;48 -->
<g id="edge28" class="edge">
<title>19&#45;&#45;48</title>
<path fill="none" stroke="green" stroke-width="2" d="M246.56,-166.44C255.43,-166.65 265.87,-166.47 275.23,-165.22 298.02,-162.17 302.25,-153.77 325.14,-151.61 360.98,-148.22 369.99,-160.58 405.89,-157.9 432.56,-155.92 462.47,-148.08 481.62,-142.32"/>
</g>
<!-- 52 -->
<g id="node53" class="node">
<title>52</title>
<ellipse fill="#b2dfee" stroke="black" cx="364.96" cy="-41.52" rx="20.6" ry="20.6"/>
<text text-anchor="middle" x="364.96" y="-37.82" font-family="Arial" font-size="14.00">52</text>
</g>
<!-- 19&#45;&#45;52 -->
<g id="edge29" class="edge">
<title>19&#45;&#45;52</title>
<path fill="none" stroke="green" stroke-width="2" d="M238.57,-148.42C244.52,-141.26 251.98,-133.13 259.71,-126.86 281.62,-109.07 292.77,-112.98 314.89,-95.46 328.91,-84.35 342.57,-69.26 352.07,-57.86"/>
</g>
<!-- 19&#45;&#45;55 -->
<g id="edge30" class="edge">
<title>19&#45;&#45;55</title>
<path fill="none" stroke="green" stroke-width="2" d="M216.26,-183.98C214.25,-187.93 212.14,-192.1 210.13,-196.05"/>
</g>
<!-- 94 -->
<g id="node95" class="node">
<title>94</title>
<ellipse fill="#b2dfee" stroke="black" cx="275.42" cy="-142.82" rx="20.6" ry="20.6"/>
<text text-anchor="middle" x="275.42" y="-139.12" font-family="Arial" font-size="14.00">94</text>
</g>
<!-- 19&#45;&#45;94 -->
<g id="edge31" class="edge">
<title>19&#45;&#45;94</title>
<path fill="none" stroke="green" stroke-width="2" d="M244.83,-156.62C248.55,-154.94 252.45,-153.18 256.17,-151.5"/>
</g>
<!-- 20 -->
<g id="node21" class="node">
<title>20</title>
<ellipse fill="#b2dfee" stroke="black" cx="177.61" cy="-520.12" rx="20.6" ry="20.6"/>
<text text-anchor="middle" x="177.61" y="-516.42" font-family="Arial" font-size="14.00">20</text>
</g>
<!-- 61 -->
<g id="node62" class="node">
<title>61</title>
<ellipse fill="#68838b" stroke="black" cx="453.4" cy="-234.76" rx="20.6" ry="20.6"/>
<text text-anchor="middle" x="453.4" y="-231.06" font-family="Arial" font-size="14.00">61</text>
</g>
<!-- 20&#45;&#45;61 -->
<g id="edge32" class="edge">
<title>20&#45;&#45;61</title>
<path fill="none" stroke="green" stroke-width="2" d="M195.79,-509.75C205.8,-503.6 218.14,-495.28 227.93,-486.34 231.58,-483.01 337.05,-352.03 340.1,-348.14 359.39,-323.56 360.85,-314.57 382.59,-292.12 399.32,-274.84 421.15,-257.86 436.12,-246.91"/>
</g>
<!-- 21 -->
<g id="node22" class="node">
<title>21</title>
<ellipse fill="#9ac0cd" stroke="black" cx="299.08" cy="-79.59" rx="20.6" ry="20.6"/>
<text text-anchor="middle" x="299.08" y="-75.89" font-family="Arial" font-size="14.00">21</text>
</g>
<!-- 38 -->
<g id="node39" class="node">
<title>38</title>
<ellipse fill="#b2dfee" stroke="black" cx="311.38" cy="-500.92" rx="20.6" ry="20.6"/>
<text text-anchor="middle" x="311.38" y="-497.22" font-family="Arial" font-size="14.00">38</text>
</g>
<!-- 21&#45;&#45;38 -->
<g id="edge33" class="edge">
<title>21&#45;&#45;38</title>
<path fill="none" stroke="green" stroke-width="2" d="M299.46,-100.48C299.48,-112.87 299.17,-128.87 297.82,-143.01 292.81,-195.31 278.3,-206.97 277.71,-259.51 277.11,-312.26 287.94,-324.65 295.24,-376.89 300.32,-413.24 305.73,-455.65 308.82,-480.28"/>
</g>
<!-- 69 -->
<g id="node70" class="node">
<title>69</title>
<ellipse fill="skyblue" stroke="black" cx="619.91" cy="-400.54" rx="20.6" ry="20.6"/>
<text text-anchor="middle" x="619.91" y="-396.84" font-family="Arial" font-size="14.00">69</text>
</g>
<!-- 21&#45;&#45;69 -->
<g id="edge34" class="edge">
<title>21&#45;&#45;69</title>
<path fill="none" stroke="green" stroke-width="2" d="M311.17,-96.52C318.95,-106.87 329.63,-120.06 340.5,-130.44 378.69,-166.85 391.47,-172.66 436.01,-200.97 450.22,-210.01 456.6,-207.99 469.34,-219.02 504.55,-249.5 500.09,-269.06 531.9,-303.07 544.6,-316.66 550.78,-316.89 563.72,-330.26 580.23,-347.32 596.95,-368.9 607.8,-383.61"/>
</g>
<!-- 22 -->
<g id="node23" class="node">
<title>22</title>
<ellipse fill="lightblue" stroke="black" cx="223.22" cy="-364.19" rx="20.6" ry="20.6"/>
<text text-anchor="middle" x="223.22" y="-360.49" font-family="Arial" font-size="14.00">22</text>
</g>
<!-- 23 -->
<g id="node24" class="node">
<title>23</title>
<ellipse fill="#b2dfee" stroke="black" cx="101.34" cy="-191.14" rx="20.6" ry="20.6"/>
<text text-anchor="middle" x="101.34" y="-187.44" font-family="Arial" font-size="14.00">23</text>
</g>
<!-- 23&#45;&#45;43 -->
<g id="edge35" class="edge">
<title>23&#45;&#45;43</title>
<path fill="none" stroke="green" stroke-width="2" d="M121.82,-195.04C124.6,-195.57 127.45,-196.11 130.23,-196.64"/>
</g>
<!-- 24 -->
<g id="node25" class="node">
<title>24</title>
<ellipse fill="lightblue" stroke="black" cx="51.33" cy="-532.71" rx="20.6" ry="20.6"/>
<text text-anchor="middle" x="51.33" y="-529.01" font-family="Arial" font-size="14.00">24</text>
</g>
<!-- 25 -->
<g id="node26" class="node">
<title>25</title>
<ellipse fill="#b2dfee" stroke="black" cx="100.96" cy="-494.63" rx="20.6" ry="20.6"/>
<text text-anchor="middle" x="100.96" y="-490.93" font-family="Arial" font-size="14.00">25</text>
</g>
<!-- 25&#45;&#45;46 -->
<g id="edge36" class="edge">
<title>25&#45;&#45;46</title>
<path fill="none" stroke="green" stroke-width="2" d="M121.7,-491.96C141.6,-490.46 171.76,-491.05 193.54,-504.38 200.45,-508.61 207.42,-514.15 213.29,-519.28"/>
</g>
<!-- 27 -->
<g id="node28" class="node">
<title>27</title>
<ellipse fill="lightblue" stroke="black" cx="261.74" cy="-480.57" rx="20.6" ry="20.6"/>
<text text-anchor="middle" x="261.74" y="-476.87" font-family="Arial" font-size="14.00">27</text>
</g>
<!-- 28 -->
<g id="node29" class="node">
<title>28</title>
<ellipse fill="#b2dfee" stroke="black" cx="612.54" cy="-469.21" rx="20.6" ry="20.6"/>
<text text-anchor="middle" x="612.54" y="-465.51" font-family="Arial" font-size="14.00">28</text>
</g>
<!-- 28&#45;&#45;47 -->
<g id="edge37" class="edge">
<title>28&#45;&#45;47</title>
<path fill="none" stroke="green" stroke-width="2" d="M632.17,-461.73C635.64,-460.41 639.25,-459.03 642.72,-457.71"/>
</g>
<!-- 29 -->
<g id="node30" class="node">
<title>29</title>
<ellipse fill="lightblue" stroke="black" cx="662.2" cy="-620.34" rx="20.6" ry="20.6"/>
<text text-anchor="middle" x="662.2" y="-616.64" font-family="Arial" font-size="14.00">29</text>
</g>
<!-- 30&#45;&#45;35 -->
<g id="edge38" class="edge">
<title>30&#45;&#45;35</title>
<path fill="none" stroke="green" stroke-width="2" d="M619.6,-141.74C622.19,-153.96 626.55,-169.43 633.55,-181.84 636.77,-187.56 640.83,-193.44 644.71,-198.63"/>
</g>
<!-- 30&#45;&#45;48 -->
<g id="edge39" class="edge">
<title>30&#45;&#45;48</title>
<path fill="none" stroke="green" stroke-width="2" d="M595.45,-123.78C574.78,-126.44 543.25,-130.5 522.5,-133.17"/>
</g>
<!-- 88 -->
<g id="node89" class="node">
<title>88</title>
<ellipse fill="#9ac0cd" stroke="black" cx="461.44" cy="-386.03" rx="20.6" ry="20.6"/>
<text text-anchor="middle" x="461.44" y="-382.33" font-family="Arial" font-size="14.00">88</text>
</g>
<!-- 30&#45;&#45;88 -->
<g id="edge40" class="edge">
<title>30&#45;&#45;88</title>
<path fill="none" stroke="green" stroke-width="2" d="M602.67,-137.08C596.45,-144.81 589.23,-154.4 583.61,-163.62 573.72,-179.86 574.93,-185.88 565.38,-202.33 533.18,-257.79 513.58,-264.35 482.52,-320.45 474.64,-334.68 469.18,-352.3 465.8,-365.69"/>
</g>
<!-- 30&#45;&#45;92 -->
<g id="edge41" class="edge">
<title>30&#45;&#45;92</title>
<path fill="none" stroke="green" stroke-width="2" d="M596.67,-128.92C574.11,-137.59 535.69,-151.26 501.42,-158.27 479.76,-162.7 473.51,-158.21 451.88,-162.75 359.47,-182.15 339.04,-197.6 250.47,-230.32 227.91,-238.66 202.35,-249.13 185.31,-256.27"/>
</g>
<!-- 31 -->
<g id="node32" class="node">
<title>31</title>
<ellipse fill="#b2dfee" stroke="black" cx="597.49" cy="-323.97" rx="20.6" ry="20.6"/>
<text text-anchor="middle" x="597.49" y="-320.27" font-family="Arial" font-size="14.00">31</text>
</g>
<!-- 31&#45;&#45;69 -->
<g id="edge42" class="edge">
<title>31&#45;&#45;69</title>
<path fill="none" stroke="green" stroke-width="2" d="M603.38,-344.08C606.68,-355.34 610.77,-369.32 614.06,-380.56"/>
</g>
<!-- 32 -->
<g id="node33" class="node">
<title>32</title>
<ellipse fill="#b2dfee" stroke="black" cx="669.54" cy="-366.43" rx="20.6" ry="20.6"/>
<text text-anchor="middle" x="669.54" y="-362.73" font-family="Arial" font-size="14.00">32</text>
</g>
<!-- 32&#45;&#45;69 -->
<g id="edge43" class="edge">
<title>32&#45;&#45;69</title>
<path fill="none" stroke="green" stroke-width="2" d="M652.18,-378.36C647.37,-381.67 642.15,-385.25 637.34,-388.56"/>
</g>
<!-- 33 -->
<g id="node34" class="node">
<title>33</title>
<ellipse fill="#b2dfee" stroke="black" cx="203.57" cy="-314.35" rx="20.6" ry="20.6"/>
<text text-anchor="middle" x="203.57" y="-310.65" font-family="Arial" font-size="14.00">33</text>
</g>
<!-- 33&#45;&#45;92 -->
<g id="edge44" class="edge">
<title>33&#45;&#45;92</title>
<path fill="none" stroke="green" stroke-width="2" d="M191.05,-297.74C187.04,-292.41 182.59,-286.51 178.57,-281.18"/>
</g>
<!-- 34 -->
<g id="node35" class="node">
<title>34</title>
<ellipse fill="#b2dfee" stroke="black" cx="719.17" cy="-415.17" rx="20.6" ry="20.6"/>
<text text-anchor="middle" x="719.17" y="-411.47" font-family="Arial" font-size="14.00">34</text>
</g>
<!-- 34&#45;&#45;69 -->
<g id="edge45" class="edge">
<title>34&#45;&#45;69</title>
<path fill="none" stroke="green" stroke-width="2" d="M698.12,-412.07C681.16,-409.57 657.45,-406.07 640.59,-403.59"/>
</g>
<!-- 41 -->
<g id="node42" class="node">
<title>41</title>
<ellipse fill="#9ac0cd" stroke="black" cx="511.3" cy="-402.81" rx="20.6" ry="20.6"/>
<text text-anchor="middle" x="511.3" y="-399.11" font-family="Arial" font-size="14.00">41</text>
</g>
<!-- 36&#45;&#45;41 -->
<g id="edge46" class="edge">
<title>36&#45;&#45;41</title>
<path fill="none" stroke="green" stroke-width="2" d="M536.49,-363.72C532.13,-370.49 527.16,-378.21 522.79,-384.99"/>
</g>
<!-- 36&#45;&#45;48 -->
<g id="edge47" class="edge">
<title>36&#45;&#45;48</title>
<path fill="none" stroke="green" stroke-width="2" d="M539.49,-327.04C534.77,-315.66 529.12,-300.81 525.49,-287.17 513.31,-241.43 506.46,-186.15 503.42,-156.71"/>
</g>
<!-- 70 -->
<g id="node71" class="node">
<title>70</title>
<ellipse fill="#9ac0cd" stroke="black" cx="335.95" cy="-401.67" rx="20.6" ry="20.6"/>
<text text-anchor="middle" x="335.95" y="-397.97" font-family="Arial" font-size="14.00">70</text>
</g>
<!-- 36&#45;&#45;70 -->
<g id="edge48" class="edge">
<title>36&#45;&#45;70</title>
<path fill="none" stroke="green" stroke-width="2" d="M527.65,-351.82C518.65,-354.23 507.9,-356.9 498.09,-358.79 482.05,-361.9 477.62,-360.18 461.64,-363.63 423.53,-371.87 380.25,-386.08 355.71,-394.6"/>
</g>
<!-- 96 -->
<g id="node97" class="node">
<title>96</title>
<ellipse fill="#b2dfee" stroke="black" cx="547.88" cy="-287.38" rx="20.6" ry="20.6"/>
<text text-anchor="middle" x="547.88" y="-283.68" font-family="Arial" font-size="14.00">96</text>
</g>
<!-- 36&#45;&#45;96 -->
<g id="edge49" class="edge">
<title>36&#45;&#45;96</title>
<path fill="none" stroke="green" stroke-width="2" d="M547.87,-325.22C547.87,-319.82 547.87,-313.99 547.88,-308.57"/>
</g>
<!-- 37 -->
<g id="node38" class="node">
<title>37</title>
<ellipse fill="#b2dfee" stroke="black" cx="32.62" cy="-595.24" rx="20.6" ry="20.6"/>
<text text-anchor="middle" x="32.62" y="-591.54" font-family="Arial" font-size="14.00">37</text>
</g>
<!-- 89 -->
<g id="node90" class="node">
<title>89</title>
<ellipse fill="skyblue" stroke="black" cx="20.73" cy="-644.87" rx="20.6" ry="20.6"/>
<text text-anchor="middle" x="20.73" y="-641.17" font-family="Arial" font-size="14.00">89</text>
</g>
<!-- 37&#45;&#45;89 -->
<g id="edge50" class="edge">
<title>37&#45;&#45;89</title>
<path fill="none" stroke="green" stroke-width="2" d="M27.72,-615.71C27.03,-618.6 26.32,-621.56 25.62,-624.45"/>
</g>
<!-- 39 -->
<g id="node40" class="node">
<title>39</title>
<ellipse fill="#b2dfee" stroke="black" cx="627.55" cy="-519.87" rx="20.6" ry="20.6"/>
<text text-anchor="middle" x="627.55" y="-516.17" font-family="Arial" font-size="14.00">39</text>
</g>
<!-- 39&#45;&#45;47 -->
<g id="edge51" class="edge">
<title>39&#45;&#45;47</title>
<path fill="none" stroke="green" stroke-width="2" d="M636.84,-501.22C641.81,-491.24 647.91,-478.97 652.89,-468.98"/>
</g>
<!-- 50 -->
<g id="node51" class="node">
<title>50</title>
<ellipse fill="#b2dfee" stroke="black" cx="498.25" cy="-336.39" rx="20.6" ry="20.6"/>
<text text-anchor="middle" x="498.25" y="-332.69" font-family="Arial" font-size="14.00">50</text>
</g>
<!-- 41&#45;&#45;50 -->
<g id="edge52" class="edge">
<title>41&#45;&#45;50</title>
<path fill="none" stroke="green" stroke-width="2" d="M507.24,-382.16C505.65,-374.09 503.84,-364.85 502.26,-356.81"/>
</g>
<!-- 42 -->
<g id="node43" class="node">
<title>42</title>
<ellipse fill="skyblue" stroke="black" cx="446.83" cy="-528.4" rx="20.6" ry="20.6"/>
<text text-anchor="middle" x="446.83" y="-524.7" font-family="Arial" font-size="14.00">42</text>
</g>
<!-- 49 -->
<g id="node50" class="node">
<title>49</title>
<ellipse fill="#b2dfee" stroke="black" cx="514.45" cy="-457.78" rx="20.6" ry="20.6"/>
<text text-anchor="middle" x="514.45" y="-454.08" font-family="Arial" font-size="14.00">49</text>
</g>
<!-- 42&#45;&#45;49 -->
<g id="edge53" class="edge">
<title>42&#45;&#45;49</title>
<path fill="none" stroke="green" stroke-width="2" d="M460.91,-512.82C466.97,-506.18 474.18,-498.39 480.81,-491.47 486.87,-485.15 493.68,-478.28 499.58,-472.41"/>
</g>
<!-- 59 -->
<g id="node60" class="node">
<title>59</title>
<ellipse fill="#b2dfee" stroke="black" cx="446.9" cy="-468.82" rx="20.6" ry="20.6"/>
<text text-anchor="middle" x="446.9" y="-465.12" font-family="Arial" font-size="14.00">59</text>
</g>
<!-- 42&#45;&#45;59 -->
<g id="edge54" class="edge">
<title>42&#45;&#45;59</title>
<path fill="none" stroke="green" stroke-width="2" d="M446.85,-507.56C446.86,-501.79 446.86,-495.52 446.87,-489.75"/>
</g>
<!-- 42&#45;&#45;78 -->
<g id="edge55" class="edge">
<title>42&#45;&#45;78</title>
<path fill="none" stroke="green" stroke-width="2" d="M437.75,-509.56C432.74,-498.07 427.02,-482.91 424.5,-468.76 422.7,-458.67 424.96,-294.46 425.55,-284.23 426.82,-262.08 425.42,-256.08 431,-234.61 433.72,-224.15 438.26,-213.01 442.41,-203.96"/>
</g>
<!-- 82 -->
<g id="node83" class="node">
<title>82</title>
<ellipse fill="#b2dfee" stroke="black" cx="192.81" cy="-87.13" rx="20.6" ry="20.6"/>
<text text-anchor="middle" x="192.81" y="-83.43" font-family="Arial" font-size="14.00">82</text>
</g>
<!-- 42&#45;&#45;82 -->
<g id="edge56" class="edge">
<title>42&#45;&#45;82</title>
<path fill="none" stroke="green" stroke-width="2" d="M434.17,-511.46C420.88,-493.2 399.91,-462.99 385.07,-434.99 381.51,-428.26 381.43,-426.19 378.56,-419.13 366.92,-390.57 362.25,-384.07 352.59,-354.77 349.36,-345 349.69,-342.22 346.76,-332.35 337.09,-299.71 334.36,-291.6 322.5,-259.69 319.85,-252.54 319.84,-250.41 316.01,-243.82 283.26,-187.61 232.17,-129.45 207.34,-102.53"/>
</g>
<!-- 98 -->
<g id="node99" class="node">
<title>98</title>
<ellipse fill="#b2dfee" stroke="black" cx="351.32" cy="-451.29" rx="20.6" ry="20.6"/>
<text text-anchor="middle" x="351.32" y="-447.59" font-family="Arial" font-size="14.00">98</text>
</g>
<!-- 42&#45;&#45;98 -->
<g id="edge57" class="edge">
<title>42&#45;&#45;98</title>
<path fill="none" stroke="green" stroke-width="2" d="M430.63,-515.32C413.06,-501.14 385.2,-478.64 367.6,-464.43"/>
</g>
<!-- 66 -->
<g id="node67" class="node">
<title>66</title>
<ellipse fill="#b2dfee" stroke="black" cx="134.08" cy="-91.87" rx="20.6" ry="20.6"/>
<text text-anchor="middle" x="134.08" y="-88.17" font-family="Arial" font-size="14.00">66</text>
</g>
<!-- 43&#45;&#45;66 -->
<g id="edge58" class="edge">
<title>43&#45;&#45;66</title>
<path fill="none" stroke="green" stroke-width="2" d="M145.38,-180.3C142.49,-169.02 139.17,-154.66 137.25,-141.67 135.87,-132.24 135.08,-121.72 134.65,-112.79"/>
</g>
<!-- 44 -->
<g id="node45" class="node">
<title>44</title>
<ellipse fill="#b2dfee" stroke="black" cx="131.87" cy="-569.72" rx="20.6" ry="20.6"/>
<text text-anchor="middle" x="131.87" y="-566.02" font-family="Arial" font-size="14.00">44</text>
</g>
<!-- 44&#45;&#45;46 -->
<g id="edge59" class="edge">
<title>44&#45;&#45;46</title>
<path fill="none" stroke="green" stroke-width="2" d="M151.44,-562.46C168.21,-556.23 192.25,-547.31 209.02,-541.09"/>
</g>
<!-- 45 -->
<g id="node46" class="node">
<title>45</title>
<ellipse fill="#68838b" stroke="black" cx="496.53" cy="-507.42" rx="20.6" ry="20.6"/>
<text text-anchor="middle" x="496.53" y="-503.72" font-family="Arial" font-size="14.00">45</text>
</g>
<!-- 58 -->
<g id="node59" class="node">
<title>58</title>
<ellipse fill="#b2dfee" stroke="black" cx="347.33" cy="-561.64" rx="20.6" ry="20.6"/>
<text text-anchor="middle" x="347.33" y="-557.94" font-family="Arial" font-size="14.00">58</text>
</g>
<!-- 45&#45;&#45;58 -->
<g id="edge60" class="edge">
<title>45&#45;&#45;58</title>
<path fill="none" stroke="green" stroke-width="2" d="M475.62,-504.9C466.7,-504.32 456.23,-504.3 446.9,-506 414.56,-511.9 382.29,-533.54 363.6,-548.03"/>
</g>
<!-- 45&#45;&#45;76 -->
<g id="edge61" class="edge">
<title>45&#45;&#45;76</title>
<path fill="none" stroke="green" stroke-width="2" d="M483.15,-523.69C477.21,-530.43 469.92,-538.11 462.61,-544.29 442.48,-561.31 436.24,-564.39 412.9,-576.65 354.36,-607.39 278.12,-627.65 242.22,-636.15"/>
</g>
<!-- 79 -->
<g id="node80" class="node">
<title>79</title>
<ellipse fill="#b2dfee" stroke="black" cx="361.01" cy="-511.17" rx="20.6" ry="20.6"/>
<text text-anchor="middle" x="361.01" y="-507.47" font-family="Arial" font-size="14.00">79</text>
</g>
<!-- 45&#45;&#45;79 -->
<g id="edge62" class="edge">
<title>45&#45;&#45;79</title>
<path fill="none" stroke="green" stroke-width="2" d="M475.28,-506.4C466.49,-506.08 456.21,-505.85 446.9,-506 424.64,-506.35 399.2,-508.05 381.81,-509.4"/>
</g>
<!-- 68 -->
<g id="node69" class="node">
<title>68</title>
<ellipse fill="#b2dfee" stroke="black" cx="172.95" cy="-365.67" rx="20.6" ry="20.6"/>
<text text-anchor="middle" x="172.95" y="-361.97" font-family="Arial" font-size="14.00">68</text>
</g>
<!-- 46&#45;&#45;68 -->
<g id="edge63" class="edge">
<title>46&#45;&#45;68</title>
<path fill="none" stroke="green" stroke-width="2" d="M216.01,-517.19C209.63,-508.29 202.02,-496.97 196.26,-486.24 179.11,-454.31 174.45,-411.62 173.26,-386.54"/>
</g>
<!-- 47&#45;&#45;63 -->
<g id="edge64" class="edge">
<title>47&#45;&#45;63</title>
<path fill="none" stroke="green" stroke-width="2" d="M657.05,-429.99C652.88,-416.29 646.02,-398.32 635.85,-384.81 618.18,-361.33 552.4,-324.13 531.9,-303.07 499.41,-269.71 504.55,-249.5 469.34,-219.02 456.6,-207.99 447.52,-213.27 436.01,-200.97 424.05,-188.19 416.2,-169.81 411.54,-155.78"/>
</g>
<!-- 48&#45;&#45;63 -->
<g id="edge65" class="edge">
<title>48&#45;&#45;63</title>
<path fill="none" stroke="green" stroke-width="2" d="M480.3,-135.79C464.36,-135.73 442.65,-135.65 426.81,-135.59"/>
</g>
<!-- 48&#45;&#45;69 -->
<g id="edge66" class="edge">
<title>48&#45;&#45;69</title>
<path fill="none" stroke="green" stroke-width="2" d="M510.46,-154.71C528.26,-192.23 566.67,-273.89 570.28,-287.59 574.43,-303.34 570.89,-308.18 575.09,-323.91 577.06,-331.28 578.12,-333 581.61,-339.77 589.51,-355.06 600.02,-371.53 608.03,-383.46"/>
</g>
<!-- 74 -->
<g id="node75" class="node">
<title>74</title>
<ellipse fill="#b2dfee" stroke="black" cx="539.29" cy="-79.99" rx="20.6" ry="20.6"/>
<text text-anchor="middle" x="539.29" y="-76.29" font-family="Arial" font-size="14.00">74</text>
</g>
<!-- 48&#45;&#45;74 -->
<g id="edge67" class="edge">
<title>48&#45;&#45;74</title>
<path fill="none" stroke="green" stroke-width="2" d="M513.24,-118.5C517.75,-111.83 522.89,-104.23 527.41,-97.55"/>
</g>
<!-- 48&#45;&#45;76 -->
<g id="edge68" class="edge">
<title>48&#45;&#45;76</title>
<path fill="none" stroke="green" stroke-width="2" d="M494.62,-155.59C489.02,-169.51 480.02,-187.94 467.68,-201 457.03,-212.27 449.22,-208.46 437.67,-218.82 403.9,-249.1 341.68,-345.78 320.2,-385.73 311.71,-401.53 315.97,-397.04 284.14,-480.71 264.85,-531.41 241.5,-590.89 229.61,-621.03"/>
</g>
<!-- 48&#45;&#45;78 -->
<g id="edge69" class="edge">
<title>48&#45;&#45;78</title>
<path fill="none" stroke="green" stroke-width="2" d="M486.6,-150.66C480.32,-156.89 473.02,-164.14 466.74,-170.37"/>
</g>
<!-- 51 -->
<g id="node52" class="node">
<title>51</title>
<ellipse fill="#68838b" stroke="black" cx="356.37" cy="-114.62" rx="20.6" ry="20.6"/>
<text text-anchor="middle" x="356.37" y="-110.92" font-family="Arial" font-size="14.00">51</text>
</g>
<!-- 51&#45;&#45;63 -->
<g id="edge70" class="edge">
<title>51&#45;&#45;63</title>
<path fill="none" stroke="green" stroke-width="2" d="M375.7,-122.76C379.29,-124.27 383.05,-125.85 386.64,-127.36"/>
</g>
<!-- 80 -->
<g id="node81" class="node">
<title>80</title>
<ellipse fill="#b2dfee" stroke="black" cx="75.9" cy="-50.34" rx="20.6" ry="20.6"/>
<text text-anchor="middle" x="75.9" y="-46.64" font-family="Arial" font-size="14.00">80</text>
</g>
<!-- 51&#45;&#45;80 -->
<g id="edge71" class="edge">
<title>51&#45;&#45;80</title>
<path fill="none" stroke="green" stroke-width="2" d="M335.54,-112.31C312.52,-109.43 274.52,-103.71 242.84,-94.36 235.53,-92.2 233.48,-91.78 227.04,-87.71 217.79,-81.87 217.94,-77.15 208.69,-71.33 202.24,-67.27 200.23,-66.68 192.86,-64.73 160.03,-56.04 120.6,-52.57 96.93,-51.2"/>
</g>
<!-- 81 -->
<g id="node82" class="node">
<title>81</title>
<ellipse fill="#b2dfee" stroke="black" cx="656.7" cy="-316.79" rx="20.6" ry="20.6"/>
<text text-anchor="middle" x="656.7" y="-313.09" font-family="Arial" font-size="14.00">81</text>
</g>
<!-- 51&#45;&#45;81 -->
<g id="edge72" class="edge">
<title>51&#45;&#45;81</title>
<path fill="none" stroke="green" stroke-width="2" d="M369.01,-131.5C383.63,-150.18 409.14,-180.37 436.01,-200.97 440.5,-204.42 585.44,-279.79 637.95,-307.06"/>
</g>
<!-- 53 -->
<g id="node54" class="node">
<title>53</title>
<ellipse fill="lightblue" stroke="black" cx="447.94" cy="-284.38" rx="20.6" ry="20.6"/>
<text text-anchor="middle" x="447.94" y="-280.68" font-family="Arial" font-size="14.00">53</text>
</g>
<!-- 54 -->
<g id="node55" class="node">
<title>54</title>
<ellipse fill="lightblue" stroke="black" cx="95.19" cy="-141.5" rx="20.6" ry="20.6"/>
<text text-anchor="middle" x="95.19" y="-137.8" font-family="Arial" font-size="14.00">54</text>
</g>
<!-- 62 -->
<g id="node63" class="node">
<title>62</title>
<ellipse fill="#b2dfee" stroke="black" cx="250.35" cy="-252.72" rx="20.6" ry="20.6"/>
<text text-anchor="middle" x="250.35" y="-249.02" font-family="Arial" font-size="14.00">62</text>
</g>
<!-- 55&#45;&#45;62 -->
<g id="edge73" class="edge">
<title>55&#45;&#45;62</title>
<path fill="none" stroke="green" stroke-width="2" d="M217.16,-227.45C222.48,-231.5 228.36,-235.98 233.68,-240.03"/>
</g>
<!-- 56 -->
<g id="node57" class="node">
<title>56</title>
<ellipse fill="lightblue" stroke="black" cx="272.84" cy="-376.78" rx="20.6" ry="20.6"/>
<text text-anchor="middle" x="272.84" y="-373.08" font-family="Arial" font-size="14.00">56</text>
</g>
<!-- 57 -->
<g id="node58" class="node">
<title>57</title>
<ellipse fill="#b2dfee" stroke="black" cx="400.96" cy="-419.19" rx="20.6" ry="20.6"/>
<text text-anchor="middle" x="400.96" y="-415.49" font-family="Arial" font-size="14.00">57</text>
</g>
<!-- 91 -->
<g id="node92" class="node">
<title>91</title>
<ellipse fill="#9ac0cd" stroke="black" cx="150.58" cy="-457.61" rx="20.6" ry="20.6"/>
<text text-anchor="middle" x="150.58" y="-453.91" font-family="Arial" font-size="14.00">91</text>
</g>
<!-- 57&#45;&#45;91 -->
<g id="edge74" class="edge">
<title>57&#45;&#45;91</title>
<path fill="none" stroke="green" stroke-width="2" d="M380.33,-422.62C351.12,-427.44 296.01,-436.39 248.94,-443.21 232.65,-445.57 228.51,-445.72 212.21,-448.05 198.6,-450.01 183.32,-452.37 171.39,-454.26"/>
</g>
<!-- 75 -->
<g id="node76" class="node">
<title>75</title>
<ellipse fill="#b2dfee" stroke="black" cx="399.53" cy="-219.77" rx="20.6" ry="20.6"/>
<text text-anchor="middle" x="399.53" y="-216.07" font-family="Arial" font-size="14.00">75</text>
</g>
<!-- 61&#45;&#45;75 -->
<g id="edge75" class="edge">
<title>61&#45;&#45;75</title>
<path fill="none" stroke="green" stroke-width="2" d="M433.34,-229.18C428.91,-227.94 424.22,-226.64 419.78,-225.4"/>
</g>
<!-- 61&#45;&#45;78 -->
<g id="edge76" class="edge">
<title>61&#45;&#45;78</title>
<path fill="none" stroke="green" stroke-width="2" d="M452.75,-213.72C452.67,-211.18 452.59,-208.59 452.51,-206.06"/>
</g>
<!-- 64 -->
<g id="node65" class="node">
<title>64</title>
<ellipse fill="#b2dfee" stroke="black" cx="82.23" cy="-611.2" rx="20.6" ry="20.6"/>
<text text-anchor="middle" x="82.23" y="-607.5" font-family="Arial" font-size="14.00">64</text>
</g>
<!-- 64&#45;&#45;89 -->
<g id="edge77" class="edge">
<title>64&#45;&#45;89</title>
<path fill="none" stroke="green" stroke-width="2" d="M63.78,-621.3C55.99,-625.56 46.95,-630.52 39.17,-634.78"/>
</g>
<!-- 67 -->
<g id="node68" class="node">
<title>67</title>
<ellipse fill="#b2dfee" stroke="black" cx="51.7" cy="-229.02" rx="20.6" ry="20.6"/>
<text text-anchor="middle" x="51.7" y="-225.32" font-family="Arial" font-size="14.00">67</text>
</g>
<!-- 67&#45;&#45;92 -->
<g id="edge78" class="edge">
<title>67&#45;&#45;92</title>
<path fill="none" stroke="green" stroke-width="2" d="M72.31,-232.93C85.12,-235.58 101.85,-239.44 116.34,-244.07 126.63,-247.36 137.79,-251.85 146.91,-255.79"/>
</g>
<!-- 85 -->
<g id="node86" class="node">
<title>85</title>
<ellipse fill="#b2dfee" stroke="black" cx="398.34" cy="-308.05" rx="20.6" ry="20.6"/>
<text text-anchor="middle" x="398.34" y="-304.35" font-family="Arial" font-size="14.00">85</text>
</g>
<!-- 69&#45;&#45;85 -->
<g id="edge79" class="edge">
<title>69&#45;&#45;85</title>
<path fill="none" stroke="green" stroke-width="2" d="M599.23,-396.91C556.32,-389.06 459.38,-369.63 432.71,-349.76 423.83,-343.15 415.83,-333.77 409.79,-325.58"/>
</g>
<!-- 87 -->
<g id="node88" class="node">
<title>87</title>
<ellipse fill="#b2dfee" stroke="black" cx="324.37" cy="-332.2" rx="20.6" ry="20.6"/>
<text text-anchor="middle" x="324.37" y="-328.5" font-family="Arial" font-size="14.00">87</text>
</g>
<!-- 70&#45;&#45;87 -->
<g id="edge80" class="edge">
<title>70&#45;&#45;87</title>
<path fill="none" stroke="green" stroke-width="2" d="M332.47,-380.83C331.01,-372.03 329.3,-361.82 327.84,-353.03"/>
</g>
<!-- 71 -->
<g id="node72" class="node">
<title>71</title>
<ellipse fill="#b2dfee" stroke="black" cx="325.06" cy="-174.01" rx="20.6" ry="20.6"/>
<text text-anchor="middle" x="325.06" y="-170.31" font-family="Arial" font-size="14.00">71</text>
</g>
<!-- 71&#45;&#45;88 -->
<g id="edge81" class="edge">
<title>71&#45;&#45;88</title>
<path fill="none" stroke="green" stroke-width="2" d="M339.2,-189.91C358.13,-211.79 391.91,-252.94 414.27,-292.3 427.51,-315.62 419.18,-326.6 432.71,-349.76 436.92,-356.98 442.45,-364.32 447.53,-370.49"/>
</g>
<!-- 72 -->
<g id="node73" class="node">
<title>72</title>
<ellipse fill="#b2dfee" stroke="black" cx="242.96" cy="-71.96" rx="20.6" ry="20.6"/>
<text text-anchor="middle" x="242.96" y="-68.26" font-family="Arial" font-size="14.00">72</text>
</g>
<!-- 72&#45;&#45;92 -->
<g id="edge82" class="edge">
<title>72&#45;&#45;92</title>
<path fill="none" stroke="green" stroke-width="2" d="M233.06,-90.38C219.07,-117.1 193.51,-168.47 178.2,-214.72 175.07,-224.17 172.34,-234.88 170.25,-243.93"/>
</g>
<!-- 73 -->
<g id="node74" class="node">
<title>73</title>
<ellipse fill="#9ac0cd" stroke="black" cx="549.63" cy="-186.4" rx="20.6" ry="20.6"/>
<text text-anchor="middle" x="549.63" y="-182.7" font-family="Arial" font-size="14.00">73</text>
</g>
<!-- 73&#45;&#45;78 -->
<g id="edge83" class="edge">
<title>73&#45;&#45;78</title>
<path fill="none" stroke="green" stroke-width="2" d="M528.41,-186.13C511.9,-185.92 489.11,-185.62 472.69,-185.41"/>
</g>
<!-- 93 -->
<g id="node94" class="node">
<title>93</title>
<ellipse fill="#b2dfee" stroke="black" cx="716.18" cy="-221.74" rx="20.6" ry="20.6"/>
<text text-anchor="middle" x="716.18" y="-218.04" font-family="Arial" font-size="14.00">93</text>
</g>
<!-- 73&#45;&#45;93 -->
<g id="edge84" class="edge">
<title>73&#45;&#45;93</title>
<path fill="none" stroke="green" stroke-width="2" d="M569.07,-194.73C578.1,-197.99 589.08,-201.15 599.37,-201.89 625.76,-203.79 631.9,-189.31 658.17,-192.53 665.73,-193.45 667.07,-195.94 673.95,-199.23 681.89,-203.02 690.5,-207.54 697.86,-211.52"/>
</g>
<!-- 76&#45;&#45;89 -->
<g id="edge85" class="edge">
<title>76&#45;&#45;89</title>
<path fill="none" stroke="green" stroke-width="2" d="M200.69,-641.14C161.97,-641.94 80.1,-643.64 41.59,-644.44"/>
</g>
<!-- 76&#45;&#45;91 -->
<g id="edge86" class="edge">
<title>76&#45;&#45;91</title>
<path fill="none" stroke="green" stroke-width="2" d="M208.92,-624.34C192.4,-602.2 164.77,-560.77 155.21,-519.98 152.04,-506.45 150.88,-490.86 150.51,-478.65"/>
</g>
<!-- 83 -->
<g id="node84" class="node">
<title>83</title>
<ellipse fill="#b2dfee" stroke="black" cx="200.22" cy="-415.27" rx="20.6" ry="20.6"/>
<text text-anchor="middle" x="200.22" y="-411.57" font-family="Arial" font-size="14.00">83</text>
</g>
<!-- 83&#45;&#45;89 -->
<g id="edge87" class="edge">
<title>83&#45;&#45;89</title>
<path fill="none" stroke="green" stroke-width="2" d="M190.49,-433.89C184.12,-445.59 175.32,-460.82 166.34,-473.53 143.63,-505.64 66.46,-593.35 34.63,-629.25"/>
</g>
<!-- 86 -->
<g id="node87" class="node">
<title>86</title>
<ellipse fill="lightblue" stroke="black" cx="45.55" cy="-102.22" rx="20.6" ry="20.6"/>
<text text-anchor="middle" x="45.55" y="-98.52" font-family="Arial" font-size="14.00">86</text>
</g>
<!-- 99 -->
<g id="node100" class="node">
<title>99</title>
<ellipse fill="#b2dfee" stroke="black" cx="300.11" cy="-259.6" rx="20.6" ry="20.6"/>
<text text-anchor="middle" x="300.11" y="-255.9" font-family="Arial" font-size="14.00">99</text>
</g>
<!-- 92&#45;&#45;99 -->
<g id="edge88" class="edge">
<title>92&#45;&#45;99</title>
<path fill="none" stroke="green" stroke-width="2" d="M186.35,-269.51C203.39,-273.12 228.34,-277.05 250.22,-275.12 260.52,-274.21 271.54,-271.03 280.59,-267.79"/>
</g>
<!-- 95 -->
<g id="node96" class="node">
<title>95</title>
<ellipse fill="lightblue" stroke="black" cx="212.14" cy="-470.45" rx="20.6" ry="20.6"/>
<text text-anchor="middle" x="212.14" y="-466.75" font-family="Arial" font-size="14.00">95</text>
</g>
</g>
</svg>
